<svg width="372" height="217" viewBox="0 0 372 217" fill="none" xmlns="http://www.w3.org/2000/svg">
<g filter="url(#filter0_d_12_157)">
<path d="M73 47C73 27.1177 89.1178 11 109 11H320C339.882 11 356 27.1178 356 47V155C356 174.882 339.882 191 320 191H76C74.3431 191 73 189.657 73 188V47Z" fill="#8F3985"/>
<path d="M109 11.5H320C339.606 11.5 355.5 27.3939 355.5 47V155C355.5 174.606 339.606 190.5 320 190.5H76C74.6193 190.5 73.5 189.381 73.5 188V47C73.5 27.3939 89.3939 11.5 109 11.5Z" stroke="#8F3985"/>
</g>
<path d="M78.3545 111.291C78.3856 109.594 76.7444 108.411 75.4913 109.228L18.1077 146.619C16.9248 147.39 16.9758 149.387 18.2009 150.27L74.16 190.592C75.3851 191.474 76.9006 190.606 76.9299 189.004L78.3545 111.291Z" fill="#8F3985"/>
<path d="M127.305 72H124.277V60.2422H120.4V57.7227H131.182V60.2422H127.305V72ZM139.238 60.877C139.388 60.877 139.561 60.8867 139.756 60.9062C139.958 60.9193 140.12 60.9388 140.244 60.9648L140.02 63.7578C139.922 63.7253 139.782 63.7025 139.6 63.6895C139.424 63.6699 139.271 63.6602 139.141 63.6602C138.757 63.6602 138.382 63.709 138.018 63.8066C137.66 63.9043 137.337 64.0638 137.051 64.2852C136.764 64.5 136.536 64.7865 136.367 65.1445C136.204 65.4961 136.123 65.929 136.123 66.4434V72H133.145V61.082H135.4L135.84 62.918H135.986C136.201 62.5469 136.468 62.2083 136.787 61.9023C137.113 61.5898 137.48 61.3424 137.891 61.1602C138.307 60.9714 138.757 60.877 139.238 60.877ZM146.699 60.8574C148.164 60.8574 149.287 61.1764 150.068 61.8145C150.85 62.4525 151.24 63.4225 151.24 64.7246V72H149.16L148.584 70.5156H148.506C148.193 70.9062 147.874 71.2253 147.549 71.4727C147.223 71.7201 146.849 71.9023 146.426 72.0195C146.003 72.1367 145.488 72.1953 144.883 72.1953C144.238 72.1953 143.659 72.0716 143.145 71.8242C142.637 71.5768 142.236 71.1992 141.943 70.6914C141.65 70.1771 141.504 69.526 141.504 68.7383C141.504 67.5794 141.911 66.7266 142.725 66.1797C143.538 65.6263 144.759 65.3203 146.387 65.2617L148.281 65.2031V64.7246C148.281 64.1517 148.132 63.7318 147.832 63.4648C147.533 63.1979 147.116 63.0645 146.582 63.0645C146.055 63.0645 145.537 63.1393 145.029 63.2891C144.521 63.4388 144.014 63.6276 143.506 63.8555L142.52 61.8438C143.099 61.5378 143.747 61.2969 144.463 61.1211C145.186 60.9453 145.931 60.8574 146.699 60.8574ZM148.281 66.9414L147.129 66.9805C146.165 67.0065 145.495 67.179 145.117 67.498C144.746 67.8171 144.561 68.237 144.561 68.7578C144.561 69.2135 144.694 69.5391 144.961 69.7344C145.228 69.9232 145.576 70.0176 146.006 70.0176C146.644 70.0176 147.181 69.8288 147.617 69.4512C148.06 69.0736 148.281 68.5365 148.281 67.8398V66.9414ZM158.75 72.1953C157.669 72.1953 156.748 72 155.986 71.6094C155.225 71.2122 154.645 70.6003 154.248 69.7734C153.851 68.9466 153.652 67.8887 153.652 66.5996C153.652 65.265 153.877 64.1777 154.326 63.3379C154.782 62.4915 155.41 61.8698 156.211 61.4727C157.018 61.0755 157.952 60.877 159.014 60.877C159.769 60.877 160.42 60.9518 160.967 61.1016C161.52 61.2448 162.002 61.4173 162.412 61.6191L161.533 63.9238C161.064 63.735 160.628 63.582 160.225 63.4648C159.821 63.3411 159.417 63.2793 159.014 63.2793C158.493 63.2793 158.06 63.403 157.715 63.6504C157.37 63.8913 157.113 64.2559 156.943 64.7441C156.774 65.2324 156.689 65.8444 156.689 66.5801C156.689 67.3027 156.781 67.9017 156.963 68.377C157.145 68.8522 157.409 69.207 157.754 69.4414C158.099 69.6693 158.519 69.7832 159.014 69.7832C159.632 69.7832 160.182 69.7018 160.664 69.5391C161.146 69.3698 161.615 69.1354 162.07 68.8359V71.3848C161.615 71.6712 161.136 71.8763 160.635 72C160.14 72.1302 159.512 72.1953 158.75 72.1953ZM167.588 56.8047V63.6016C167.588 64.0117 167.572 64.4219 167.539 64.832C167.507 65.2422 167.471 65.6523 167.432 66.0625H167.471C167.673 65.776 167.878 65.4928 168.086 65.2129C168.301 64.9329 168.529 64.6628 168.77 64.4023L171.826 61.082H175.186L170.85 65.8184L175.449 72H172.012L168.867 67.5762L167.588 68.6016V72H164.609V56.8047H167.588ZM184.629 68.7578C184.629 69.5 184.453 70.1283 184.102 70.6426C183.757 71.1504 183.239 71.5378 182.549 71.8047C181.859 72.0651 180.999 72.1953 179.971 72.1953C179.209 72.1953 178.555 72.1465 178.008 72.0488C177.467 71.9512 176.921 71.7884 176.367 71.5605V69.0996C176.96 69.3665 177.594 69.5879 178.271 69.7637C178.955 69.9329 179.554 70.0176 180.068 70.0176C180.648 70.0176 181.061 69.9329 181.309 69.7637C181.562 69.5879 181.689 69.36 181.689 69.0801C181.689 68.8978 181.637 68.735 181.533 68.5918C181.436 68.4421 181.221 68.276 180.889 68.0938C180.557 67.9049 180.036 67.6608 179.326 67.3613C178.643 67.0749 178.079 66.7852 177.637 66.4922C177.201 66.1992 176.875 65.8542 176.66 65.457C176.452 65.0534 176.348 64.5423 176.348 63.9238C176.348 62.9147 176.738 62.1562 177.52 61.6484C178.307 61.1341 179.359 60.877 180.674 60.877C181.351 60.877 181.995 60.9453 182.607 61.082C183.226 61.2188 183.861 61.4368 184.512 61.7363L183.613 63.8848C183.073 63.6504 182.562 63.4583 182.08 63.3086C181.605 63.1589 181.12 63.084 180.625 63.084C180.189 63.084 179.86 63.1426 179.639 63.2598C179.417 63.377 179.307 63.556 179.307 63.7969C179.307 63.9727 179.362 64.1289 179.473 64.2656C179.59 64.4023 179.811 64.5553 180.137 64.7246C180.469 64.8874 180.954 65.099 181.592 65.3594C182.21 65.6133 182.747 65.8802 183.203 66.1602C183.659 66.4336 184.01 66.7754 184.258 67.1855C184.505 67.5892 184.629 68.1133 184.629 68.7578ZM195.127 61.082V72H192.148V61.082H195.127ZM193.643 56.8047C194.085 56.8047 194.466 56.9089 194.785 57.1172C195.104 57.319 195.264 57.6999 195.264 58.2598C195.264 58.8132 195.104 59.1973 194.785 59.4121C194.466 59.6204 194.085 59.7246 193.643 59.7246C193.193 59.7246 192.809 59.6204 192.49 59.4121C192.178 59.1973 192.021 58.8132 192.021 58.2598C192.021 57.6999 192.178 57.319 192.49 57.1172C192.809 56.9089 193.193 56.8047 193.643 56.8047ZM211.084 60.877C212.321 60.877 213.255 61.196 213.887 61.834C214.525 62.4655 214.844 63.4811 214.844 64.8809V72H211.855V65.623C211.855 64.8418 211.722 64.2526 211.455 63.8555C211.188 63.4583 210.775 63.2598 210.215 63.2598C209.427 63.2598 208.867 63.543 208.535 64.1094C208.203 64.6693 208.037 65.4733 208.037 66.5215V72H205.059V65.623C205.059 65.1022 205 64.666 204.883 64.3145C204.766 63.9629 204.587 63.6992 204.346 63.5234C204.105 63.3477 203.796 63.2598 203.418 63.2598C202.865 63.2598 202.428 63.3997 202.109 63.6797C201.797 63.9531 201.572 64.36 201.436 64.9004C201.305 65.4342 201.24 66.0885 201.24 66.8633V72H198.262V61.082H200.537L200.938 62.4785H201.104C201.325 62.1009 201.602 61.7949 201.934 61.5605C202.272 61.3262 202.643 61.1536 203.047 61.043C203.451 60.9323 203.861 60.877 204.277 60.877C205.078 60.877 205.755 61.0072 206.309 61.2676C206.868 61.528 207.298 61.9316 207.598 62.4785H207.861C208.187 61.9186 208.646 61.5117 209.238 61.2578C209.837 61.0039 210.452 60.877 211.084 60.877ZM223.984 60.877C225.215 60.877 226.208 61.3555 226.963 62.3125C227.725 63.2695 228.105 64.6725 228.105 66.5215C228.105 67.7585 227.926 68.8001 227.568 69.6465C227.21 70.4863 226.715 71.1211 226.084 71.5508C225.452 71.9805 224.727 72.1953 223.906 72.1953C223.379 72.1953 222.926 72.1302 222.549 72C222.171 71.8633 221.849 71.6908 221.582 71.4824C221.315 71.2676 221.084 71.0397 220.889 70.7988H220.732C220.785 71.0592 220.824 71.3262 220.85 71.5996C220.876 71.873 220.889 72.14 220.889 72.4004V76.8047H217.91V61.082H220.332L220.752 62.498H220.889C221.084 62.2051 221.322 61.9349 221.602 61.6875C221.882 61.4401 222.217 61.2448 222.607 61.1016C223.005 60.9518 223.464 60.877 223.984 60.877ZM223.027 63.2598C222.507 63.2598 222.093 63.3672 221.787 63.582C221.481 63.7969 221.257 64.1191 221.113 64.5488C220.977 64.9785 220.902 65.5221 220.889 66.1797V66.502C220.889 67.2051 220.954 67.8008 221.084 68.2891C221.221 68.7773 221.445 69.1484 221.758 69.4023C222.077 69.6562 222.513 69.7832 223.066 69.7832C223.522 69.7832 223.896 69.6562 224.189 69.4023C224.482 69.1484 224.701 68.7773 224.844 68.2891C224.993 67.7943 225.068 67.1921 225.068 66.4824C225.068 65.4147 224.902 64.6107 224.57 64.0703C224.238 63.5299 223.724 63.2598 223.027 63.2598ZM240.488 66.5215C240.488 67.4329 240.365 68.2402 240.117 68.9434C239.876 69.6465 239.521 70.2422 239.053 70.7305C238.59 71.2122 238.031 71.5768 237.373 71.8242C236.722 72.0716 235.986 72.1953 235.166 72.1953C234.398 72.1953 233.691 72.0716 233.047 71.8242C232.409 71.5768 231.852 71.2122 231.377 70.7305C230.908 70.2422 230.544 69.6465 230.283 68.9434C230.029 68.2402 229.902 67.4329 229.902 66.5215C229.902 65.3105 230.117 64.2852 230.547 63.4453C230.977 62.6055 231.589 61.9674 232.383 61.5312C233.177 61.0951 234.124 60.877 235.225 60.877C236.247 60.877 237.152 61.0951 237.939 61.5312C238.734 61.9674 239.355 62.6055 239.805 63.4453C240.26 64.2852 240.488 65.3105 240.488 66.5215ZM232.939 66.5215C232.939 67.2376 233.018 67.8398 233.174 68.3281C233.33 68.8164 233.574 69.1842 233.906 69.4316C234.238 69.679 234.671 69.8027 235.205 69.8027C235.732 69.8027 236.159 69.679 236.484 69.4316C236.816 69.1842 237.057 68.8164 237.207 68.3281C237.363 67.8398 237.441 67.2376 237.441 66.5215C237.441 65.7988 237.363 65.1999 237.207 64.7246C237.057 64.2428 236.816 63.8815 236.484 63.6406C236.152 63.3997 235.719 63.2793 235.186 63.2793C234.398 63.2793 233.825 63.5495 233.467 64.0898C233.115 64.6302 232.939 65.4408 232.939 66.5215ZM249.043 60.877C249.193 60.877 249.365 60.8867 249.561 60.9062C249.762 60.9193 249.925 60.9388 250.049 60.9648L249.824 63.7578C249.727 63.7253 249.587 63.7025 249.404 63.6895C249.229 63.6699 249.076 63.6602 248.945 63.6602C248.561 63.6602 248.187 63.709 247.822 63.8066C247.464 63.9043 247.142 64.0638 246.855 64.2852C246.569 64.5 246.341 64.7865 246.172 65.1445C246.009 65.4961 245.928 65.929 245.928 66.4434V72H242.949V61.082H245.205L245.645 62.918H245.791C246.006 62.5469 246.273 62.2083 246.592 61.9023C246.917 61.5898 247.285 61.3424 247.695 61.1602C248.112 60.9714 248.561 60.877 249.043 60.877ZM256.631 69.8223C256.956 69.8223 257.272 69.7897 257.578 69.7246C257.891 69.6595 258.2 69.5781 258.506 69.4805V71.6973C258.187 71.8405 257.79 71.9577 257.314 72.0488C256.846 72.1465 256.331 72.1953 255.771 72.1953C255.12 72.1953 254.535 72.0911 254.014 71.8828C253.499 71.668 253.092 71.3001 252.793 70.7793C252.5 70.252 252.354 69.5195 252.354 68.582V63.3184H250.928V62.0586L252.568 61.0625L253.428 58.7578H255.332V61.082H258.389V63.3184H255.332V68.582C255.332 68.9987 255.449 69.3112 255.684 69.5195C255.924 69.7214 256.24 69.8223 256.631 69.8223ZM265.195 60.8574C266.66 60.8574 267.783 61.1764 268.564 61.8145C269.346 62.4525 269.736 63.4225 269.736 64.7246V72H267.656L267.08 70.5156H267.002C266.689 70.9062 266.37 71.2253 266.045 71.4727C265.719 71.7201 265.345 71.9023 264.922 72.0195C264.499 72.1367 263.984 72.1953 263.379 72.1953C262.734 72.1953 262.155 72.0716 261.641 71.8242C261.133 71.5768 260.732 71.1992 260.439 70.6914C260.146 70.1771 260 69.526 260 68.7383C260 67.5794 260.407 66.7266 261.221 66.1797C262.035 65.6263 263.255 65.3203 264.883 65.2617L266.777 65.2031V64.7246C266.777 64.1517 266.628 63.7318 266.328 63.4648C266.029 63.1979 265.612 63.0645 265.078 63.0645C264.551 63.0645 264.033 63.1393 263.525 63.2891C263.018 63.4388 262.51 63.6276 262.002 63.8555L261.016 61.8438C261.595 61.5378 262.243 61.2969 262.959 61.1211C263.682 60.9453 264.427 60.8574 265.195 60.8574ZM266.777 66.9414L265.625 66.9805C264.661 67.0065 263.991 67.179 263.613 67.498C263.242 67.8171 263.057 68.237 263.057 68.7578C263.057 69.2135 263.19 69.5391 263.457 69.7344C263.724 69.9232 264.072 70.0176 264.502 70.0176C265.14 70.0176 265.677 69.8288 266.113 69.4512C266.556 69.0736 266.777 68.5365 266.777 67.8398V66.9414ZM279.014 60.877C280.179 60.877 281.117 61.196 281.826 61.834C282.536 62.4655 282.891 63.4811 282.891 64.8809V72H279.912V65.623C279.912 64.8418 279.769 64.2526 279.482 63.8555C279.202 63.4583 278.76 63.2598 278.154 63.2598C277.243 63.2598 276.621 63.569 276.289 64.1875C275.957 64.806 275.791 65.6979 275.791 66.8633V72H272.812V61.082H275.088L275.488 62.4785H275.654C275.889 62.1009 276.178 61.7949 276.523 61.5605C276.875 61.3262 277.262 61.1536 277.686 61.043C278.115 60.9323 278.558 60.877 279.014 60.877ZM290.557 69.8223C290.882 69.8223 291.198 69.7897 291.504 69.7246C291.816 69.6595 292.126 69.5781 292.432 69.4805V71.6973C292.113 71.8405 291.715 71.9577 291.24 72.0488C290.771 72.1465 290.257 72.1953 289.697 72.1953C289.046 72.1953 288.46 72.0911 287.939 71.8828C287.425 71.668 287.018 71.3001 286.719 70.7793C286.426 70.252 286.279 69.5195 286.279 68.582V63.3184H284.854V62.0586L286.494 61.0625L287.354 58.7578H289.258V61.082H292.314V63.3184H289.258V68.582C289.258 68.9987 289.375 69.3112 289.609 69.5195C289.85 69.7214 290.166 69.8223 290.557 69.8223ZM127.598 83.3184H125.02V92H122.041V83.3184H120.4V81.8828L122.041 81.082V80.2812C122.041 79.3503 122.197 78.6276 122.51 78.1133C122.829 77.5924 123.275 77.2279 123.848 77.0195C124.427 76.8047 125.111 76.6973 125.898 76.6973C126.478 76.6973 127.005 76.7461 127.48 76.8438C127.956 76.9349 128.343 77.0391 128.643 77.1562L127.881 79.3438C127.653 79.2721 127.406 79.207 127.139 79.1484C126.872 79.0898 126.566 79.0605 126.221 79.0605C125.804 79.0605 125.498 79.1875 125.303 79.4414C125.114 79.6888 125.02 80.0078 125.02 80.3984V81.082H127.598V83.3184ZM133.818 80.877C134.827 80.877 135.697 81.0723 136.426 81.4629C137.155 81.847 137.718 82.4069 138.115 83.1426C138.512 83.8783 138.711 84.7767 138.711 85.8379V87.2832H131.67C131.702 88.123 131.953 88.7839 132.422 89.2656C132.897 89.7409 133.555 89.9785 134.395 89.9785C135.091 89.9785 135.729 89.9069 136.309 89.7637C136.888 89.6204 137.484 89.4056 138.096 89.1191V91.4238C137.555 91.6908 136.989 91.8861 136.396 92.0098C135.811 92.1335 135.098 92.1953 134.258 92.1953C133.164 92.1953 132.194 91.9935 131.348 91.5898C130.508 91.1862 129.847 90.571 129.365 89.7441C128.89 88.9173 128.652 87.8757 128.652 86.6191C128.652 85.3431 128.867 84.2819 129.297 83.4355C129.733 82.5827 130.339 81.9447 131.113 81.5215C131.888 81.0918 132.79 80.877 133.818 80.877ZM133.838 82.9961C133.258 82.9961 132.777 83.1816 132.393 83.5527C132.015 83.9238 131.797 84.5065 131.738 85.3008H135.918C135.911 84.8581 135.83 84.4642 135.674 84.1191C135.524 83.7741 135.296 83.5007 134.99 83.2988C134.691 83.097 134.307 82.9961 133.838 82.9961ZM145.605 80.8574C147.07 80.8574 148.193 81.1764 148.975 81.8145C149.756 82.4525 150.146 83.4225 150.146 84.7246V92H148.066L147.49 90.5156H147.412C147.1 90.9062 146.781 91.2253 146.455 91.4727C146.13 91.7201 145.755 91.9023 145.332 92.0195C144.909 92.1367 144.395 92.1953 143.789 92.1953C143.145 92.1953 142.565 92.0716 142.051 91.8242C141.543 91.5768 141.143 91.1992 140.85 90.6914C140.557 90.1771 140.41 89.526 140.41 88.7383C140.41 87.5794 140.817 86.7266 141.631 86.1797C142.445 85.6263 143.665 85.3203 145.293 85.2617L147.188 85.2031V84.7246C147.188 84.1517 147.038 83.7318 146.738 83.4648C146.439 83.1979 146.022 83.0645 145.488 83.0645C144.961 83.0645 144.443 83.1393 143.936 83.2891C143.428 83.4388 142.92 83.6276 142.412 83.8555L141.426 81.8438C142.005 81.5378 142.653 81.2969 143.369 81.1211C144.092 80.9453 144.837 80.8574 145.605 80.8574ZM147.188 86.9414L146.035 86.9805C145.072 87.0065 144.401 87.179 144.023 87.498C143.652 87.8171 143.467 88.237 143.467 88.7578C143.467 89.2135 143.6 89.5391 143.867 89.7344C144.134 89.9232 144.482 90.0176 144.912 90.0176C145.55 90.0176 146.087 89.8288 146.523 89.4512C146.966 89.0736 147.188 88.5365 147.188 87.8398V86.9414ZM157.822 89.8223C158.148 89.8223 158.464 89.7897 158.77 89.7246C159.082 89.6595 159.391 89.5781 159.697 89.4805V91.6973C159.378 91.8405 158.981 91.9577 158.506 92.0488C158.037 92.1465 157.523 92.1953 156.963 92.1953C156.312 92.1953 155.726 92.0911 155.205 91.8828C154.691 91.668 154.284 91.3001 153.984 90.7793C153.691 90.252 153.545 89.5195 153.545 88.582V83.3184H152.119V82.0586L153.76 81.0625L154.619 78.7578H156.523V81.082H159.58V83.3184H156.523V88.582C156.523 88.9987 156.641 89.3112 156.875 89.5195C157.116 89.7214 157.432 89.8223 157.822 89.8223ZM171.934 81.082V92H169.648L169.248 90.6035H169.092C168.857 90.9746 168.564 91.2773 168.213 91.5117C167.861 91.7461 167.474 91.9186 167.051 92.0293C166.628 92.14 166.188 92.1953 165.732 92.1953C164.951 92.1953 164.271 92.0586 163.691 91.7852C163.112 91.5052 162.66 91.0723 162.334 90.4863C162.015 89.9004 161.855 89.1387 161.855 88.2012V81.082H164.834V87.459C164.834 88.2402 164.974 88.8294 165.254 89.2266C165.534 89.6237 165.98 89.8223 166.592 89.8223C167.197 89.8223 167.673 89.6855 168.018 89.4121C168.363 89.1322 168.604 88.7253 168.74 88.1914C168.883 87.651 168.955 86.9935 168.955 86.2188V81.082H171.934ZM181.152 80.877C181.302 80.877 181.475 80.8867 181.67 80.9062C181.872 80.9193 182.035 80.9388 182.158 80.9648L181.934 83.7578C181.836 83.7253 181.696 83.7025 181.514 83.6895C181.338 83.6699 181.185 83.6602 181.055 83.6602C180.671 83.6602 180.296 83.709 179.932 83.8066C179.574 83.9043 179.251 84.0638 178.965 84.2852C178.678 84.5 178.451 84.7865 178.281 85.1445C178.118 85.4961 178.037 85.929 178.037 86.4434V92H175.059V81.082H177.314L177.754 82.918H177.9C178.115 82.5469 178.382 82.2083 178.701 81.9023C179.027 81.5898 179.395 81.3424 179.805 81.1602C180.221 80.9714 180.671 80.877 181.152 80.877ZM188.643 80.877C189.652 80.877 190.521 81.0723 191.25 81.4629C191.979 81.847 192.542 82.4069 192.939 83.1426C193.337 83.8783 193.535 84.7767 193.535 85.8379V87.2832H186.494C186.527 88.123 186.777 88.7839 187.246 89.2656C187.721 89.7409 188.379 89.9785 189.219 89.9785C189.915 89.9785 190.553 89.9069 191.133 89.7637C191.712 89.6204 192.308 89.4056 192.92 89.1191V91.4238C192.38 91.6908 191.813 91.8861 191.221 92.0098C190.635 92.1335 189.922 92.1953 189.082 92.1953C187.988 92.1953 187.018 91.9935 186.172 91.5898C185.332 91.1862 184.671 90.571 184.189 89.7441C183.714 88.9173 183.477 87.8757 183.477 86.6191C183.477 85.3431 183.691 84.2819 184.121 83.4355C184.557 82.5827 185.163 81.9447 185.938 81.5215C186.712 81.0918 187.614 80.877 188.643 80.877ZM188.662 82.9961C188.083 82.9961 187.601 83.1816 187.217 83.5527C186.839 83.9238 186.621 84.5065 186.562 85.3008H190.742C190.736 84.8581 190.654 84.4642 190.498 84.1191C190.348 83.7741 190.12 83.5007 189.814 83.2988C189.515 83.097 189.131 82.9961 188.662 82.9961ZM203.574 88.7578C203.574 89.5 203.398 90.1283 203.047 90.6426C202.702 91.1504 202.184 91.5378 201.494 91.8047C200.804 92.0651 199.945 92.1953 198.916 92.1953C198.154 92.1953 197.5 92.1465 196.953 92.0488C196.413 91.9512 195.866 91.7884 195.312 91.5605V89.0996C195.905 89.3665 196.54 89.5879 197.217 89.7637C197.9 89.9329 198.499 90.0176 199.014 90.0176C199.593 90.0176 200.007 89.9329 200.254 89.7637C200.508 89.5879 200.635 89.36 200.635 89.0801C200.635 88.8978 200.583 88.735 200.479 88.5918C200.381 88.4421 200.166 88.276 199.834 88.0938C199.502 87.9049 198.981 87.6608 198.271 87.3613C197.588 87.0749 197.025 86.7852 196.582 86.4922C196.146 86.1992 195.82 85.8542 195.605 85.457C195.397 85.0534 195.293 84.5423 195.293 83.9238C195.293 82.9147 195.684 82.1562 196.465 81.6484C197.253 81.1341 198.304 80.877 199.619 80.877C200.296 80.877 200.941 80.9453 201.553 81.082C202.171 81.2188 202.806 81.4368 203.457 81.7363L202.559 83.8848C202.018 83.6504 201.507 83.4583 201.025 83.3086C200.55 83.1589 200.065 83.084 199.57 83.084C199.134 83.084 198.805 83.1426 198.584 83.2598C198.363 83.377 198.252 83.556 198.252 83.7969C198.252 83.9727 198.307 84.1289 198.418 84.2656C198.535 84.4023 198.757 84.5553 199.082 84.7246C199.414 84.8874 199.899 85.099 200.537 85.3594C201.156 85.6133 201.693 85.8802 202.148 86.1602C202.604 86.4336 202.956 86.7754 203.203 87.1855C203.451 87.5892 203.574 88.1133 203.574 88.7578ZM215.693 89.8223C216.019 89.8223 216.335 89.7897 216.641 89.7246C216.953 89.6595 217.262 89.5781 217.568 89.4805V91.6973C217.249 91.8405 216.852 91.9577 216.377 92.0488C215.908 92.1465 215.394 92.1953 214.834 92.1953C214.183 92.1953 213.597 92.0911 213.076 91.8828C212.562 91.668 212.155 91.3001 211.855 90.7793C211.562 90.252 211.416 89.5195 211.416 88.582V83.3184H209.99V82.0586L211.631 81.0625L212.49 78.7578H214.395V81.082H217.451V83.3184H214.395V88.582C214.395 88.9987 214.512 89.3112 214.746 89.5195C214.987 89.7214 215.303 89.8223 215.693 89.8223ZM222.764 76.8047V79.9004C222.764 80.4408 222.744 80.9551 222.705 81.4434C222.673 81.9316 222.646 82.2767 222.627 82.4785H222.783C223.018 82.1009 223.294 81.7949 223.613 81.5605C223.939 81.3262 224.297 81.1536 224.688 81.043C225.078 80.9323 225.498 80.877 225.947 80.877C226.735 80.877 227.422 81.0169 228.008 81.2969C228.594 81.5703 229.049 82.0033 229.375 82.5957C229.701 83.1816 229.863 83.9434 229.863 84.8809V92H226.885V85.623C226.885 84.8418 226.742 84.2526 226.455 83.8555C226.169 83.4583 225.726 83.2598 225.127 83.2598C224.528 83.2598 224.056 83.3997 223.711 83.6797C223.366 83.9531 223.122 84.36 222.979 84.9004C222.835 85.4342 222.764 86.0885 222.764 86.8633V92H219.785V76.8047H222.764ZM237.402 80.8574C238.867 80.8574 239.99 81.1764 240.771 81.8145C241.553 82.4525 241.943 83.4225 241.943 84.7246V92H239.863L239.287 90.5156H239.209C238.896 90.9062 238.577 91.2253 238.252 91.4727C237.926 91.7201 237.552 91.9023 237.129 92.0195C236.706 92.1367 236.191 92.1953 235.586 92.1953C234.941 92.1953 234.362 92.0716 233.848 91.8242C233.34 91.5768 232.939 91.1992 232.646 90.6914C232.354 90.1771 232.207 89.526 232.207 88.7383C232.207 87.5794 232.614 86.7266 233.428 86.1797C234.242 85.6263 235.462 85.3203 237.09 85.2617L238.984 85.2031V84.7246C238.984 84.1517 238.835 83.7318 238.535 83.4648C238.236 83.1979 237.819 83.0645 237.285 83.0645C236.758 83.0645 236.24 83.1393 235.732 83.2891C235.225 83.4388 234.717 83.6276 234.209 83.8555L233.223 81.8438C233.802 81.5378 234.45 81.2969 235.166 81.1211C235.889 80.9453 236.634 80.8574 237.402 80.8574ZM238.984 86.9414L237.832 86.9805C236.868 87.0065 236.198 87.179 235.82 87.498C235.449 87.8171 235.264 88.237 235.264 88.7578C235.264 89.2135 235.397 89.5391 235.664 89.7344C235.931 89.9232 236.279 90.0176 236.709 90.0176C237.347 90.0176 237.884 89.8288 238.32 89.4512C238.763 89.0736 238.984 88.5365 238.984 87.8398V86.9414ZM249.619 89.8223C249.945 89.8223 250.26 89.7897 250.566 89.7246C250.879 89.6595 251.188 89.5781 251.494 89.4805V91.6973C251.175 91.8405 250.778 91.9577 250.303 92.0488C249.834 92.1465 249.32 92.1953 248.76 92.1953C248.109 92.1953 247.523 92.0911 247.002 91.8828C246.488 91.668 246.081 91.3001 245.781 90.7793C245.488 90.252 245.342 89.5195 245.342 88.582V83.3184H243.916V82.0586L245.557 81.0625L246.416 78.7578H248.32V81.082H251.377V83.3184H248.32V88.582C248.32 88.9987 248.438 89.3112 248.672 89.5195C248.913 89.7214 249.229 89.8223 249.619 89.8223ZM263.379 80.8574C264.844 80.8574 265.967 81.1764 266.748 81.8145C267.529 82.4525 267.92 83.4225 267.92 84.7246V92H265.84L265.264 90.5156H265.186C264.873 90.9062 264.554 91.2253 264.229 91.4727C263.903 91.7201 263.529 91.9023 263.105 92.0195C262.682 92.1367 262.168 92.1953 261.562 92.1953C260.918 92.1953 260.339 92.0716 259.824 91.8242C259.316 91.5768 258.916 91.1992 258.623 90.6914C258.33 90.1771 258.184 89.526 258.184 88.7383C258.184 87.5794 258.59 86.7266 259.404 86.1797C260.218 85.6263 261.439 85.3203 263.066 85.2617L264.961 85.2031V84.7246C264.961 84.1517 264.811 83.7318 264.512 83.4648C264.212 83.1979 263.796 83.0645 263.262 83.0645C262.734 83.0645 262.217 83.1393 261.709 83.2891C261.201 83.4388 260.693 83.6276 260.186 83.8555L259.199 81.8438C259.779 81.5378 260.426 81.2969 261.143 81.1211C261.865 80.9453 262.611 80.8574 263.379 80.8574ZM264.961 86.9414L263.809 86.9805C262.845 87.0065 262.174 87.179 261.797 87.498C261.426 87.8171 261.24 88.237 261.24 88.7578C261.24 89.2135 261.374 89.5391 261.641 89.7344C261.908 89.9232 262.256 90.0176 262.686 90.0176C263.324 90.0176 263.861 89.8288 264.297 89.4512C264.74 89.0736 264.961 88.5365 264.961 87.8398V86.9414ZM277.09 80.877C277.24 80.877 277.412 80.8867 277.607 80.9062C277.809 80.9193 277.972 80.9388 278.096 80.9648L277.871 83.7578C277.773 83.7253 277.633 83.7025 277.451 83.6895C277.275 83.6699 277.122 83.6602 276.992 83.6602C276.608 83.6602 276.234 83.709 275.869 83.8066C275.511 83.9043 275.189 84.0638 274.902 84.2852C274.616 84.5 274.388 84.7865 274.219 85.1445C274.056 85.4961 273.975 85.929 273.975 86.4434V92H270.996V81.082H273.252L273.691 82.918H273.838C274.053 82.5469 274.32 82.2083 274.639 81.9023C274.964 81.5898 275.332 81.3424 275.742 81.1602C276.159 80.9714 276.608 80.877 277.09 80.877ZM284.58 80.877C285.589 80.877 286.458 81.0723 287.188 81.4629C287.917 81.847 288.48 82.4069 288.877 83.1426C289.274 83.8783 289.473 84.7767 289.473 85.8379V87.2832H282.432C282.464 88.123 282.715 88.7839 283.184 89.2656C283.659 89.7409 284.316 89.9785 285.156 89.9785C285.853 89.9785 286.491 89.9069 287.07 89.7637C287.65 89.6204 288.245 89.4056 288.857 89.1191V91.4238C288.317 91.6908 287.751 91.8861 287.158 92.0098C286.572 92.1335 285.859 92.1953 285.02 92.1953C283.926 92.1953 282.956 91.9935 282.109 91.5898C281.27 91.1862 280.609 90.571 280.127 89.7441C279.652 88.9173 279.414 87.8757 279.414 86.6191C279.414 85.3431 279.629 84.2819 280.059 83.4355C280.495 82.5827 281.1 81.9447 281.875 81.5215C282.65 81.0918 283.551 80.877 284.58 80.877ZM284.6 82.9961C284.02 82.9961 283.538 83.1816 283.154 83.5527C282.777 83.9238 282.559 84.5065 282.5 85.3008H286.68C286.673 84.8581 286.592 84.4642 286.436 84.1191C286.286 83.7741 286.058 83.5007 285.752 83.2988C285.452 83.097 285.068 82.9961 284.6 82.9961ZM124.541 101.082V112H121.562V101.082H124.541ZM123.057 96.8047C123.499 96.8047 123.88 96.9089 124.199 97.1172C124.518 97.319 124.678 97.6999 124.678 98.2598C124.678 98.8132 124.518 99.1973 124.199 99.4121C123.88 99.6204 123.499 99.7246 123.057 99.7246C122.607 99.7246 122.223 99.6204 121.904 99.4121C121.592 99.1973 121.436 98.8132 121.436 98.2598C121.436 97.6999 121.592 97.319 121.904 97.1172C122.223 96.9089 122.607 96.8047 123.057 96.8047ZM140.498 100.877C141.735 100.877 142.669 101.196 143.301 101.834C143.939 102.465 144.258 103.481 144.258 104.881V112H141.27V105.623C141.27 104.842 141.136 104.253 140.869 103.855C140.602 103.458 140.189 103.26 139.629 103.26C138.841 103.26 138.281 103.543 137.949 104.109C137.617 104.669 137.451 105.473 137.451 106.521V112H134.473V105.623C134.473 105.102 134.414 104.666 134.297 104.314C134.18 103.963 134.001 103.699 133.76 103.523C133.519 103.348 133.21 103.26 132.832 103.26C132.279 103.26 131.842 103.4 131.523 103.68C131.211 103.953 130.986 104.36 130.85 104.9C130.719 105.434 130.654 106.089 130.654 106.863V112H127.676V101.082H129.951L130.352 102.479H130.518C130.739 102.101 131.016 101.795 131.348 101.561C131.686 101.326 132.057 101.154 132.461 101.043C132.865 100.932 133.275 100.877 133.691 100.877C134.492 100.877 135.169 101.007 135.723 101.268C136.283 101.528 136.712 101.932 137.012 102.479H137.275C137.601 101.919 138.06 101.512 138.652 101.258C139.251 101.004 139.867 100.877 140.498 100.877ZM153.398 100.877C154.629 100.877 155.622 101.355 156.377 102.312C157.139 103.27 157.52 104.673 157.52 106.521C157.52 107.758 157.34 108.8 156.982 109.646C156.624 110.486 156.13 111.121 155.498 111.551C154.867 111.98 154.141 112.195 153.32 112.195C152.793 112.195 152.34 112.13 151.963 112C151.585 111.863 151.263 111.691 150.996 111.482C150.729 111.268 150.498 111.04 150.303 110.799H150.146C150.199 111.059 150.238 111.326 150.264 111.6C150.29 111.873 150.303 112.14 150.303 112.4V116.805H147.324V101.082H149.746L150.166 102.498H150.303C150.498 102.205 150.736 101.935 151.016 101.688C151.296 101.44 151.631 101.245 152.021 101.102C152.419 100.952 152.878 100.877 153.398 100.877ZM152.441 103.26C151.921 103.26 151.507 103.367 151.201 103.582C150.895 103.797 150.671 104.119 150.527 104.549C150.391 104.979 150.316 105.522 150.303 106.18V106.502C150.303 107.205 150.368 107.801 150.498 108.289C150.635 108.777 150.859 109.148 151.172 109.402C151.491 109.656 151.927 109.783 152.48 109.783C152.936 109.783 153.311 109.656 153.604 109.402C153.896 109.148 154.115 108.777 154.258 108.289C154.408 107.794 154.482 107.192 154.482 106.482C154.482 105.415 154.316 104.611 153.984 104.07C153.652 103.53 153.138 103.26 152.441 103.26ZM169.902 106.521C169.902 107.433 169.779 108.24 169.531 108.943C169.29 109.646 168.936 110.242 168.467 110.73C168.005 111.212 167.445 111.577 166.787 111.824C166.136 112.072 165.4 112.195 164.58 112.195C163.812 112.195 163.105 112.072 162.461 111.824C161.823 111.577 161.266 111.212 160.791 110.73C160.322 110.242 159.958 109.646 159.697 108.943C159.443 108.24 159.316 107.433 159.316 106.521C159.316 105.311 159.531 104.285 159.961 103.445C160.391 102.605 161.003 101.967 161.797 101.531C162.591 101.095 163.538 100.877 164.639 100.877C165.661 100.877 166.566 101.095 167.354 101.531C168.148 101.967 168.77 102.605 169.219 103.445C169.674 104.285 169.902 105.311 169.902 106.521ZM162.354 106.521C162.354 107.238 162.432 107.84 162.588 108.328C162.744 108.816 162.988 109.184 163.32 109.432C163.652 109.679 164.085 109.803 164.619 109.803C165.146 109.803 165.573 109.679 165.898 109.432C166.23 109.184 166.471 108.816 166.621 108.328C166.777 107.84 166.855 107.238 166.855 106.521C166.855 105.799 166.777 105.2 166.621 104.725C166.471 104.243 166.23 103.882 165.898 103.641C165.566 103.4 165.133 103.279 164.6 103.279C163.812 103.279 163.239 103.549 162.881 104.09C162.529 104.63 162.354 105.441 162.354 106.521ZM178.457 100.877C178.607 100.877 178.779 100.887 178.975 100.906C179.176 100.919 179.339 100.939 179.463 100.965L179.238 103.758C179.141 103.725 179.001 103.702 178.818 103.689C178.643 103.67 178.49 103.66 178.359 103.66C177.975 103.66 177.601 103.709 177.236 103.807C176.878 103.904 176.556 104.064 176.27 104.285C175.983 104.5 175.755 104.786 175.586 105.145C175.423 105.496 175.342 105.929 175.342 106.443V112H172.363V101.082H174.619L175.059 102.918H175.205C175.42 102.547 175.687 102.208 176.006 101.902C176.331 101.59 176.699 101.342 177.109 101.16C177.526 100.971 177.975 100.877 178.457 100.877ZM186.045 109.822C186.37 109.822 186.686 109.79 186.992 109.725C187.305 109.66 187.614 109.578 187.92 109.48V111.697C187.601 111.84 187.204 111.958 186.729 112.049C186.26 112.146 185.745 112.195 185.186 112.195C184.535 112.195 183.949 112.091 183.428 111.883C182.913 111.668 182.507 111.3 182.207 110.779C181.914 110.252 181.768 109.52 181.768 108.582V103.318H180.342V102.059L181.982 101.062L182.842 98.7578H184.746V101.082H187.803V103.318H184.746V108.582C184.746 108.999 184.863 109.311 185.098 109.52C185.339 109.721 185.654 109.822 186.045 109.822ZM194.609 100.857C196.074 100.857 197.197 101.176 197.979 101.814C198.76 102.452 199.15 103.423 199.15 104.725V112H197.07L196.494 110.516H196.416C196.104 110.906 195.785 111.225 195.459 111.473C195.133 111.72 194.759 111.902 194.336 112.02C193.913 112.137 193.398 112.195 192.793 112.195C192.148 112.195 191.569 112.072 191.055 111.824C190.547 111.577 190.146 111.199 189.854 110.691C189.561 110.177 189.414 109.526 189.414 108.738C189.414 107.579 189.821 106.727 190.635 106.18C191.449 105.626 192.669 105.32 194.297 105.262L196.191 105.203V104.725C196.191 104.152 196.042 103.732 195.742 103.465C195.443 103.198 195.026 103.064 194.492 103.064C193.965 103.064 193.447 103.139 192.939 103.289C192.432 103.439 191.924 103.628 191.416 103.855L190.43 101.844C191.009 101.538 191.657 101.297 192.373 101.121C193.096 100.945 193.841 100.857 194.609 100.857ZM196.191 106.941L195.039 106.98C194.076 107.007 193.405 107.179 193.027 107.498C192.656 107.817 192.471 108.237 192.471 108.758C192.471 109.214 192.604 109.539 192.871 109.734C193.138 109.923 193.486 110.018 193.916 110.018C194.554 110.018 195.091 109.829 195.527 109.451C195.97 109.074 196.191 108.536 196.191 107.84V106.941ZM208.428 100.877C209.593 100.877 210.531 101.196 211.24 101.834C211.95 102.465 212.305 103.481 212.305 104.881V112H209.326V105.623C209.326 104.842 209.183 104.253 208.896 103.855C208.617 103.458 208.174 103.26 207.568 103.26C206.657 103.26 206.035 103.569 205.703 104.188C205.371 104.806 205.205 105.698 205.205 106.863V112H202.227V101.082H204.502L204.902 102.479H205.068C205.303 102.101 205.592 101.795 205.938 101.561C206.289 101.326 206.676 101.154 207.1 101.043C207.529 100.932 207.972 100.877 208.428 100.877ZM219.971 109.822C220.296 109.822 220.612 109.79 220.918 109.725C221.23 109.66 221.54 109.578 221.846 109.48V111.697C221.527 111.84 221.13 111.958 220.654 112.049C220.186 112.146 219.671 112.195 219.111 112.195C218.46 112.195 217.874 112.091 217.354 111.883C216.839 111.668 216.432 111.3 216.133 110.779C215.84 110.252 215.693 109.52 215.693 108.582V103.318H214.268V102.059L215.908 101.062L216.768 98.7578H218.672V101.082H221.729V103.318H218.672V108.582C218.672 108.999 218.789 109.311 219.023 109.52C219.264 109.721 219.58 109.822 219.971 109.822ZM232.715 112.195C231.497 112.195 230.505 111.72 229.736 110.77C228.975 109.812 228.594 108.41 228.594 106.561C228.594 104.692 228.981 103.279 229.756 102.322C230.531 101.359 231.543 100.877 232.793 100.877C233.314 100.877 233.773 100.949 234.17 101.092C234.567 101.235 234.909 101.427 235.195 101.668C235.488 101.909 235.736 102.179 235.938 102.479H236.035C235.996 102.27 235.947 101.964 235.889 101.561C235.837 101.15 235.811 100.73 235.811 100.301V96.8047H238.799V112H236.514L235.938 110.584H235.811C235.622 110.883 235.384 111.157 235.098 111.404C234.818 111.645 234.482 111.837 234.092 111.98C233.701 112.124 233.242 112.195 232.715 112.195ZM233.76 109.822C234.574 109.822 235.146 109.581 235.479 109.1C235.817 108.611 235.996 107.879 236.016 106.902V106.58C236.016 105.519 235.853 104.708 235.527 104.148C235.202 103.582 234.596 103.299 233.711 103.299C233.053 103.299 232.539 103.582 232.168 104.148C231.797 104.715 231.611 105.532 231.611 106.6C231.611 107.667 231.797 108.471 232.168 109.012C232.546 109.552 233.076 109.822 233.76 109.822ZM248.008 100.877C248.158 100.877 248.33 100.887 248.525 100.906C248.727 100.919 248.89 100.939 249.014 100.965L248.789 103.758C248.691 103.725 248.551 103.702 248.369 103.689C248.193 103.67 248.04 103.66 247.91 103.66C247.526 103.66 247.152 103.709 246.787 103.807C246.429 103.904 246.107 104.064 245.82 104.285C245.534 104.5 245.306 104.786 245.137 105.145C244.974 105.496 244.893 105.929 244.893 106.443V112H241.914V101.082H244.17L244.609 102.918H244.756C244.971 102.547 245.238 102.208 245.557 101.902C245.882 101.59 246.25 101.342 246.66 101.16C247.077 100.971 247.526 100.877 248.008 100.877ZM253.975 101.082V112H250.996V101.082H253.975ZM252.49 96.8047C252.933 96.8047 253.314 96.9089 253.633 97.1172C253.952 97.319 254.111 97.6999 254.111 98.2598C254.111 98.8132 253.952 99.1973 253.633 99.4121C253.314 99.6204 252.933 99.7246 252.49 99.7246C252.041 99.7246 251.657 99.6204 251.338 99.4121C251.025 99.1973 250.869 98.8132 250.869 98.2598C250.869 97.6999 251.025 97.319 251.338 97.1172C251.657 96.9089 252.041 96.8047 252.49 96.8047ZM259.707 112L255.547 101.082H258.662L260.771 107.303C260.889 107.667 260.98 108.051 261.045 108.455C261.117 108.859 261.165 109.22 261.191 109.539H261.27C261.289 109.194 261.335 108.826 261.406 108.436C261.484 108.045 261.585 107.667 261.709 107.303L263.809 101.082H266.924L262.764 112H259.707ZM272.998 100.877C274.007 100.877 274.876 101.072 275.605 101.463C276.335 101.847 276.898 102.407 277.295 103.143C277.692 103.878 277.891 104.777 277.891 105.838V107.283H270.85C270.882 108.123 271.133 108.784 271.602 109.266C272.077 109.741 272.734 109.979 273.574 109.979C274.271 109.979 274.909 109.907 275.488 109.764C276.068 109.62 276.663 109.406 277.275 109.119V111.424C276.735 111.691 276.169 111.886 275.576 112.01C274.99 112.133 274.277 112.195 273.438 112.195C272.344 112.195 271.374 111.993 270.527 111.59C269.688 111.186 269.027 110.571 268.545 109.744C268.07 108.917 267.832 107.876 267.832 106.619C267.832 105.343 268.047 104.282 268.477 103.436C268.913 102.583 269.518 101.945 270.293 101.521C271.068 101.092 271.969 100.877 272.998 100.877ZM273.018 102.996C272.438 102.996 271.956 103.182 271.572 103.553C271.195 103.924 270.977 104.507 270.918 105.301H275.098C275.091 104.858 275.01 104.464 274.854 104.119C274.704 103.774 274.476 103.501 274.17 103.299C273.87 103.097 273.486 102.996 273.018 102.996ZM286.406 100.877C286.556 100.877 286.729 100.887 286.924 100.906C287.126 100.919 287.288 100.939 287.412 100.965L287.188 103.758C287.09 103.725 286.95 103.702 286.768 103.689C286.592 103.67 286.439 103.66 286.309 103.66C285.924 103.66 285.55 103.709 285.186 103.807C284.827 103.904 284.505 104.064 284.219 104.285C283.932 104.5 283.704 104.786 283.535 105.145C283.372 105.496 283.291 105.929 283.291 106.443V112H280.312V101.082H282.568L283.008 102.918H283.154C283.369 102.547 283.636 102.208 283.955 101.902C284.281 101.59 284.648 101.342 285.059 101.16C285.475 100.971 285.924 100.877 286.406 100.877ZM297.012 108.758C297.012 109.5 296.836 110.128 296.484 110.643C296.139 111.15 295.622 111.538 294.932 111.805C294.242 112.065 293.382 112.195 292.354 112.195C291.592 112.195 290.938 112.146 290.391 112.049C289.85 111.951 289.303 111.788 288.75 111.561V109.1C289.342 109.367 289.977 109.588 290.654 109.764C291.338 109.933 291.937 110.018 292.451 110.018C293.031 110.018 293.444 109.933 293.691 109.764C293.945 109.588 294.072 109.36 294.072 109.08C294.072 108.898 294.02 108.735 293.916 108.592C293.818 108.442 293.604 108.276 293.271 108.094C292.939 107.905 292.419 107.661 291.709 107.361C291.025 107.075 290.462 106.785 290.02 106.492C289.583 106.199 289.258 105.854 289.043 105.457C288.835 105.053 288.73 104.542 288.73 103.924C288.73 102.915 289.121 102.156 289.902 101.648C290.69 101.134 291.742 100.877 293.057 100.877C293.734 100.877 294.378 100.945 294.99 101.082C295.609 101.219 296.243 101.437 296.895 101.736L295.996 103.885C295.456 103.65 294.945 103.458 294.463 103.309C293.988 103.159 293.503 103.084 293.008 103.084C292.572 103.084 292.243 103.143 292.021 103.26C291.8 103.377 291.689 103.556 291.689 103.797C291.689 103.973 291.745 104.129 291.855 104.266C291.973 104.402 292.194 104.555 292.52 104.725C292.852 104.887 293.337 105.099 293.975 105.359C294.593 105.613 295.13 105.88 295.586 106.16C296.042 106.434 296.393 106.775 296.641 107.186C296.888 107.589 297.012 108.113 297.012 108.758ZM310.566 103.318H307.988V112H305.01V103.318H303.369V101.883L305.01 101.082V100.281C305.01 99.3503 305.166 98.6276 305.479 98.1133C305.798 97.5924 306.243 97.2279 306.816 97.0195C307.396 96.8047 308.079 96.6973 308.867 96.6973C309.447 96.6973 309.974 96.7461 310.449 96.8438C310.924 96.9349 311.312 97.0391 311.611 97.1562L310.85 99.3438C310.622 99.2721 310.374 99.207 310.107 99.1484C309.84 99.0898 309.535 99.0605 309.189 99.0605C308.773 99.0605 308.467 99.1875 308.271 99.4414C308.083 99.6888 307.988 100.008 307.988 100.398V101.082H310.566V103.318ZM322.207 106.521C322.207 107.433 322.083 108.24 321.836 108.943C321.595 109.646 321.24 110.242 320.771 110.73C320.309 111.212 319.749 111.577 319.092 111.824C318.441 112.072 317.705 112.195 316.885 112.195C316.117 112.195 315.41 112.072 314.766 111.824C314.128 111.577 313.571 111.212 313.096 110.73C312.627 110.242 312.262 109.646 312.002 108.943C311.748 108.24 311.621 107.433 311.621 106.521C311.621 105.311 311.836 104.285 312.266 103.445C312.695 102.605 313.307 101.967 314.102 101.531C314.896 101.095 315.843 100.877 316.943 100.877C317.965 100.877 318.87 101.095 319.658 101.531C320.452 101.967 321.074 102.605 321.523 103.445C321.979 104.285 322.207 105.311 322.207 106.521ZM314.658 106.521C314.658 107.238 314.736 107.84 314.893 108.328C315.049 108.816 315.293 109.184 315.625 109.432C315.957 109.679 316.39 109.803 316.924 109.803C317.451 109.803 317.878 109.679 318.203 109.432C318.535 109.184 318.776 108.816 318.926 108.328C319.082 107.84 319.16 107.238 319.16 106.521C319.16 105.799 319.082 105.2 318.926 104.725C318.776 104.243 318.535 103.882 318.203 103.641C317.871 103.4 317.438 103.279 316.904 103.279C316.117 103.279 315.544 103.549 315.186 104.09C314.834 104.63 314.658 105.441 314.658 106.521ZM330.762 100.877C330.911 100.877 331.084 100.887 331.279 100.906C331.481 100.919 331.644 100.939 331.768 100.965L331.543 103.758C331.445 103.725 331.305 103.702 331.123 103.689C330.947 103.67 330.794 103.66 330.664 103.66C330.28 103.66 329.906 103.709 329.541 103.807C329.183 103.904 328.861 104.064 328.574 104.285C328.288 104.5 328.06 104.786 327.891 105.145C327.728 105.496 327.646 105.929 327.646 106.443V112H324.668V101.082H326.924L327.363 102.918H327.51C327.725 102.547 327.992 102.208 328.311 101.902C328.636 101.59 329.004 101.342 329.414 101.16C329.831 100.971 330.28 100.877 330.762 100.877ZM125.996 132.195C124.915 132.195 123.994 132 123.232 131.609C122.471 131.212 121.891 130.6 121.494 129.773C121.097 128.947 120.898 127.889 120.898 126.6C120.898 125.265 121.123 124.178 121.572 123.338C122.028 122.492 122.656 121.87 123.457 121.473C124.264 121.076 125.199 120.877 126.26 120.877C127.015 120.877 127.666 120.952 128.213 121.102C128.766 121.245 129.248 121.417 129.658 121.619L128.779 123.924C128.311 123.735 127.874 123.582 127.471 123.465C127.067 123.341 126.663 123.279 126.26 123.279C125.739 123.279 125.306 123.403 124.961 123.65C124.616 123.891 124.359 124.256 124.189 124.744C124.02 125.232 123.936 125.844 123.936 126.58C123.936 127.303 124.027 127.902 124.209 128.377C124.391 128.852 124.655 129.207 125 129.441C125.345 129.669 125.765 129.783 126.26 129.783C126.878 129.783 127.428 129.702 127.91 129.539C128.392 129.37 128.861 129.135 129.316 128.836V131.385C128.861 131.671 128.382 131.876 127.881 132C127.386 132.13 126.758 132.195 125.996 132.195ZM141.875 121.082V132H139.59L139.189 130.604H139.033C138.799 130.975 138.506 131.277 138.154 131.512C137.803 131.746 137.415 131.919 136.992 132.029C136.569 132.14 136.13 132.195 135.674 132.195C134.893 132.195 134.212 132.059 133.633 131.785C133.053 131.505 132.601 131.072 132.275 130.486C131.956 129.9 131.797 129.139 131.797 128.201V121.082H134.775V127.459C134.775 128.24 134.915 128.829 135.195 129.227C135.475 129.624 135.921 129.822 136.533 129.822C137.139 129.822 137.614 129.686 137.959 129.412C138.304 129.132 138.545 128.725 138.682 128.191C138.825 127.651 138.896 126.993 138.896 126.219V121.082H141.875ZM152.617 128.758C152.617 129.5 152.441 130.128 152.09 130.643C151.745 131.15 151.227 131.538 150.537 131.805C149.847 132.065 148.988 132.195 147.959 132.195C147.197 132.195 146.543 132.146 145.996 132.049C145.456 131.951 144.909 131.788 144.355 131.561V129.1C144.948 129.367 145.583 129.588 146.26 129.764C146.943 129.933 147.542 130.018 148.057 130.018C148.636 130.018 149.049 129.933 149.297 129.764C149.551 129.588 149.678 129.36 149.678 129.08C149.678 128.898 149.626 128.735 149.521 128.592C149.424 128.442 149.209 128.276 148.877 128.094C148.545 127.905 148.024 127.661 147.314 127.361C146.631 127.075 146.068 126.785 145.625 126.492C145.189 126.199 144.863 125.854 144.648 125.457C144.44 125.053 144.336 124.542 144.336 123.924C144.336 122.915 144.727 122.156 145.508 121.648C146.296 121.134 147.347 120.877 148.662 120.877C149.339 120.877 149.984 120.945 150.596 121.082C151.214 121.219 151.849 121.437 152.5 121.736L151.602 123.885C151.061 123.65 150.55 123.458 150.068 123.309C149.593 123.159 149.108 123.084 148.613 123.084C148.177 123.084 147.848 123.143 147.627 123.26C147.406 123.377 147.295 123.556 147.295 123.797C147.295 123.973 147.35 124.129 147.461 124.266C147.578 124.402 147.799 124.555 148.125 124.725C148.457 124.887 148.942 125.099 149.58 125.359C150.199 125.613 150.736 125.88 151.191 126.16C151.647 126.434 151.999 126.775 152.246 127.186C152.493 127.589 152.617 128.113 152.617 128.758ZM159.541 129.822C159.867 129.822 160.182 129.79 160.488 129.725C160.801 129.66 161.11 129.578 161.416 129.48V131.697C161.097 131.84 160.7 131.958 160.225 132.049C159.756 132.146 159.242 132.195 158.682 132.195C158.031 132.195 157.445 132.091 156.924 131.883C156.41 131.668 156.003 131.3 155.703 130.779C155.41 130.252 155.264 129.52 155.264 128.582V123.318H153.838V122.059L155.479 121.062L156.338 118.758H158.242V121.082H161.299V123.318H158.242V128.582C158.242 128.999 158.359 129.311 158.594 129.52C158.835 129.721 159.15 129.822 159.541 129.822ZM173.555 126.521C173.555 127.433 173.431 128.24 173.184 128.943C172.943 129.646 172.588 130.242 172.119 130.73C171.657 131.212 171.097 131.577 170.439 131.824C169.788 132.072 169.053 132.195 168.232 132.195C167.464 132.195 166.758 132.072 166.113 131.824C165.475 131.577 164.919 131.212 164.443 130.73C163.975 130.242 163.61 129.646 163.35 128.943C163.096 128.24 162.969 127.433 162.969 126.521C162.969 125.311 163.184 124.285 163.613 123.445C164.043 122.605 164.655 121.967 165.449 121.531C166.243 121.095 167.191 120.877 168.291 120.877C169.313 120.877 170.218 121.095 171.006 121.531C171.8 121.967 172.422 122.605 172.871 123.445C173.327 124.285 173.555 125.311 173.555 126.521ZM166.006 126.521C166.006 127.238 166.084 127.84 166.24 128.328C166.396 128.816 166.641 129.184 166.973 129.432C167.305 129.679 167.738 129.803 168.271 129.803C168.799 129.803 169.225 129.679 169.551 129.432C169.883 129.184 170.124 128.816 170.273 128.328C170.43 127.84 170.508 127.238 170.508 126.521C170.508 125.799 170.43 125.2 170.273 124.725C170.124 124.243 169.883 123.882 169.551 123.641C169.219 123.4 168.786 123.279 168.252 123.279C167.464 123.279 166.891 123.549 166.533 124.09C166.182 124.63 166.006 125.441 166.006 126.521ZM188.838 120.877C190.075 120.877 191.009 121.196 191.641 121.834C192.279 122.465 192.598 123.481 192.598 124.881V132H189.609V125.623C189.609 124.842 189.476 124.253 189.209 123.855C188.942 123.458 188.529 123.26 187.969 123.26C187.181 123.26 186.621 123.543 186.289 124.109C185.957 124.669 185.791 125.473 185.791 126.521V132H182.812V125.623C182.812 125.102 182.754 124.666 182.637 124.314C182.52 123.963 182.34 123.699 182.1 123.523C181.859 123.348 181.549 123.26 181.172 123.26C180.618 123.26 180.182 123.4 179.863 123.68C179.551 123.953 179.326 124.36 179.189 124.9C179.059 125.434 178.994 126.089 178.994 126.863V132H176.016V121.082H178.291L178.691 122.479H178.857C179.079 122.101 179.355 121.795 179.688 121.561C180.026 121.326 180.397 121.154 180.801 121.043C181.204 120.932 181.615 120.877 182.031 120.877C182.832 120.877 183.509 121.007 184.062 121.268C184.622 121.528 185.052 121.932 185.352 122.479H185.615C185.941 121.919 186.4 121.512 186.992 121.258C187.591 121.004 188.206 120.877 188.838 120.877ZM200.166 120.877C201.175 120.877 202.044 121.072 202.773 121.463C203.503 121.847 204.066 122.407 204.463 123.143C204.86 123.878 205.059 124.777 205.059 125.838V127.283H198.018C198.05 128.123 198.301 128.784 198.77 129.266C199.245 129.741 199.902 129.979 200.742 129.979C201.439 129.979 202.077 129.907 202.656 129.764C203.236 129.62 203.831 129.406 204.443 129.119V131.424C203.903 131.691 203.337 131.886 202.744 132.01C202.158 132.133 201.445 132.195 200.605 132.195C199.512 132.195 198.542 131.993 197.695 131.59C196.855 131.186 196.195 130.571 195.713 129.744C195.238 128.917 195 127.876 195 126.619C195 125.343 195.215 124.282 195.645 123.436C196.081 122.583 196.686 121.945 197.461 121.521C198.236 121.092 199.137 120.877 200.166 120.877ZM200.186 122.996C199.606 122.996 199.124 123.182 198.74 123.553C198.363 123.924 198.145 124.507 198.086 125.301H202.266C202.259 124.858 202.178 124.464 202.021 124.119C201.872 123.774 201.644 123.501 201.338 123.299C201.038 123.097 200.654 122.996 200.186 122.996ZM213.574 120.877C213.724 120.877 213.896 120.887 214.092 120.906C214.294 120.919 214.456 120.939 214.58 120.965L214.355 123.758C214.258 123.725 214.118 123.702 213.936 123.689C213.76 123.67 213.607 123.66 213.477 123.66C213.092 123.66 212.718 123.709 212.354 123.807C211.995 123.904 211.673 124.064 211.387 124.285C211.1 124.5 210.872 124.786 210.703 125.145C210.54 125.496 210.459 125.929 210.459 126.443V132H207.48V121.082H209.736L210.176 122.918H210.322C210.537 122.547 210.804 122.208 211.123 121.902C211.449 121.59 211.816 121.342 212.227 121.16C212.643 120.971 213.092 120.877 213.574 120.877ZM227.852 120.877C228.001 120.877 228.174 120.887 228.369 120.906C228.571 120.919 228.734 120.939 228.857 120.965L228.633 123.758C228.535 123.725 228.395 123.702 228.213 123.689C228.037 123.67 227.884 123.66 227.754 123.66C227.37 123.66 226.995 123.709 226.631 123.807C226.273 123.904 225.951 124.064 225.664 124.285C225.378 124.5 225.15 124.786 224.98 125.145C224.818 125.496 224.736 125.929 224.736 126.443V132H221.758V121.082H224.014L224.453 122.918H224.6C224.814 122.547 225.081 122.208 225.4 121.902C225.726 121.59 226.094 121.342 226.504 121.16C226.921 120.971 227.37 120.877 227.852 120.877ZM235.342 120.877C236.351 120.877 237.22 121.072 237.949 121.463C238.678 121.847 239.242 122.407 239.639 123.143C240.036 123.878 240.234 124.777 240.234 125.838V127.283H233.193C233.226 128.123 233.477 128.784 233.945 129.266C234.421 129.741 235.078 129.979 235.918 129.979C236.615 129.979 237.253 129.907 237.832 129.764C238.411 129.62 239.007 129.406 239.619 129.119V131.424C239.079 131.691 238.512 131.886 237.92 132.01C237.334 132.133 236.621 132.195 235.781 132.195C234.688 132.195 233.717 131.993 232.871 131.59C232.031 131.186 231.37 130.571 230.889 129.744C230.413 128.917 230.176 127.876 230.176 126.619C230.176 125.343 230.391 124.282 230.82 123.436C231.257 122.583 231.862 121.945 232.637 121.521C233.411 121.092 234.313 120.877 235.342 120.877ZM235.361 122.996C234.782 122.996 234.3 123.182 233.916 123.553C233.538 123.924 233.32 124.507 233.262 125.301H237.441C237.435 124.858 237.354 124.464 237.197 124.119C237.048 123.774 236.82 123.501 236.514 123.299C236.214 123.097 235.83 122.996 235.361 122.996ZM247.256 129.822C247.581 129.822 247.897 129.79 248.203 129.725C248.516 129.66 248.825 129.578 249.131 129.48V131.697C248.812 131.84 248.415 131.958 247.939 132.049C247.471 132.146 246.956 132.195 246.396 132.195C245.745 132.195 245.16 132.091 244.639 131.883C244.124 131.668 243.717 131.3 243.418 130.779C243.125 130.252 242.979 129.52 242.979 128.582V123.318H241.553V122.059L243.193 121.062L244.053 118.758H245.957V121.082H249.014V123.318H245.957V128.582C245.957 128.999 246.074 129.311 246.309 129.52C246.549 129.721 246.865 129.822 247.256 129.822ZM255.85 120.877C256.859 120.877 257.728 121.072 258.457 121.463C259.186 121.847 259.749 122.407 260.146 123.143C260.544 123.878 260.742 124.777 260.742 125.838V127.283H253.701C253.734 128.123 253.984 128.784 254.453 129.266C254.928 129.741 255.586 129.979 256.426 129.979C257.122 129.979 257.76 129.907 258.34 129.764C258.919 129.62 259.515 129.406 260.127 129.119V131.424C259.587 131.691 259.02 131.886 258.428 132.01C257.842 132.133 257.129 132.195 256.289 132.195C255.195 132.195 254.225 131.993 253.379 131.59C252.539 131.186 251.878 130.571 251.396 129.744C250.921 128.917 250.684 127.876 250.684 126.619C250.684 125.343 250.898 124.282 251.328 123.436C251.764 122.583 252.37 121.945 253.145 121.521C253.919 121.092 254.821 120.877 255.85 120.877ZM255.869 122.996C255.29 122.996 254.808 123.182 254.424 123.553C254.046 123.924 253.828 124.507 253.77 125.301H257.949C257.943 124.858 257.861 124.464 257.705 124.119C257.555 123.774 257.327 123.501 257.021 123.299C256.722 123.097 256.338 122.996 255.869 122.996ZM269.365 120.877C270.531 120.877 271.468 121.196 272.178 121.834C272.887 122.465 273.242 123.481 273.242 124.881V132H270.264V125.623C270.264 124.842 270.12 124.253 269.834 123.855C269.554 123.458 269.111 123.26 268.506 123.26C267.594 123.26 266.973 123.569 266.641 124.188C266.309 124.806 266.143 125.698 266.143 126.863V132H263.164V121.082H265.439L265.84 122.479H266.006C266.24 122.101 266.53 121.795 266.875 121.561C267.227 121.326 267.614 121.154 268.037 121.043C268.467 120.932 268.91 120.877 269.365 120.877ZM280.908 129.822C281.234 129.822 281.549 129.79 281.855 129.725C282.168 129.66 282.477 129.578 282.783 129.48V131.697C282.464 131.84 282.067 131.958 281.592 132.049C281.123 132.146 280.609 132.195 280.049 132.195C279.398 132.195 278.812 132.091 278.291 131.883C277.777 131.668 277.37 131.3 277.07 130.779C276.777 130.252 276.631 129.52 276.631 128.582V123.318H275.205V122.059L276.846 121.062L277.705 118.758H279.609V121.082H282.666V123.318H279.609V128.582C279.609 128.999 279.727 129.311 279.961 129.52C280.202 129.721 280.518 129.822 280.908 129.822ZM287.979 121.082V132H285V121.082H287.979ZM286.494 116.805C286.937 116.805 287.318 116.909 287.637 117.117C287.956 117.319 288.115 117.7 288.115 118.26C288.115 118.813 287.956 119.197 287.637 119.412C287.318 119.62 286.937 119.725 286.494 119.725C286.045 119.725 285.661 119.62 285.342 119.412C285.029 119.197 284.873 118.813 284.873 118.26C284.873 117.7 285.029 117.319 285.342 117.117C285.661 116.909 286.045 116.805 286.494 116.805ZM301.035 126.521C301.035 127.433 300.911 128.24 300.664 128.943C300.423 129.646 300.068 130.242 299.6 130.73C299.137 131.212 298.577 131.577 297.92 131.824C297.269 132.072 296.533 132.195 295.713 132.195C294.945 132.195 294.238 132.072 293.594 131.824C292.956 131.577 292.399 131.212 291.924 130.73C291.455 130.242 291.09 129.646 290.83 128.943C290.576 128.24 290.449 127.433 290.449 126.521C290.449 125.311 290.664 124.285 291.094 123.445C291.523 122.605 292.135 121.967 292.93 121.531C293.724 121.095 294.671 120.877 295.771 120.877C296.794 120.877 297.699 121.095 298.486 121.531C299.281 121.967 299.902 122.605 300.352 123.445C300.807 124.285 301.035 125.311 301.035 126.521ZM293.486 126.521C293.486 127.238 293.564 127.84 293.721 128.328C293.877 128.816 294.121 129.184 294.453 129.432C294.785 129.679 295.218 129.803 295.752 129.803C296.279 129.803 296.706 129.679 297.031 129.432C297.363 129.184 297.604 128.816 297.754 128.328C297.91 127.84 297.988 127.238 297.988 126.521C297.988 125.799 297.91 125.2 297.754 124.725C297.604 124.243 297.363 123.882 297.031 123.641C296.699 123.4 296.266 123.279 295.732 123.279C294.945 123.279 294.372 123.549 294.014 124.09C293.662 124.63 293.486 125.441 293.486 126.521ZM309.697 120.877C310.863 120.877 311.8 121.196 312.51 121.834C313.219 122.465 313.574 123.481 313.574 124.881V132H310.596V125.623C310.596 124.842 310.452 124.253 310.166 123.855C309.886 123.458 309.443 123.26 308.838 123.26C307.926 123.26 307.305 123.569 306.973 124.188C306.641 124.806 306.475 125.698 306.475 126.863V132H303.496V121.082H305.771L306.172 122.479H306.338C306.572 122.101 306.862 121.795 307.207 121.561C307.559 121.326 307.946 121.154 308.369 121.043C308.799 120.932 309.242 120.877 309.697 120.877ZM316.221 130.604C316.221 129.992 316.387 129.562 316.719 129.314C317.057 129.067 317.464 128.943 317.939 128.943C318.402 128.943 318.799 129.067 319.131 129.314C319.469 129.562 319.639 129.992 319.639 130.604C319.639 131.189 319.469 131.613 319.131 131.873C318.799 132.133 318.402 132.264 317.939 132.264C317.464 132.264 317.057 132.133 316.719 131.873C316.387 131.613 316.221 131.189 316.221 130.604Z" fill="white"/>
<defs>
<filter id="filter0_d_12_157" x="57" y="0" width="315" height="212" filterUnits="userSpaceOnUse" color-interpolation-filters="sRGB">
<feFlood flood-opacity="0" result="BackgroundImageFix"/>
<feColorMatrix in="SourceAlpha" type="matrix" values="0 0 0 0 0 0 0 0 0 0 0 0 0 0 0 0 0 0 127 0" result="hardAlpha"/>
<feOffset dy="5"/>
<feGaussianBlur stdDeviation="8"/>
<feColorMatrix type="matrix" values="0 0 0 0 0.0323264 0 0 0 0 0.0598209 0 0 0 0 0.204167 0 0 0 0.06 0"/>
<feBlend mode="normal" in2="BackgroundImageFix" result="effect1_dropShadow_12_157"/>
<feBlend mode="normal" in="SourceGraphic" in2="effect1_dropShadow_12_157" result="shape"/>
</filter>
</defs>
</svg>
