<svg width="399" height="198" viewBox="0 0 399 198" fill="none" xmlns="http://www.w3.org/2000/svg">
<g filter="url(#filter0_d_12_121)">
<path d="M320 47C320 27.1177 303.882 11 284 11H52C32.1178 11 16 27.1177 16 47V138C16 157.882 32.1177 174 52 174H317C318.657 174 320 172.657 320 171V47Z" fill="#8F3985"/>
<path d="M284 11.5H52C32.3939 11.5 16.5 27.3939 16.5 47V138C16.5 157.606 32.3939 173.5 52 173.5H317C318.381 173.5 319.5 172.381 319.5 171V47C319.5 27.3939 303.606 11.5 284 11.5Z" stroke="#8F3985"/>
</g>
<path d="M314.12 101.547C314.087 100.008 315.732 99.0093 317.082 99.7499L378.581 133.493C379.93 134.234 379.972 136.158 378.656 136.957L318.684 173.345C317.368 174.143 315.68 173.217 315.647 171.678L314.12 101.547Z" fill="#8F3985"/>
<path d="M54.2812 67H50.8438L47.1035 60.9844L45.8242 61.9023V67H42.7969V52.7227H45.8242V59.2559C46.026 58.9759 46.2246 58.696 46.4199 58.416C46.6152 58.1361 46.8138 57.8561 47.0156 57.5762L50.8828 52.7227H54.2422L49.2617 59.041L54.2812 67ZM60.3457 55.877C61.3548 55.877 62.224 56.0723 62.9531 56.4629C63.6823 56.847 64.2454 57.4069 64.6426 58.1426C65.0397 58.8783 65.2383 59.7767 65.2383 60.8379V62.2832H58.1973C58.2298 63.123 58.4805 63.7839 58.9492 64.2656C59.4245 64.7409 60.082 64.9785 60.9219 64.9785C61.6185 64.9785 62.2565 64.9069 62.8359 64.7637C63.4154 64.6204 64.0111 64.4056 64.623 64.1191V66.4238C64.0827 66.6908 63.5163 66.8861 62.9238 67.0098C62.3379 67.1335 61.625 67.1953 60.7852 67.1953C59.6914 67.1953 58.7214 66.9935 57.875 66.5898C57.0352 66.1862 56.3743 65.571 55.8926 64.7441C55.4173 63.9173 55.1797 62.8757 55.1797 61.6191C55.1797 60.3431 55.3945 59.2819 55.8242 58.4355C56.2604 57.5827 56.8659 56.9447 57.6406 56.5215C58.4154 56.0918 59.3171 55.877 60.3457 55.877ZM60.3652 57.9961C59.7858 57.9961 59.304 58.1816 58.9199 58.5527C58.5423 58.9238 58.3242 59.5065 58.2656 60.3008H62.4453C62.4388 59.8581 62.3574 59.4642 62.2012 59.1191C62.0514 58.7741 61.8236 58.5007 61.5176 58.2988C61.2181 58.097 60.834 57.9961 60.3652 57.9961ZM72.1621 55.877C73.1712 55.877 74.0404 56.0723 74.7695 56.4629C75.4987 56.847 76.0618 57.4069 76.459 58.1426C76.8561 58.8783 77.0547 59.7767 77.0547 60.8379V62.2832H70.0137C70.0462 63.123 70.2969 63.7839 70.7656 64.2656C71.2409 64.7409 71.8984 64.9785 72.7383 64.9785C73.4349 64.9785 74.0729 64.9069 74.6523 64.7637C75.2318 64.6204 75.8275 64.4056 76.4395 64.1191V66.4238C75.8991 66.6908 75.3327 66.8861 74.7402 67.0098C74.1543 67.1335 73.4414 67.1953 72.6016 67.1953C71.5078 67.1953 70.5378 66.9935 69.6914 66.5898C68.8516 66.1862 68.1908 65.571 67.709 64.7441C67.2337 63.9173 66.9961 62.8757 66.9961 61.6191C66.9961 60.3431 67.2109 59.2819 67.6406 58.4355C68.0768 57.5827 68.6823 56.9447 69.457 56.5215C70.2318 56.0918 71.1335 55.877 72.1621 55.877ZM72.1816 57.9961C71.6022 57.9961 71.1204 58.1816 70.7363 58.5527C70.3587 58.9238 70.1406 59.5065 70.082 60.3008H74.2617C74.2552 59.8581 74.1738 59.4642 74.0176 59.1191C73.8678 58.7741 73.64 58.5007 73.334 58.2988C73.0345 58.097 72.6504 57.9961 72.1816 57.9961ZM85.5508 55.877C86.7812 55.877 87.7741 56.3555 88.5293 57.3125C89.291 58.2695 89.6719 59.6725 89.6719 61.5215C89.6719 62.7585 89.4928 63.8001 89.1348 64.6465C88.7767 65.4863 88.2819 66.1211 87.6504 66.5508C87.0189 66.9805 86.293 67.1953 85.4727 67.1953C84.9453 67.1953 84.4928 67.1302 84.1152 67C83.7376 66.8633 83.4154 66.6908 83.1484 66.4824C82.8815 66.2676 82.6504 66.0397 82.4551 65.7988H82.2988C82.3509 66.0592 82.39 66.3262 82.416 66.5996C82.4421 66.873 82.4551 67.14 82.4551 67.4004V71.8047H79.4766V56.082H81.8984L82.3184 57.498H82.4551C82.6504 57.2051 82.888 56.9349 83.168 56.6875C83.4479 56.4401 83.7832 56.2448 84.1738 56.1016C84.571 55.9518 85.0299 55.877 85.5508 55.877ZM84.5938 58.2598C84.0729 58.2598 83.6595 58.3672 83.3535 58.582C83.0475 58.7969 82.8229 59.1191 82.6797 59.5488C82.543 59.9785 82.4681 60.5221 82.4551 61.1797V61.502C82.4551 62.2051 82.5202 62.8008 82.6504 63.2891C82.7871 63.7773 83.0117 64.1484 83.3242 64.4023C83.6432 64.6562 84.0794 64.7832 84.6328 64.7832C85.0885 64.7832 85.4629 64.6562 85.7559 64.4023C86.0488 64.1484 86.2669 63.7773 86.4102 63.2891C86.5599 62.7943 86.6348 62.1921 86.6348 61.4824C86.6348 60.4147 86.4688 59.6107 86.1367 59.0703C85.8047 58.5299 85.2904 58.2598 84.5938 58.2598ZM99.75 63.7578C99.75 64.5 99.5742 65.1283 99.2227 65.6426C98.8776 66.1504 98.36 66.5378 97.6699 66.8047C96.9798 67.0651 96.1204 67.1953 95.0918 67.1953C94.3301 67.1953 93.6758 67.1465 93.1289 67.0488C92.5885 66.9512 92.0417 66.7884 91.4883 66.5605V64.0996C92.0807 64.3665 92.7155 64.5879 93.3926 64.7637C94.0762 64.9329 94.6751 65.0176 95.1895 65.0176C95.7689 65.0176 96.1823 64.9329 96.4297 64.7637C96.6836 64.5879 96.8105 64.36 96.8105 64.0801C96.8105 63.8978 96.7585 63.735 96.6543 63.5918C96.5566 63.4421 96.3418 63.276 96.0098 63.0938C95.6777 62.9049 95.1569 62.6608 94.4473 62.3613C93.7637 62.0749 93.2005 61.7852 92.7578 61.4922C92.3216 61.1992 91.9961 60.8542 91.7812 60.457C91.5729 60.0534 91.4688 59.5423 91.4688 58.9238C91.4688 57.9147 91.8594 57.1562 92.6406 56.6484C93.4284 56.1341 94.4798 55.877 95.7949 55.877C96.472 55.877 97.1165 55.9453 97.7285 56.082C98.347 56.2188 98.9818 56.4368 99.6328 56.7363L98.7344 58.8848C98.194 58.6504 97.6829 58.4583 97.2012 58.3086C96.7259 58.1589 96.2409 58.084 95.7461 58.084C95.3099 58.084 94.9811 58.1426 94.7598 58.2598C94.5384 58.377 94.4277 58.556 94.4277 58.7969C94.4277 58.9727 94.4831 59.1289 94.5938 59.2656C94.7109 59.4023 94.9323 59.5553 95.2578 59.7246C95.5898 59.8874 96.0749 60.099 96.7129 60.3594C97.3314 60.6133 97.8685 60.8802 98.3242 61.1602C98.7799 61.4336 99.1315 61.7754 99.3789 62.1855C99.6263 62.5892 99.75 63.1133 99.75 63.7578ZM111.869 64.8223C112.195 64.8223 112.51 64.7897 112.816 64.7246C113.129 64.6595 113.438 64.5781 113.744 64.4805V66.6973C113.425 66.8405 113.028 66.9577 112.553 67.0488C112.084 67.1465 111.57 67.1953 111.01 67.1953C110.359 67.1953 109.773 67.0911 109.252 66.8828C108.738 66.668 108.331 66.3001 108.031 65.7793C107.738 65.252 107.592 64.5195 107.592 63.582V58.3184H106.166V57.0586L107.807 56.0625L108.666 53.7578H110.57V56.082H113.627V58.3184H110.57V63.582C110.57 63.9987 110.688 64.3112 110.922 64.5195C111.163 64.7214 111.479 64.8223 111.869 64.8223ZM122.055 55.877C122.204 55.877 122.377 55.8867 122.572 55.9062C122.774 55.9193 122.937 55.9388 123.061 55.9648L122.836 58.7578C122.738 58.7253 122.598 58.7025 122.416 58.6895C122.24 58.6699 122.087 58.6602 121.957 58.6602C121.573 58.6602 121.199 58.709 120.834 58.8066C120.476 58.9043 120.154 59.0638 119.867 59.2852C119.581 59.5 119.353 59.7865 119.184 60.1445C119.021 60.4961 118.939 60.929 118.939 61.4434V67H115.961V56.082H118.217L118.656 57.918H118.803C119.018 57.5469 119.285 57.2083 119.604 56.9023C119.929 56.5898 120.297 56.3424 120.707 56.1602C121.124 55.9714 121.573 55.877 122.055 55.877ZM129.516 55.8574C130.98 55.8574 132.104 56.1764 132.885 56.8145C133.666 57.4525 134.057 58.4225 134.057 59.7246V67H131.977L131.4 65.5156H131.322C131.01 65.9062 130.691 66.2253 130.365 66.4727C130.04 66.7201 129.665 66.9023 129.242 67.0195C128.819 67.1367 128.305 67.1953 127.699 67.1953C127.055 67.1953 126.475 67.0716 125.961 66.8242C125.453 66.5768 125.053 66.1992 124.76 65.6914C124.467 65.1771 124.32 64.526 124.32 63.7383C124.32 62.5794 124.727 61.7266 125.541 61.1797C126.355 60.6263 127.576 60.3203 129.203 60.2617L131.098 60.2031V59.7246C131.098 59.1517 130.948 58.7318 130.648 58.4648C130.349 58.1979 129.932 58.0645 129.398 58.0645C128.871 58.0645 128.354 58.1393 127.846 58.2891C127.338 58.4388 126.83 58.6276 126.322 58.8555L125.336 56.8438C125.915 56.5378 126.563 56.2969 127.279 56.1211C128.002 55.9453 128.747 55.8574 129.516 55.8574ZM131.098 61.9414L129.945 61.9805C128.982 62.0065 128.311 62.179 127.934 62.498C127.562 62.8171 127.377 63.237 127.377 63.7578C127.377 64.2135 127.51 64.5391 127.777 64.7344C128.044 64.9232 128.393 65.0176 128.822 65.0176C129.46 65.0176 129.997 64.8288 130.434 64.4512C130.876 64.0736 131.098 63.5365 131.098 62.8398V61.9414ZM141.566 67.1953C140.486 67.1953 139.564 67 138.803 66.6094C138.041 66.2122 137.462 65.6003 137.064 64.7734C136.667 63.9466 136.469 62.8887 136.469 61.5996C136.469 60.265 136.693 59.1777 137.143 58.3379C137.598 57.4915 138.227 56.8698 139.027 56.4727C139.835 56.0755 140.769 55.877 141.83 55.877C142.585 55.877 143.236 55.9518 143.783 56.1016C144.337 56.2448 144.818 56.4173 145.229 56.6191L144.35 58.9238C143.881 58.735 143.445 58.582 143.041 58.4648C142.637 58.3411 142.234 58.2793 141.83 58.2793C141.309 58.2793 140.876 58.403 140.531 58.6504C140.186 58.8913 139.929 59.2559 139.76 59.7441C139.59 60.2324 139.506 60.8444 139.506 61.5801C139.506 62.3027 139.597 62.9017 139.779 63.377C139.962 63.8522 140.225 64.207 140.57 64.4414C140.915 64.6693 141.335 64.7832 141.83 64.7832C142.449 64.7832 142.999 64.7018 143.48 64.5391C143.962 64.3698 144.431 64.1354 144.887 63.8359V66.3848C144.431 66.6712 143.952 66.8763 143.451 67C142.956 67.1302 142.328 67.1953 141.566 67.1953ZM150.404 51.8047V58.6016C150.404 59.0117 150.388 59.4219 150.355 59.832C150.323 60.2422 150.287 60.6523 150.248 61.0625H150.287C150.489 60.776 150.694 60.4928 150.902 60.2129C151.117 59.9329 151.345 59.6628 151.586 59.4023L154.643 56.082H158.002L153.666 60.8184L158.266 67H154.828L151.684 62.5762L150.404 63.6016V67H147.426V51.8047H150.404ZM174.945 61.5215C174.945 62.4329 174.822 63.2402 174.574 63.9434C174.333 64.6465 173.979 65.2422 173.51 65.7305C173.048 66.2122 172.488 66.5768 171.83 66.8242C171.179 67.0716 170.443 67.1953 169.623 67.1953C168.855 67.1953 168.148 67.0716 167.504 66.8242C166.866 66.5768 166.309 66.2122 165.834 65.7305C165.365 65.2422 165.001 64.6465 164.74 63.9434C164.486 63.2402 164.359 62.4329 164.359 61.5215C164.359 60.3105 164.574 59.2852 165.004 58.4453C165.434 57.6055 166.046 56.9674 166.84 56.5312C167.634 56.0951 168.581 55.877 169.682 55.877C170.704 55.877 171.609 56.0951 172.396 56.5312C173.191 56.9674 173.812 57.6055 174.262 58.4453C174.717 59.2852 174.945 60.3105 174.945 61.5215ZM167.396 61.5215C167.396 62.2376 167.475 62.8398 167.631 63.3281C167.787 63.8164 168.031 64.1842 168.363 64.4316C168.695 64.679 169.128 64.8027 169.662 64.8027C170.189 64.8027 170.616 64.679 170.941 64.4316C171.273 64.1842 171.514 63.8164 171.664 63.3281C171.82 62.8398 171.898 62.2376 171.898 61.5215C171.898 60.7988 171.82 60.1999 171.664 59.7246C171.514 59.2428 171.273 58.8815 170.941 58.6406C170.609 58.3997 170.176 58.2793 169.643 58.2793C168.855 58.2793 168.282 58.5495 167.924 59.0898C167.572 59.6302 167.396 60.4408 167.396 61.5215ZM183.441 58.3184H180.863V67H177.885V58.3184H176.244V56.8828L177.885 56.082V55.2812C177.885 54.3503 178.041 53.6276 178.354 53.1133C178.673 52.5924 179.118 52.2279 179.691 52.0195C180.271 51.8047 180.954 51.6973 181.742 51.6973C182.322 51.6973 182.849 51.7461 183.324 51.8438C183.799 51.9349 184.187 52.0391 184.486 52.1562L183.725 54.3438C183.497 54.2721 183.249 54.207 182.982 54.1484C182.715 54.0898 182.41 54.0605 182.064 54.0605C181.648 54.0605 181.342 54.1875 181.146 54.4414C180.958 54.6888 180.863 55.0078 180.863 55.3984V56.082H183.441V58.3184ZM194.828 55.8574C196.293 55.8574 197.416 56.1764 198.197 56.8145C198.979 57.4525 199.369 58.4225 199.369 59.7246V67H197.289L196.713 65.5156H196.635C196.322 65.9062 196.003 66.2253 195.678 66.4727C195.352 66.7201 194.978 66.9023 194.555 67.0195C194.132 67.1367 193.617 67.1953 193.012 67.1953C192.367 67.1953 191.788 67.0716 191.273 66.8242C190.766 66.5768 190.365 66.1992 190.072 65.6914C189.779 65.1771 189.633 64.526 189.633 63.7383C189.633 62.5794 190.04 61.7266 190.854 61.1797C191.667 60.6263 192.888 60.3203 194.516 60.2617L196.41 60.2031V59.7246C196.41 59.1517 196.26 58.7318 195.961 58.4648C195.661 58.1979 195.245 58.0645 194.711 58.0645C194.184 58.0645 193.666 58.1393 193.158 58.2891C192.65 58.4388 192.143 58.6276 191.635 58.8555L190.648 56.8438C191.228 56.5378 191.876 56.2969 192.592 56.1211C193.314 55.9453 194.06 55.8574 194.828 55.8574ZM196.41 61.9414L195.258 61.9805C194.294 62.0065 193.624 62.179 193.246 62.498C192.875 62.8171 192.689 63.237 192.689 63.7578C192.689 64.2135 192.823 64.5391 193.09 64.7344C193.357 64.9232 193.705 65.0176 194.135 65.0176C194.773 65.0176 195.31 64.8288 195.746 64.4512C196.189 64.0736 196.41 63.5365 196.41 62.8398V61.9414ZM205.424 67H202.445V51.8047H205.424V67ZM211.537 67H208.559V51.8047H211.537V67ZM229.789 61.5215C229.789 62.4329 229.665 63.2402 229.418 63.9434C229.177 64.6465 228.822 65.2422 228.354 65.7305C227.891 66.2122 227.331 66.5768 226.674 66.8242C226.023 67.0716 225.287 67.1953 224.467 67.1953C223.699 67.1953 222.992 67.0716 222.348 66.8242C221.71 66.5768 221.153 66.2122 220.678 65.7305C220.209 65.2422 219.844 64.6465 219.584 63.9434C219.33 63.2402 219.203 62.4329 219.203 61.5215C219.203 60.3105 219.418 59.2852 219.848 58.4453C220.277 57.6055 220.889 56.9674 221.684 56.5312C222.478 56.0951 223.425 55.877 224.525 55.877C225.548 55.877 226.452 56.0951 227.24 56.5312C228.035 56.9674 228.656 57.6055 229.105 58.4453C229.561 59.2852 229.789 60.3105 229.789 61.5215ZM222.24 61.5215C222.24 62.2376 222.318 62.8398 222.475 63.3281C222.631 63.8164 222.875 64.1842 223.207 64.4316C223.539 64.679 223.972 64.8027 224.506 64.8027C225.033 64.8027 225.46 64.679 225.785 64.4316C226.117 64.1842 226.358 63.8164 226.508 63.3281C226.664 62.8398 226.742 62.2376 226.742 61.5215C226.742 60.7988 226.664 60.1999 226.508 59.7246C226.358 59.2428 226.117 58.8815 225.785 58.6406C225.453 58.3997 225.02 58.2793 224.486 58.2793C223.699 58.2793 223.126 58.5495 222.768 59.0898C222.416 59.6302 222.24 60.4408 222.24 61.5215ZM238.285 58.3184H235.707V67H232.729V58.3184H231.088V56.8828L232.729 56.082V55.2812C232.729 54.3503 232.885 53.6276 233.197 53.1133C233.516 52.5924 233.962 52.2279 234.535 52.0195C235.115 51.8047 235.798 51.6973 236.586 51.6973C237.165 51.6973 237.693 51.7461 238.168 51.8438C238.643 51.9349 239.031 52.0391 239.33 52.1562L238.568 54.3438C238.34 54.2721 238.093 54.207 237.826 54.1484C237.559 54.0898 237.253 54.0605 236.908 54.0605C236.492 54.0605 236.186 54.1875 235.99 54.4414C235.801 54.6888 235.707 55.0078 235.707 55.3984V56.082H238.285V58.3184ZM41 76.082H44.2617L46.3223 82.2246C46.3874 82.4199 46.4427 82.6185 46.4883 82.8203C46.5339 83.0221 46.5729 83.2305 46.6055 83.4453C46.638 83.6602 46.6641 83.8848 46.6836 84.1191H46.7422C46.7812 83.7676 46.8333 83.4388 46.8984 83.1328C46.9701 82.8268 47.0579 82.5241 47.1621 82.2246L49.1836 76.082H52.377L47.7578 88.3965C47.4779 89.1517 47.1133 89.7799 46.6641 90.2812C46.2148 90.7891 45.6973 91.1699 45.1113 91.4238C44.5319 91.6777 43.8939 91.8047 43.1973 91.8047C42.8587 91.8047 42.5658 91.7852 42.3184 91.7461C42.071 91.7135 41.8594 91.6777 41.6836 91.6387V89.2754C41.8203 89.3079 41.9928 89.3372 42.2012 89.3633C42.4095 89.3893 42.6276 89.4023 42.8555 89.4023C43.2721 89.4023 43.6302 89.3145 43.9297 89.1387C44.2292 88.9629 44.4798 88.7253 44.6816 88.4258C44.8835 88.1328 45.043 87.8105 45.1602 87.459L45.3359 86.9219L41 76.082ZM63.8711 81.5215C63.8711 82.4329 63.7474 83.2402 63.5 83.9434C63.2591 84.6465 62.9043 85.2422 62.4355 85.7305C61.9733 86.2122 61.4134 86.5768 60.7559 86.8242C60.1048 87.0716 59.3691 87.1953 58.5488 87.1953C57.7806 87.1953 57.0742 87.0716 56.4297 86.8242C55.7917 86.5768 55.235 86.2122 54.7598 85.7305C54.291 85.2422 53.9264 84.6465 53.666 83.9434C53.4121 83.2402 53.2852 82.4329 53.2852 81.5215C53.2852 80.3105 53.5 79.2852 53.9297 78.4453C54.3594 77.6055 54.9714 76.9674 55.7656 76.5312C56.5599 76.0951 57.5072 75.877 58.6074 75.877C59.6296 75.877 60.5345 76.0951 61.3223 76.5312C62.1165 76.9674 62.7383 77.6055 63.1875 78.4453C63.6432 79.2852 63.8711 80.3105 63.8711 81.5215ZM56.3223 81.5215C56.3223 82.2376 56.4004 82.8398 56.5566 83.3281C56.7129 83.8164 56.957 84.1842 57.2891 84.4316C57.6211 84.679 58.054 84.8027 58.5879 84.8027C59.1152 84.8027 59.5417 84.679 59.8672 84.4316C60.1992 84.1842 60.4401 83.8164 60.5898 83.3281C60.7461 82.8398 60.8242 82.2376 60.8242 81.5215C60.8242 80.7988 60.7461 80.1999 60.5898 79.7246C60.4401 79.2428 60.1992 78.8815 59.8672 78.6406C59.5352 78.3997 59.1022 78.2793 58.5684 78.2793C57.7806 78.2793 57.2077 78.5495 56.8496 79.0898C56.498 79.6302 56.3223 80.4408 56.3223 81.5215ZM76.3516 76.082V87H74.0664L73.666 85.6035H73.5098C73.2754 85.9746 72.9824 86.2773 72.6309 86.5117C72.2793 86.7461 71.8919 86.9186 71.4688 87.0293C71.0456 87.14 70.6061 87.1953 70.1504 87.1953C69.3691 87.1953 68.6888 87.0586 68.1094 86.7852C67.5299 86.5052 67.0775 86.0723 66.752 85.4863C66.4329 84.9004 66.2734 84.1387 66.2734 83.2012V76.082H69.252V82.459C69.252 83.2402 69.3919 83.8294 69.6719 84.2266C69.9518 84.6237 70.3978 84.8223 71.0098 84.8223C71.6152 84.8223 72.0905 84.6855 72.4355 84.4121C72.7806 84.1322 73.0215 83.7253 73.1582 83.1914C73.3014 82.651 73.373 81.9935 73.373 81.2188V76.082H76.3516ZM85.5703 75.877C85.7201 75.877 85.8926 75.8867 86.0879 75.9062C86.2897 75.9193 86.4525 75.9388 86.5762 75.9648L86.3516 78.7578C86.2539 78.7253 86.1139 78.7025 85.9316 78.6895C85.7559 78.6699 85.6029 78.6602 85.4727 78.6602C85.0885 78.6602 84.7142 78.709 84.3496 78.8066C83.9915 78.9043 83.6693 79.0638 83.3828 79.2852C83.0964 79.5 82.8685 79.7865 82.6992 80.1445C82.5365 80.4961 82.4551 80.929 82.4551 81.4434V87H79.4766V76.082H81.7324L82.1719 77.918H82.3184C82.5332 77.5469 82.8001 77.2083 83.1191 76.9023C83.4447 76.5898 83.8125 76.3424 84.2227 76.1602C84.6393 75.9714 85.0885 75.877 85.5703 75.877ZM96.7324 76.082V87H93.7539V76.082H96.7324ZM95.248 71.8047C95.6908 71.8047 96.0716 71.9089 96.3906 72.1172C96.7096 72.319 96.8691 72.6999 96.8691 73.2598C96.8691 73.8132 96.7096 74.1973 96.3906 74.4121C96.0716 74.6204 95.6908 74.7246 95.248 74.7246C94.7988 74.7246 94.4147 74.6204 94.0957 74.4121C93.7832 74.1973 93.627 73.8132 93.627 73.2598C93.627 72.6999 93.7832 72.319 94.0957 72.1172C94.4147 71.9089 94.7988 71.8047 95.248 71.8047ZM112.689 75.877C113.926 75.877 114.861 76.196 115.492 76.834C116.13 77.4655 116.449 78.4811 116.449 79.8809V87H113.461V80.623C113.461 79.8418 113.327 79.2526 113.061 78.8555C112.794 78.4583 112.38 78.2598 111.82 78.2598C111.033 78.2598 110.473 78.543 110.141 79.1094C109.809 79.6693 109.643 80.4733 109.643 81.5215V87H106.664V80.623C106.664 80.1022 106.605 79.666 106.488 79.3145C106.371 78.9629 106.192 78.6992 105.951 78.5234C105.71 78.3477 105.401 78.2598 105.023 78.2598C104.47 78.2598 104.034 78.3997 103.715 78.6797C103.402 78.9531 103.178 79.36 103.041 79.9004C102.911 80.4342 102.846 81.0885 102.846 81.8633V87H99.8672V76.082H102.143L102.543 77.4785H102.709C102.93 77.1009 103.207 76.7949 103.539 76.5605C103.878 76.3262 104.249 76.1536 104.652 76.043C105.056 75.9323 105.466 75.877 105.883 75.877C106.684 75.877 107.361 76.0072 107.914 76.2676C108.474 76.528 108.904 76.9316 109.203 77.4785H109.467C109.792 76.9186 110.251 76.5117 110.844 76.2578C111.443 76.0039 112.058 75.877 112.689 75.877ZM125.59 75.877C126.82 75.877 127.813 76.3555 128.568 77.3125C129.33 78.2695 129.711 79.6725 129.711 81.5215C129.711 82.7585 129.532 83.8001 129.174 84.6465C128.816 85.4863 128.321 86.1211 127.689 86.5508C127.058 86.9805 126.332 87.1953 125.512 87.1953C124.984 87.1953 124.532 87.1302 124.154 87C123.777 86.8633 123.454 86.6908 123.188 86.4824C122.921 86.2676 122.689 86.0397 122.494 85.7988H122.338C122.39 86.0592 122.429 86.3262 122.455 86.5996C122.481 86.873 122.494 87.14 122.494 87.4004V91.8047H119.516V76.082H121.938L122.357 77.498H122.494C122.689 77.2051 122.927 76.9349 123.207 76.6875C123.487 76.4401 123.822 76.2448 124.213 76.1016C124.61 75.9518 125.069 75.877 125.59 75.877ZM124.633 78.2598C124.112 78.2598 123.699 78.3672 123.393 78.582C123.087 78.7969 122.862 79.1191 122.719 79.5488C122.582 79.9785 122.507 80.5221 122.494 81.1797V81.502C122.494 82.2051 122.559 82.8008 122.689 83.2891C122.826 83.7773 123.051 84.1484 123.363 84.4023C123.682 84.6562 124.118 84.7832 124.672 84.7832C125.128 84.7832 125.502 84.6562 125.795 84.4023C126.088 84.1484 126.306 83.7773 126.449 83.2891C126.599 82.7943 126.674 82.1921 126.674 81.4824C126.674 80.4147 126.508 79.6107 126.176 79.0703C125.844 78.5299 125.329 78.2598 124.633 78.2598ZM142.094 81.5215C142.094 82.4329 141.97 83.2402 141.723 83.9434C141.482 84.6465 141.127 85.2422 140.658 85.7305C140.196 86.2122 139.636 86.5768 138.979 86.8242C138.327 87.0716 137.592 87.1953 136.771 87.1953C136.003 87.1953 135.297 87.0716 134.652 86.8242C134.014 86.5768 133.458 86.2122 132.982 85.7305C132.514 85.2422 132.149 84.6465 131.889 83.9434C131.635 83.2402 131.508 82.4329 131.508 81.5215C131.508 80.3105 131.723 79.2852 132.152 78.4453C132.582 77.6055 133.194 76.9674 133.988 76.5312C134.783 76.0951 135.73 75.877 136.83 75.877C137.852 75.877 138.757 76.0951 139.545 76.5312C140.339 76.9674 140.961 77.6055 141.41 78.4453C141.866 79.2852 142.094 80.3105 142.094 81.5215ZM134.545 81.5215C134.545 82.2376 134.623 82.8398 134.779 83.3281C134.936 83.8164 135.18 84.1842 135.512 84.4316C135.844 84.679 136.277 84.8027 136.811 84.8027C137.338 84.8027 137.764 84.679 138.09 84.4316C138.422 84.1842 138.663 83.8164 138.812 83.3281C138.969 82.8398 139.047 82.2376 139.047 81.5215C139.047 80.7988 138.969 80.1999 138.812 79.7246C138.663 79.2428 138.422 78.8815 138.09 78.6406C137.758 78.3997 137.325 78.2793 136.791 78.2793C136.003 78.2793 135.43 78.5495 135.072 79.0898C134.721 79.6302 134.545 80.4408 134.545 81.5215ZM150.648 75.877C150.798 75.877 150.971 75.8867 151.166 75.9062C151.368 75.9193 151.531 75.9388 151.654 75.9648L151.43 78.7578C151.332 78.7253 151.192 78.7025 151.01 78.6895C150.834 78.6699 150.681 78.6602 150.551 78.6602C150.167 78.6602 149.792 78.709 149.428 78.8066C149.07 78.9043 148.747 79.0638 148.461 79.2852C148.174 79.5 147.947 79.7865 147.777 80.1445C147.615 80.4961 147.533 80.929 147.533 81.4434V87H144.555V76.082H146.811L147.25 77.918H147.396C147.611 77.5469 147.878 77.2083 148.197 76.9023C148.523 76.5898 148.891 76.3424 149.301 76.1602C149.717 75.9714 150.167 75.877 150.648 75.877ZM158.236 84.8223C158.562 84.8223 158.878 84.7897 159.184 84.7246C159.496 84.6595 159.805 84.5781 160.111 84.4805V86.6973C159.792 86.8405 159.395 86.9577 158.92 87.0488C158.451 87.1465 157.937 87.1953 157.377 87.1953C156.726 87.1953 156.14 87.0911 155.619 86.8828C155.105 86.668 154.698 86.3001 154.398 85.7793C154.105 85.252 153.959 84.5195 153.959 83.582V78.3184H152.533V77.0586L154.174 76.0625L155.033 73.7578H156.938V76.082H159.994V78.3184H156.938V83.582C156.938 83.9987 157.055 84.3112 157.289 84.5195C157.53 84.7214 157.846 84.8223 158.236 84.8223ZM166.801 75.8574C168.266 75.8574 169.389 76.1764 170.17 76.8145C170.951 77.4525 171.342 78.4225 171.342 79.7246V87H169.262L168.686 85.5156H168.607C168.295 85.9062 167.976 86.2253 167.65 86.4727C167.325 86.7201 166.951 86.9023 166.527 87.0195C166.104 87.1367 165.59 87.1953 164.984 87.1953C164.34 87.1953 163.76 87.0716 163.246 86.8242C162.738 86.5768 162.338 86.1992 162.045 85.6914C161.752 85.1771 161.605 84.526 161.605 83.7383C161.605 82.5794 162.012 81.7266 162.826 81.1797C163.64 80.6263 164.861 80.3203 166.488 80.2617L168.383 80.2031V79.7246C168.383 79.1517 168.233 78.7318 167.934 78.4648C167.634 78.1979 167.217 78.0645 166.684 78.0645C166.156 78.0645 165.639 78.1393 165.131 78.2891C164.623 78.4388 164.115 78.6276 163.607 78.8555L162.621 76.8438C163.201 76.5378 163.848 76.2969 164.564 76.1211C165.287 75.9453 166.033 75.8574 166.801 75.8574ZM168.383 81.9414L167.23 81.9805C166.267 82.0065 165.596 82.179 165.219 82.498C164.848 82.8171 164.662 83.237 164.662 83.7578C164.662 84.2135 164.796 84.5391 165.062 84.7344C165.329 84.9232 165.678 85.0176 166.107 85.0176C166.745 85.0176 167.283 84.8288 167.719 84.4512C168.161 84.0736 168.383 83.5365 168.383 82.8398V81.9414ZM180.619 75.877C181.785 75.877 182.722 76.196 183.432 76.834C184.141 77.4655 184.496 78.4811 184.496 79.8809V87H181.518V80.623C181.518 79.8418 181.374 79.2526 181.088 78.8555C180.808 78.4583 180.365 78.2598 179.76 78.2598C178.848 78.2598 178.227 78.569 177.895 79.1875C177.562 79.806 177.396 80.6979 177.396 81.8633V87H174.418V76.082H176.693L177.094 77.4785H177.26C177.494 77.1009 177.784 76.7949 178.129 76.5605C178.48 76.3262 178.868 76.1536 179.291 76.043C179.721 75.9323 180.163 75.877 180.619 75.877ZM192.162 84.8223C192.488 84.8223 192.803 84.7897 193.109 84.7246C193.422 84.6595 193.731 84.5781 194.037 84.4805V86.6973C193.718 86.8405 193.321 86.9577 192.846 87.0488C192.377 87.1465 191.863 87.1953 191.303 87.1953C190.652 87.1953 190.066 87.0911 189.545 86.8828C189.031 86.668 188.624 86.3001 188.324 85.7793C188.031 85.252 187.885 84.5195 187.885 83.582V78.3184H186.459V77.0586L188.1 76.0625L188.959 73.7578H190.863V76.082H193.92V78.3184H190.863V83.582C190.863 83.9987 190.98 84.3112 191.215 84.5195C191.456 84.7214 191.771 84.8223 192.162 84.8223ZM214.271 75.877C215.508 75.877 216.443 76.196 217.074 76.834C217.712 77.4655 218.031 78.4811 218.031 79.8809V87H215.043V80.623C215.043 79.8418 214.91 79.2526 214.643 78.8555C214.376 78.4583 213.962 78.2598 213.402 78.2598C212.615 78.2598 212.055 78.543 211.723 79.1094C211.391 79.6693 211.225 80.4733 211.225 81.5215V87H208.246V80.623C208.246 80.1022 208.188 79.666 208.07 79.3145C207.953 78.9629 207.774 78.6992 207.533 78.5234C207.292 78.3477 206.983 78.2598 206.605 78.2598C206.052 78.2598 205.616 78.3997 205.297 78.6797C204.984 78.9531 204.76 79.36 204.623 79.9004C204.493 80.4342 204.428 81.0885 204.428 81.8633V87H201.449V76.082H203.725L204.125 77.4785H204.291C204.512 77.1009 204.789 76.7949 205.121 76.5605C205.46 76.3262 205.831 76.1536 206.234 76.043C206.638 75.9323 207.048 75.877 207.465 75.877C208.266 75.877 208.943 76.0072 209.496 76.2676C210.056 76.528 210.486 76.9316 210.785 77.4785H211.049C211.374 76.9186 211.833 76.5117 212.426 76.2578C213.025 76.0039 213.64 75.877 214.271 75.877ZM225.6 75.877C226.609 75.877 227.478 76.0723 228.207 76.4629C228.936 76.847 229.499 77.4069 229.896 78.1426C230.294 78.8783 230.492 79.7767 230.492 80.8379V82.2832H223.451C223.484 83.123 223.734 83.7839 224.203 84.2656C224.678 84.7409 225.336 84.9785 226.176 84.9785C226.872 84.9785 227.51 84.9069 228.09 84.7637C228.669 84.6204 229.265 84.4056 229.877 84.1191V86.4238C229.337 86.6908 228.77 86.8861 228.178 87.0098C227.592 87.1335 226.879 87.1953 226.039 87.1953C224.945 87.1953 223.975 86.9935 223.129 86.5898C222.289 86.1862 221.628 85.571 221.146 84.7441C220.671 83.9173 220.434 82.8757 220.434 81.6191C220.434 80.3431 220.648 79.2819 221.078 78.4355C221.514 77.5827 222.12 76.9447 222.895 76.5215C223.669 76.0918 224.571 75.877 225.6 75.877ZM225.619 77.9961C225.04 77.9961 224.558 78.1816 224.174 78.5527C223.796 78.9238 223.578 79.5065 223.52 80.3008H227.699C227.693 79.8581 227.611 79.4642 227.455 79.1191C227.305 78.7741 227.077 78.5007 226.771 78.2988C226.472 78.097 226.088 77.9961 225.619 77.9961ZM237.514 84.8223C237.839 84.8223 238.155 84.7897 238.461 84.7246C238.773 84.6595 239.083 84.5781 239.389 84.4805V86.6973C239.07 86.8405 238.673 86.9577 238.197 87.0488C237.729 87.1465 237.214 87.1953 236.654 87.1953C236.003 87.1953 235.417 87.0911 234.896 86.8828C234.382 86.668 233.975 86.3001 233.676 85.7793C233.383 85.252 233.236 84.5195 233.236 83.582V78.3184H231.811V77.0586L233.451 76.0625L234.311 73.7578H236.215V76.082H239.271V78.3184H236.215V83.582C236.215 83.9987 236.332 84.3112 236.566 84.5195C236.807 84.7214 237.123 84.8223 237.514 84.8223ZM247.699 75.877C247.849 75.877 248.021 75.8867 248.217 75.9062C248.419 75.9193 248.581 75.9388 248.705 75.9648L248.48 78.7578C248.383 78.7253 248.243 78.7025 248.061 78.6895C247.885 78.6699 247.732 78.6602 247.602 78.6602C247.217 78.6602 246.843 78.709 246.479 78.8066C246.12 78.9043 245.798 79.0638 245.512 79.2852C245.225 79.5 244.997 79.7865 244.828 80.1445C244.665 80.4961 244.584 80.929 244.584 81.4434V87H241.605V76.082H243.861L244.301 77.918H244.447C244.662 77.5469 244.929 77.2083 245.248 76.9023C245.574 76.5898 245.941 76.3424 246.352 76.1602C246.768 75.9714 247.217 75.877 247.699 75.877ZM253.666 76.082V87H250.688V76.082H253.666ZM252.182 71.8047C252.624 71.8047 253.005 71.9089 253.324 72.1172C253.643 72.319 253.803 72.6999 253.803 73.2598C253.803 73.8132 253.643 74.1973 253.324 74.4121C253.005 74.6204 252.624 74.7246 252.182 74.7246C251.732 74.7246 251.348 74.6204 251.029 74.4121C250.717 74.1973 250.561 73.8132 250.561 73.2598C250.561 72.6999 250.717 72.319 251.029 72.1172C251.348 71.9089 251.732 71.8047 252.182 71.8047ZM261.234 87.1953C260.154 87.1953 259.232 87 258.471 86.6094C257.709 86.2122 257.13 85.6003 256.732 84.7734C256.335 83.9466 256.137 82.8887 256.137 81.5996C256.137 80.265 256.361 79.1777 256.811 78.3379C257.266 77.4915 257.895 76.8698 258.695 76.4727C259.503 76.0755 260.437 75.877 261.498 75.877C262.253 75.877 262.904 75.9518 263.451 76.1016C264.005 76.2448 264.486 76.4173 264.896 76.6191L264.018 78.9238C263.549 78.735 263.113 78.582 262.709 78.4648C262.305 78.3411 261.902 78.2793 261.498 78.2793C260.977 78.2793 260.544 78.403 260.199 78.6504C259.854 78.8913 259.597 79.2559 259.428 79.7441C259.258 80.2324 259.174 80.8444 259.174 81.5801C259.174 82.3027 259.265 82.9017 259.447 83.377C259.63 83.8522 259.893 84.207 260.238 84.4414C260.583 84.6693 261.003 84.7832 261.498 84.7832C262.117 84.7832 262.667 84.7018 263.148 84.5391C263.63 84.3698 264.099 84.1354 264.555 83.8359V86.3848C264.099 86.6712 263.62 86.8763 263.119 87C262.624 87.1302 261.996 87.1953 261.234 87.1953ZM274.711 83.7578C274.711 84.5 274.535 85.1283 274.184 85.6426C273.839 86.1504 273.321 86.5378 272.631 86.8047C271.941 87.0651 271.081 87.1953 270.053 87.1953C269.291 87.1953 268.637 87.1465 268.09 87.0488C267.549 86.9512 267.003 86.7884 266.449 86.5605V84.0996C267.042 84.3665 267.676 84.5879 268.354 84.7637C269.037 84.9329 269.636 85.0176 270.15 85.0176C270.73 85.0176 271.143 84.9329 271.391 84.7637C271.645 84.5879 271.771 84.36 271.771 84.0801C271.771 83.8978 271.719 83.735 271.615 83.5918C271.518 83.4421 271.303 83.276 270.971 83.0938C270.639 82.9049 270.118 82.6608 269.408 82.3613C268.725 82.0749 268.161 81.7852 267.719 81.4922C267.283 81.1992 266.957 80.8542 266.742 80.457C266.534 80.0534 266.43 79.5423 266.43 78.9238C266.43 77.9147 266.82 77.1562 267.602 76.6484C268.389 76.1341 269.441 75.877 270.756 75.877C271.433 75.877 272.077 75.9453 272.689 76.082C273.308 76.2188 273.943 76.4368 274.594 76.7363L273.695 78.8848C273.155 78.6504 272.644 78.4583 272.162 78.3086C271.687 78.1589 271.202 78.084 270.707 78.084C270.271 78.084 269.942 78.1426 269.721 78.2598C269.499 78.377 269.389 78.556 269.389 78.7969C269.389 78.9727 269.444 79.1289 269.555 79.2656C269.672 79.4023 269.893 79.5553 270.219 79.7246C270.551 79.8874 271.036 80.099 271.674 80.3594C272.292 80.6133 272.829 80.8802 273.285 81.1602C273.741 81.4336 274.092 81.7754 274.34 82.1855C274.587 82.5892 274.711 83.1133 274.711 83.7578ZM47.0352 95.8574C48.5 95.8574 49.623 96.1764 50.4043 96.8145C51.1855 97.4525 51.5762 98.4225 51.5762 99.7246V107H49.4961L48.9199 105.516H48.8418C48.5293 105.906 48.2103 106.225 47.8848 106.473C47.5592 106.72 47.1849 106.902 46.7617 107.02C46.3385 107.137 45.8242 107.195 45.2188 107.195C44.5742 107.195 43.9948 107.072 43.4805 106.824C42.9727 106.577 42.5723 106.199 42.2793 105.691C41.9863 105.177 41.8398 104.526 41.8398 103.738C41.8398 102.579 42.2467 101.727 43.0605 101.18C43.8743 100.626 45.0951 100.32 46.7227 100.262L48.6172 100.203V99.7246C48.6172 99.1517 48.4674 98.7318 48.168 98.4648C47.8685 98.1979 47.4518 98.0645 46.918 98.0645C46.3906 98.0645 45.873 98.1393 45.3652 98.2891C44.8574 98.4388 44.3496 98.6276 43.8418 98.8555L42.8555 96.8438C43.4349 96.5378 44.0827 96.2969 44.7988 96.1211C45.5215 95.9453 46.2669 95.8574 47.0352 95.8574ZM48.6172 101.941L47.4648 101.98C46.5013 102.007 45.8307 102.179 45.4531 102.498C45.082 102.817 44.8965 103.237 44.8965 103.758C44.8965 104.214 45.0299 104.539 45.2969 104.734C45.5638 104.923 45.9121 105.018 46.3418 105.018C46.9798 105.018 47.5169 104.829 47.9531 104.451C48.3958 104.074 48.6172 103.536 48.6172 102.84V101.941ZM60.8535 95.877C62.0189 95.877 62.9564 96.196 63.666 96.834C64.3757 97.4655 64.7305 98.4811 64.7305 99.8809V107H61.752V100.623C61.752 99.8418 61.6087 99.2526 61.3223 98.8555C61.0423 98.4583 60.5996 98.2598 59.9941 98.2598C59.0827 98.2598 58.4609 98.569 58.1289 99.1875C57.7969 99.806 57.6309 100.698 57.6309 101.863V107H54.6523V96.082H56.9277L57.3281 97.4785H57.4941C57.7285 97.1009 58.0182 96.7949 58.3633 96.5605C58.7148 96.3262 59.1022 96.1536 59.5254 96.043C59.9551 95.9323 60.3978 95.877 60.8535 95.877ZM71.2539 107.195C70.0365 107.195 69.0436 106.72 68.2754 105.77C67.5137 104.812 67.1328 103.41 67.1328 101.561C67.1328 99.6921 67.5202 98.2793 68.2949 97.3223C69.0697 96.3587 70.082 95.877 71.332 95.877C71.8529 95.877 72.3118 95.9486 72.709 96.0918C73.1061 96.235 73.4479 96.4271 73.7344 96.668C74.0273 96.9089 74.2747 97.179 74.4766 97.4785H74.5742C74.5352 97.2702 74.4863 96.9642 74.4277 96.5605C74.3757 96.1504 74.3496 95.7305 74.3496 95.3008V91.8047H77.3379V107H75.0527L74.4766 105.584H74.3496C74.1608 105.883 73.9232 106.157 73.6367 106.404C73.3568 106.645 73.0215 106.837 72.6309 106.98C72.2402 107.124 71.7812 107.195 71.2539 107.195ZM72.2988 104.822C73.1126 104.822 73.6855 104.581 74.0176 104.1C74.3561 103.611 74.5352 102.879 74.5547 101.902V101.58C74.5547 100.519 74.3919 99.7083 74.0664 99.1484C73.7409 98.582 73.1354 98.2988 72.25 98.2988C71.5924 98.2988 71.0781 98.582 70.707 99.1484C70.3359 99.7148 70.1504 100.532 70.1504 101.6C70.1504 102.667 70.3359 103.471 70.707 104.012C71.0846 104.552 71.6152 104.822 72.2988 104.822ZM91.8496 95.877C93.015 95.877 93.9525 96.196 94.6621 96.834C95.3717 97.4655 95.7266 98.4811 95.7266 99.8809V107H92.748V100.623C92.748 99.8418 92.6048 99.2526 92.3184 98.8555C92.0384 98.4583 91.5957 98.2598 90.9902 98.2598C90.0788 98.2598 89.457 98.569 89.125 99.1875C88.793 99.806 88.627 100.698 88.627 101.863V107H85.6484V96.082H87.9238L88.3242 97.4785H88.4902C88.7246 97.1009 89.0143 96.7949 89.3594 96.5605C89.7109 96.3262 90.0983 96.1536 90.5215 96.043C90.9512 95.9323 91.3939 95.877 91.8496 95.877ZM108.715 101.521C108.715 102.433 108.591 103.24 108.344 103.943C108.103 104.646 107.748 105.242 107.279 105.73C106.817 106.212 106.257 106.577 105.6 106.824C104.949 107.072 104.213 107.195 103.393 107.195C102.624 107.195 101.918 107.072 101.273 106.824C100.635 106.577 100.079 106.212 99.6035 105.73C99.1348 105.242 98.7702 104.646 98.5098 103.943C98.2559 103.24 98.1289 102.433 98.1289 101.521C98.1289 100.311 98.3438 99.2852 98.7734 98.4453C99.2031 97.6055 99.8151 96.9674 100.609 96.5312C101.404 96.0951 102.351 95.877 103.451 95.877C104.473 95.877 105.378 96.0951 106.166 96.5312C106.96 96.9674 107.582 97.6055 108.031 98.4453C108.487 99.2852 108.715 100.311 108.715 101.521ZM101.166 101.521C101.166 102.238 101.244 102.84 101.4 103.328C101.557 103.816 101.801 104.184 102.133 104.432C102.465 104.679 102.898 104.803 103.432 104.803C103.959 104.803 104.385 104.679 104.711 104.432C105.043 104.184 105.284 103.816 105.434 103.328C105.59 102.84 105.668 102.238 105.668 101.521C105.668 100.799 105.59 100.2 105.434 99.7246C105.284 99.2428 105.043 98.8815 104.711 98.6406C104.379 98.3997 103.946 98.2793 103.412 98.2793C102.624 98.2793 102.051 98.5495 101.693 99.0898C101.342 99.6302 101.166 100.441 101.166 101.521ZM115.775 104.822C116.101 104.822 116.417 104.79 116.723 104.725C117.035 104.66 117.344 104.578 117.65 104.48V106.697C117.331 106.84 116.934 106.958 116.459 107.049C115.99 107.146 115.476 107.195 114.916 107.195C114.265 107.195 113.679 107.091 113.158 106.883C112.644 106.668 112.237 106.3 111.938 105.779C111.645 105.252 111.498 104.52 111.498 103.582V98.3184H110.072V97.0586L111.713 96.0625L112.572 93.7578H114.477V96.082H117.533V98.3184H114.477V103.582C114.477 103.999 114.594 104.311 114.828 104.52C115.069 104.721 115.385 104.822 115.775 104.822ZM122.846 96.082V107H119.867V96.082H122.846ZM121.361 91.8047C121.804 91.8047 122.185 91.9089 122.504 92.1172C122.823 92.319 122.982 92.6999 122.982 93.2598C122.982 93.8132 122.823 94.1973 122.504 94.4121C122.185 94.6204 121.804 94.7246 121.361 94.7246C120.912 94.7246 120.528 94.6204 120.209 94.4121C119.896 94.1973 119.74 93.8132 119.74 93.2598C119.74 92.6999 119.896 92.319 120.209 92.1172C120.528 91.9089 120.912 91.8047 121.361 91.8047ZM132.016 98.3184H129.438V107H126.459V98.3184H124.818V96.8828L126.459 96.082V95.2812C126.459 94.3503 126.615 93.6276 126.928 93.1133C127.247 92.5924 127.693 92.2279 128.266 92.0195C128.845 91.8047 129.529 91.6973 130.316 91.6973C130.896 91.6973 131.423 91.7461 131.898 91.8438C132.374 91.9349 132.761 92.0391 133.061 92.1562L132.299 94.3438C132.071 94.2721 131.824 94.207 131.557 94.1484C131.29 94.0898 130.984 94.0605 130.639 94.0605C130.222 94.0605 129.916 94.1875 129.721 94.4414C129.532 94.6888 129.438 95.0078 129.438 95.3984V96.082H132.016V98.3184ZM136.703 96.082V107H133.725V96.082H136.703ZM135.219 91.8047C135.661 91.8047 136.042 91.9089 136.361 92.1172C136.68 92.319 136.84 92.6999 136.84 93.2598C136.84 93.8132 136.68 94.1973 136.361 94.4121C136.042 94.6204 135.661 94.7246 135.219 94.7246C134.77 94.7246 134.385 94.6204 134.066 94.4121C133.754 94.1973 133.598 93.8132 133.598 93.2598C133.598 92.6999 133.754 92.319 134.066 92.1172C134.385 91.9089 134.77 91.8047 135.219 91.8047ZM144.33 95.877C145.339 95.877 146.208 96.0723 146.938 96.4629C147.667 96.847 148.23 97.4069 148.627 98.1426C149.024 98.8783 149.223 99.7767 149.223 100.838V102.283H142.182C142.214 103.123 142.465 103.784 142.934 104.266C143.409 104.741 144.066 104.979 144.906 104.979C145.603 104.979 146.241 104.907 146.82 104.764C147.4 104.62 147.995 104.406 148.607 104.119V106.424C148.067 106.691 147.501 106.886 146.908 107.01C146.322 107.133 145.609 107.195 144.77 107.195C143.676 107.195 142.706 106.993 141.859 106.59C141.02 106.186 140.359 105.571 139.877 104.744C139.402 103.917 139.164 102.876 139.164 101.619C139.164 100.343 139.379 99.2819 139.809 98.4355C140.245 97.5827 140.85 96.9447 141.625 96.5215C142.4 96.0918 143.301 95.877 144.33 95.877ZM144.35 97.9961C143.77 97.9961 143.288 98.1816 142.904 98.5527C142.527 98.9238 142.309 99.5065 142.25 100.301H146.43C146.423 99.8581 146.342 99.4642 146.186 99.1191C146.036 98.7741 145.808 98.5007 145.502 98.2988C145.202 98.097 144.818 97.9961 144.35 97.9961ZM159.262 103.758C159.262 104.5 159.086 105.128 158.734 105.643C158.389 106.15 157.872 106.538 157.182 106.805C156.492 107.065 155.632 107.195 154.604 107.195C153.842 107.195 153.188 107.146 152.641 107.049C152.1 106.951 151.553 106.788 151 106.561V104.1C151.592 104.367 152.227 104.588 152.904 104.764C153.588 104.933 154.187 105.018 154.701 105.018C155.281 105.018 155.694 104.933 155.941 104.764C156.195 104.588 156.322 104.36 156.322 104.08C156.322 103.898 156.27 103.735 156.166 103.592C156.068 103.442 155.854 103.276 155.521 103.094C155.189 102.905 154.669 102.661 153.959 102.361C153.275 102.075 152.712 101.785 152.27 101.492C151.833 101.199 151.508 100.854 151.293 100.457C151.085 100.053 150.98 99.5423 150.98 98.9238C150.98 97.9147 151.371 97.1562 152.152 96.6484C152.94 96.1341 153.992 95.877 155.307 95.877C155.984 95.877 156.628 95.9453 157.24 96.082C157.859 96.2188 158.493 96.4368 159.145 96.7363L158.246 98.8848C157.706 98.6504 157.195 98.4583 156.713 98.3086C156.238 98.1589 155.753 98.084 155.258 98.084C154.822 98.084 154.493 98.1426 154.271 98.2598C154.05 98.377 153.939 98.556 153.939 98.7969C153.939 98.9727 153.995 99.1289 154.105 99.2656C154.223 99.4023 154.444 99.5553 154.77 99.7246C155.102 99.8874 155.587 100.099 156.225 100.359C156.843 100.613 157.38 100.88 157.836 101.16C158.292 101.434 158.643 101.775 158.891 102.186C159.138 102.589 159.262 103.113 159.262 103.758ZM165.219 96.082H168.48L170.541 102.225C170.606 102.42 170.661 102.618 170.707 102.82C170.753 103.022 170.792 103.23 170.824 103.445C170.857 103.66 170.883 103.885 170.902 104.119H170.961C171 103.768 171.052 103.439 171.117 103.133C171.189 102.827 171.277 102.524 171.381 102.225L173.402 96.082H176.596L171.977 108.396C171.697 109.152 171.332 109.78 170.883 110.281C170.434 110.789 169.916 111.17 169.33 111.424C168.751 111.678 168.113 111.805 167.416 111.805C167.077 111.805 166.785 111.785 166.537 111.746C166.29 111.714 166.078 111.678 165.902 111.639V109.275C166.039 109.308 166.212 109.337 166.42 109.363C166.628 109.389 166.846 109.402 167.074 109.402C167.491 109.402 167.849 109.314 168.148 109.139C168.448 108.963 168.699 108.725 168.9 108.426C169.102 108.133 169.262 107.811 169.379 107.459L169.555 106.922L165.219 96.082ZM188.09 101.521C188.09 102.433 187.966 103.24 187.719 103.943C187.478 104.646 187.123 105.242 186.654 105.73C186.192 106.212 185.632 106.577 184.975 106.824C184.324 107.072 183.588 107.195 182.768 107.195C181.999 107.195 181.293 107.072 180.648 106.824C180.01 106.577 179.454 106.212 178.979 105.73C178.51 105.242 178.145 104.646 177.885 103.943C177.631 103.24 177.504 102.433 177.504 101.521C177.504 100.311 177.719 99.2852 178.148 98.4453C178.578 97.6055 179.19 96.9674 179.984 96.5312C180.779 96.0951 181.726 95.877 182.826 95.877C183.848 95.877 184.753 96.0951 185.541 96.5312C186.335 96.9674 186.957 97.6055 187.406 98.4453C187.862 99.2852 188.09 100.311 188.09 101.521ZM180.541 101.521C180.541 102.238 180.619 102.84 180.775 103.328C180.932 103.816 181.176 104.184 181.508 104.432C181.84 104.679 182.273 104.803 182.807 104.803C183.334 104.803 183.76 104.679 184.086 104.432C184.418 104.184 184.659 103.816 184.809 103.328C184.965 102.84 185.043 102.238 185.043 101.521C185.043 100.799 184.965 100.2 184.809 99.7246C184.659 99.2428 184.418 98.8815 184.086 98.6406C183.754 98.3997 183.321 98.2793 182.787 98.2793C181.999 98.2793 181.426 98.5495 181.068 99.0898C180.717 99.6302 180.541 100.441 180.541 101.521ZM200.57 96.082V107H198.285L197.885 105.604H197.729C197.494 105.975 197.201 106.277 196.85 106.512C196.498 106.746 196.111 106.919 195.688 107.029C195.264 107.14 194.825 107.195 194.369 107.195C193.588 107.195 192.908 107.059 192.328 106.785C191.749 106.505 191.296 106.072 190.971 105.486C190.652 104.9 190.492 104.139 190.492 103.201V96.082H193.471V102.459C193.471 103.24 193.611 103.829 193.891 104.227C194.171 104.624 194.617 104.822 195.229 104.822C195.834 104.822 196.309 104.686 196.654 104.412C196.999 104.132 197.24 103.725 197.377 103.191C197.52 102.651 197.592 101.993 197.592 101.219V96.082H200.57ZM218.812 101.521C218.812 102.433 218.689 103.24 218.441 103.943C218.201 104.646 217.846 105.242 217.377 105.73C216.915 106.212 216.355 106.577 215.697 106.824C215.046 107.072 214.311 107.195 213.49 107.195C212.722 107.195 212.016 107.072 211.371 106.824C210.733 106.577 210.176 106.212 209.701 105.73C209.232 105.242 208.868 104.646 208.607 103.943C208.354 103.24 208.227 102.433 208.227 101.521C208.227 100.311 208.441 99.2852 208.871 98.4453C209.301 97.6055 209.913 96.9674 210.707 96.5312C211.501 96.0951 212.449 95.877 213.549 95.877C214.571 95.877 215.476 96.0951 216.264 96.5312C217.058 96.9674 217.68 97.6055 218.129 98.4453C218.585 99.2852 218.812 100.311 218.812 101.521ZM211.264 101.521C211.264 102.238 211.342 102.84 211.498 103.328C211.654 103.816 211.898 104.184 212.23 104.432C212.562 104.679 212.995 104.803 213.529 104.803C214.057 104.803 214.483 104.679 214.809 104.432C215.141 104.184 215.382 103.816 215.531 103.328C215.688 102.84 215.766 102.238 215.766 101.521C215.766 100.799 215.688 100.2 215.531 99.7246C215.382 99.2428 215.141 98.8815 214.809 98.6406C214.477 98.3997 214.044 98.2793 213.51 98.2793C212.722 98.2793 212.149 98.5495 211.791 99.0898C211.439 99.6302 211.264 100.441 211.264 101.521ZM227.309 98.3184H224.73V107H221.752V98.3184H220.111V96.8828L221.752 96.082V95.2812C221.752 94.3503 221.908 93.6276 222.221 93.1133C222.54 92.5924 222.986 92.2279 223.559 92.0195C224.138 91.8047 224.822 91.6973 225.609 91.6973C226.189 91.6973 226.716 91.7461 227.191 91.8438C227.667 91.9349 228.054 92.0391 228.354 92.1562L227.592 94.3438C227.364 94.2721 227.117 94.207 226.85 94.1484C226.583 94.0898 226.277 94.0605 225.932 94.0605C225.515 94.0605 225.209 94.1875 225.014 94.4414C224.825 94.6888 224.73 95.0078 224.73 95.3984V96.082H227.309V98.3184ZM238.695 95.8574C240.16 95.8574 241.283 96.1764 242.064 96.8145C242.846 97.4525 243.236 98.4225 243.236 99.7246V107H241.156L240.58 105.516H240.502C240.189 105.906 239.87 106.225 239.545 106.473C239.219 106.72 238.845 106.902 238.422 107.02C237.999 107.137 237.484 107.195 236.879 107.195C236.234 107.195 235.655 107.072 235.141 106.824C234.633 106.577 234.232 106.199 233.939 105.691C233.646 105.177 233.5 104.526 233.5 103.738C233.5 102.579 233.907 101.727 234.721 101.18C235.535 100.626 236.755 100.32 238.383 100.262L240.277 100.203V99.7246C240.277 99.1517 240.128 98.7318 239.828 98.4648C239.529 98.1979 239.112 98.0645 238.578 98.0645C238.051 98.0645 237.533 98.1393 237.025 98.2891C236.518 98.4388 236.01 98.6276 235.502 98.8555L234.516 96.8438C235.095 96.5378 235.743 96.2969 236.459 96.1211C237.182 95.9453 237.927 95.8574 238.695 95.8574ZM240.277 101.941L239.125 101.98C238.161 102.007 237.491 102.179 237.113 102.498C236.742 102.817 236.557 103.237 236.557 103.758C236.557 104.214 236.69 104.539 236.957 104.734C237.224 104.923 237.572 105.018 238.002 105.018C238.64 105.018 239.177 104.829 239.613 104.451C240.056 104.074 240.277 103.536 240.277 102.84V101.941ZM252.514 95.877C253.679 95.877 254.617 96.196 255.326 96.834C256.036 97.4655 256.391 98.4811 256.391 99.8809V107H253.412V100.623C253.412 99.8418 253.269 99.2526 252.982 98.8555C252.702 98.4583 252.26 98.2598 251.654 98.2598C250.743 98.2598 250.121 98.569 249.789 99.1875C249.457 99.806 249.291 100.698 249.291 101.863V107H246.312V96.082H248.588L248.988 97.4785H249.154C249.389 97.1009 249.678 96.7949 250.023 96.5605C250.375 96.3262 250.762 96.1536 251.186 96.043C251.615 95.9323 252.058 95.877 252.514 95.877ZM257.895 96.082H261.156L263.217 102.225C263.282 102.42 263.337 102.618 263.383 102.82C263.428 103.022 263.467 103.23 263.5 103.445C263.533 103.66 263.559 103.885 263.578 104.119H263.637C263.676 103.768 263.728 103.439 263.793 103.133C263.865 102.827 263.952 102.524 264.057 102.225L266.078 96.082H269.271L264.652 108.396C264.372 109.152 264.008 109.78 263.559 110.281C263.109 110.789 262.592 111.17 262.006 111.424C261.426 111.678 260.788 111.805 260.092 111.805C259.753 111.805 259.46 111.785 259.213 111.746C258.965 111.714 258.754 111.678 258.578 111.639V109.275C258.715 109.308 258.887 109.337 259.096 109.363C259.304 109.389 259.522 109.402 259.75 109.402C260.167 109.402 260.525 109.314 260.824 109.139C261.124 108.963 261.374 108.725 261.576 108.426C261.778 108.133 261.938 107.811 262.055 107.459L262.23 106.922L257.895 96.082ZM46.9961 127.195C45.9154 127.195 44.9941 127 44.2324 126.609C43.4707 126.212 42.8913 125.6 42.4941 124.773C42.097 123.947 41.8984 122.889 41.8984 121.6C41.8984 120.265 42.123 119.178 42.5723 118.338C43.028 117.492 43.6562 116.87 44.457 116.473C45.2643 116.076 46.1986 115.877 47.2598 115.877C48.015 115.877 48.666 115.952 49.2129 116.102C49.7663 116.245 50.248 116.417 50.6582 116.619L49.7793 118.924C49.3105 118.735 48.8743 118.582 48.4707 118.465C48.0671 118.341 47.6634 118.279 47.2598 118.279C46.7389 118.279 46.306 118.403 45.9609 118.65C45.6159 118.891 45.3587 119.256 45.1895 119.744C45.0202 120.232 44.9355 120.844 44.9355 121.58C44.9355 122.303 45.0267 122.902 45.209 123.377C45.3913 123.852 45.6549 124.207 46 124.441C46.3451 124.669 46.765 124.783 47.2598 124.783C47.8783 124.783 48.4284 124.702 48.9102 124.539C49.3919 124.37 49.8607 124.135 50.3164 123.836V126.385C49.8607 126.671 49.3822 126.876 48.8809 127C48.3861 127.13 47.7578 127.195 46.9961 127.195ZM55.834 111.805V114.9C55.834 115.441 55.8145 115.955 55.7754 116.443C55.7428 116.932 55.7168 117.277 55.6973 117.479H55.8535C56.0879 117.101 56.3646 116.795 56.6836 116.561C57.0091 116.326 57.3672 116.154 57.7578 116.043C58.1484 115.932 58.5684 115.877 59.0176 115.877C59.8053 115.877 60.4922 116.017 61.0781 116.297C61.6641 116.57 62.1198 117.003 62.4453 117.596C62.7708 118.182 62.9336 118.943 62.9336 119.881V127H59.9551V120.623C59.9551 119.842 59.8118 119.253 59.5254 118.855C59.2389 118.458 58.7962 118.26 58.1973 118.26C57.5983 118.26 57.1263 118.4 56.7812 118.68C56.4362 118.953 56.1921 119.36 56.0488 119.9C55.9056 120.434 55.834 121.089 55.834 121.863V127H52.8555V111.805H55.834ZM70.4727 115.857C71.9375 115.857 73.0605 116.176 73.8418 116.814C74.623 117.452 75.0137 118.423 75.0137 119.725V127H72.9336L72.3574 125.516H72.2793C71.9668 125.906 71.6478 126.225 71.3223 126.473C70.9967 126.72 70.6224 126.902 70.1992 127.02C69.776 127.137 69.2617 127.195 68.6562 127.195C68.0117 127.195 67.4323 127.072 66.918 126.824C66.4102 126.577 66.0098 126.199 65.7168 125.691C65.4238 125.177 65.2773 124.526 65.2773 123.738C65.2773 122.579 65.6842 121.727 66.498 121.18C67.3118 120.626 68.5326 120.32 70.1602 120.262L72.0547 120.203V119.725C72.0547 119.152 71.9049 118.732 71.6055 118.465C71.306 118.198 70.8893 118.064 70.3555 118.064C69.8281 118.064 69.3105 118.139 68.8027 118.289C68.2949 118.439 67.7871 118.628 67.2793 118.855L66.293 116.844C66.8724 116.538 67.5202 116.297 68.2363 116.121C68.959 115.945 69.7044 115.857 70.4727 115.857ZM72.0547 121.941L70.9023 121.98C69.9388 122.007 69.2682 122.179 68.8906 122.498C68.5195 122.817 68.334 123.237 68.334 123.758C68.334 124.214 68.4674 124.539 68.7344 124.734C69.0013 124.923 69.3496 125.018 69.7793 125.018C70.4173 125.018 70.9544 124.829 71.3906 124.451C71.8333 124.074 72.0547 123.536 72.0547 122.84V121.941ZM84.291 115.877C85.4564 115.877 86.3939 116.196 87.1035 116.834C87.8132 117.465 88.168 118.481 88.168 119.881V127H85.1895V120.623C85.1895 119.842 85.0462 119.253 84.7598 118.855C84.4798 118.458 84.0371 118.26 83.4316 118.26C82.5202 118.26 81.8984 118.569 81.5664 119.188C81.2344 119.806 81.0684 120.698 81.0684 121.863V127H78.0898V116.082H80.3652L80.7656 117.479H80.9316C81.166 117.101 81.4557 116.795 81.8008 116.561C82.1523 116.326 82.5397 116.154 82.9629 116.043C83.3926 115.932 83.8353 115.877 84.291 115.877ZM94.4277 131.805C92.9043 131.805 91.7389 131.538 90.9316 131.004C90.1309 130.477 89.7305 129.734 89.7305 128.777C89.7305 128.12 89.9355 127.57 90.3457 127.127C90.7559 126.684 91.3581 126.368 92.1523 126.18C91.8464 126.049 91.5794 125.838 91.3516 125.545C91.1237 125.245 91.0098 124.93 91.0098 124.598C91.0098 124.181 91.1302 123.836 91.3711 123.562C91.612 123.283 91.9603 123.009 92.416 122.742C91.8431 122.495 91.3874 122.098 91.0488 121.551C90.7168 121.004 90.5508 120.359 90.5508 119.617C90.5508 118.823 90.7233 118.149 91.0684 117.596C91.4199 117.036 91.9277 116.609 92.5918 116.316C93.2624 116.023 94.0762 115.877 95.0332 115.877C95.235 115.877 95.4694 115.89 95.7363 115.916C96.0033 115.942 96.2474 115.971 96.4688 116.004C96.6966 116.036 96.8496 116.062 96.9277 116.082H100.736V117.596L99.0273 118.035C99.1836 118.276 99.3008 118.533 99.3789 118.807C99.457 119.08 99.4961 119.37 99.4961 119.676C99.4961 120.848 99.0859 121.762 98.2656 122.42C97.4518 123.071 96.319 123.396 94.8672 123.396C94.5221 123.377 94.1966 123.351 93.8906 123.318C93.7409 123.436 93.627 123.559 93.5488 123.689C93.4707 123.82 93.4316 123.956 93.4316 124.1C93.4316 124.243 93.4902 124.363 93.6074 124.461C93.7311 124.552 93.9134 124.624 94.1543 124.676C94.4017 124.721 94.7077 124.744 95.0723 124.744H96.9277C98.1257 124.744 99.0371 125.001 99.6621 125.516C100.294 126.03 100.609 126.785 100.609 127.781C100.609 129.057 100.076 130.047 99.0078 130.75C97.9466 131.453 96.4199 131.805 94.4277 131.805ZM94.5547 129.861C95.2643 129.861 95.873 129.793 96.3809 129.656C96.8952 129.526 97.2891 129.337 97.5625 129.09C97.8359 128.849 97.9727 128.559 97.9727 128.221C97.9727 127.947 97.8913 127.729 97.7285 127.566C97.5723 127.41 97.3314 127.299 97.0059 127.234C96.6868 127.169 96.2767 127.137 95.7754 127.137H94.2324C93.8678 127.137 93.5391 127.195 93.2461 127.312C92.9596 127.43 92.7318 127.592 92.5625 127.801C92.3932 128.016 92.3086 128.263 92.3086 128.543C92.3086 128.953 92.5039 129.275 92.8945 129.51C93.2917 129.744 93.8451 129.861 94.5547 129.861ZM95.0332 121.58C95.5931 121.58 96.0033 121.408 96.2637 121.062C96.5241 120.717 96.6543 120.249 96.6543 119.656C96.6543 118.999 96.5176 118.507 96.2441 118.182C95.9772 117.85 95.5736 117.684 95.0332 117.684C94.4863 117.684 94.0762 117.85 93.8027 118.182C93.5293 118.507 93.3926 118.999 93.3926 119.656C93.3926 120.249 93.526 120.717 93.793 121.062C94.0664 121.408 94.4798 121.58 95.0332 121.58ZM107.045 115.877C108.054 115.877 108.923 116.072 109.652 116.463C110.382 116.847 110.945 117.407 111.342 118.143C111.739 118.878 111.938 119.777 111.938 120.838V122.283H104.896C104.929 123.123 105.18 123.784 105.648 124.266C106.124 124.741 106.781 124.979 107.621 124.979C108.318 124.979 108.956 124.907 109.535 124.764C110.115 124.62 110.71 124.406 111.322 124.119V126.424C110.782 126.691 110.215 126.886 109.623 127.01C109.037 127.133 108.324 127.195 107.484 127.195C106.391 127.195 105.421 126.993 104.574 126.59C103.734 126.186 103.074 125.571 102.592 124.744C102.117 123.917 101.879 122.876 101.879 121.619C101.879 120.343 102.094 119.282 102.523 118.436C102.96 117.583 103.565 116.945 104.34 116.521C105.115 116.092 106.016 115.877 107.045 115.877ZM107.064 117.996C106.485 117.996 106.003 118.182 105.619 118.553C105.242 118.924 105.023 119.507 104.965 120.301H109.145C109.138 119.858 109.057 119.464 108.9 119.119C108.751 118.774 108.523 118.501 108.217 118.299C107.917 118.097 107.533 117.996 107.064 117.996ZM121.977 123.758C121.977 124.5 121.801 125.128 121.449 125.643C121.104 126.15 120.587 126.538 119.896 126.805C119.206 127.065 118.347 127.195 117.318 127.195C116.557 127.195 115.902 127.146 115.355 127.049C114.815 126.951 114.268 126.788 113.715 126.561V124.1C114.307 124.367 114.942 124.588 115.619 124.764C116.303 124.933 116.902 125.018 117.416 125.018C117.995 125.018 118.409 124.933 118.656 124.764C118.91 124.588 119.037 124.36 119.037 124.08C119.037 123.898 118.985 123.735 118.881 123.592C118.783 123.442 118.568 123.276 118.236 123.094C117.904 122.905 117.383 122.661 116.674 122.361C115.99 122.075 115.427 121.785 114.984 121.492C114.548 121.199 114.223 120.854 114.008 120.457C113.799 120.053 113.695 119.542 113.695 118.924C113.695 117.915 114.086 117.156 114.867 116.648C115.655 116.134 116.706 115.877 118.021 115.877C118.699 115.877 119.343 115.945 119.955 116.082C120.574 116.219 121.208 116.437 121.859 116.736L120.961 118.885C120.421 118.65 119.91 118.458 119.428 118.309C118.952 118.159 118.467 118.084 117.973 118.084C117.536 118.084 117.208 118.143 116.986 118.26C116.765 118.377 116.654 118.556 116.654 118.797C116.654 118.973 116.71 119.129 116.82 119.266C116.938 119.402 117.159 119.555 117.484 119.725C117.816 119.887 118.301 120.099 118.939 120.359C119.558 120.613 120.095 120.88 120.551 121.16C121.007 121.434 121.358 121.775 121.605 122.186C121.853 122.589 121.977 123.113 121.977 123.758ZM123.881 125.604C123.881 124.992 124.047 124.562 124.379 124.314C124.717 124.067 125.124 123.943 125.6 123.943C126.062 123.943 126.459 124.067 126.791 124.314C127.13 124.562 127.299 124.992 127.299 125.604C127.299 126.189 127.13 126.613 126.791 126.873C126.459 127.133 126.062 127.264 125.6 127.264C125.124 127.264 124.717 127.133 124.379 126.873C124.047 126.613 123.881 126.189 123.881 125.604Z" fill="white"/>
<defs>
<filter id="filter0_d_12_121" x="0" y="0" width="336" height="195" filterUnits="userSpaceOnUse" color-interpolation-filters="sRGB">
<feFlood flood-opacity="0" result="BackgroundImageFix"/>
<feColorMatrix in="SourceAlpha" type="matrix" values="0 0 0 0 0 0 0 0 0 0 0 0 0 0 0 0 0 0 127 0" result="hardAlpha"/>
<feOffset dy="5"/>
<feGaussianBlur stdDeviation="8"/>
<feColorMatrix type="matrix" values="0 0 0 0 0.0323264 0 0 0 0 0.0598209 0 0 0 0 0.204167 0 0 0 0.06 0"/>
<feBlend mode="normal" in2="BackgroundImageFix" result="effect1_dropShadow_12_121"/>
<feBlend mode="normal" in="SourceGraphic" in2="effect1_dropShadow_12_121" result="shape"/>
</filter>
</defs>
</svg>
