<svg width="399" height="198" viewBox="0 0 399 198" fill="none" xmlns="http://www.w3.org/2000/svg">
<g filter="url(#filter0_d_12_165)">
<path d="M320 47C320 27.1177 303.882 11 284 11H52C32.1178 11 16 27.1177 16 47V138C16 157.882 32.1177 174 52 174H317C318.657 174 320 172.657 320 171V47Z" fill="#8F3985"/>
<path d="M284 11.5H52C32.3939 11.5 16.5 27.3939 16.5 47V138C16.5 157.606 32.3939 173.5 52 173.5H317C318.381 173.5 319.5 172.381 319.5 171V47C319.5 27.3939 303.606 11.5 284 11.5Z" stroke="#8F3985"/>
</g>
<path d="M314.12 101.547C314.087 100.008 315.732 99.0093 317.082 99.7499L378.581 133.493C379.93 134.234 379.972 136.158 378.656 136.957L318.684 173.345C317.368 174.143 315.68 173.217 315.647 171.678L314.12 101.547Z" fill="#8F3985"/>
<path d="M66.4961 60H63.4785V53.8379H57.8242V60H54.7969V45.7227H57.8242V51.3184H63.4785V45.7227H66.4961V60ZM74.377 48.877C75.3861 48.877 76.2552 49.0723 76.9844 49.4629C77.7135 49.847 78.2767 50.4069 78.6738 51.1426C79.071 51.8783 79.2695 52.7767 79.2695 53.8379V55.2832H72.2285C72.2611 56.123 72.5117 56.7839 72.9805 57.2656C73.4557 57.7409 74.1133 57.9785 74.9531 57.9785C75.6497 57.9785 76.2878 57.9069 76.8672 57.7637C77.4466 57.6204 78.0423 57.4056 78.6543 57.1191V59.4238C78.1139 59.6908 77.5475 59.8861 76.9551 60.0098C76.3691 60.1335 75.6562 60.1953 74.8164 60.1953C73.7227 60.1953 72.7526 59.9935 71.9062 59.5898C71.0664 59.1862 70.4056 58.571 69.9238 57.7441C69.4486 56.9173 69.2109 55.8757 69.2109 54.6191C69.2109 53.3431 69.4258 52.2819 69.8555 51.4355C70.2917 50.5827 70.8971 49.9447 71.6719 49.5215C72.4466 49.0918 73.3483 48.877 74.377 48.877ZM74.3965 50.9961C73.8171 50.9961 73.3353 51.1816 72.9512 51.5527C72.5736 51.9238 72.3555 52.5065 72.2969 53.3008H76.4766C76.4701 52.8581 76.3887 52.4642 76.2324 52.1191C76.0827 51.7741 75.8548 51.5007 75.5488 51.2988C75.2493 51.097 74.8652 50.9961 74.3965 50.9961ZM84.6699 60H81.6914V44.8047H84.6699V60ZM93.8789 48.877C95.1094 48.877 96.1022 49.3555 96.8574 50.3125C97.6191 51.2695 98 52.6725 98 54.5215C98 55.7585 97.821 56.8001 97.4629 57.6465C97.1048 58.4863 96.61 59.1211 95.9785 59.5508C95.347 59.9805 94.6211 60.1953 93.8008 60.1953C93.2734 60.1953 92.821 60.1302 92.4434 60C92.0658 59.8633 91.7435 59.6908 91.4766 59.4824C91.2096 59.2676 90.9785 59.0397 90.7832 58.7988H90.627C90.679 59.0592 90.7181 59.3262 90.7441 59.5996C90.7702 59.873 90.7832 60.14 90.7832 60.4004V64.8047H87.8047V49.082H90.2266L90.6465 50.498H90.7832C90.9785 50.2051 91.2161 49.9349 91.4961 49.6875C91.776 49.4401 92.1113 49.2448 92.502 49.1016C92.8991 48.9518 93.3581 48.877 93.8789 48.877ZM92.9219 51.2598C92.401 51.2598 91.9876 51.3672 91.6816 51.582C91.3757 51.7969 91.151 52.1191 91.0078 52.5488C90.8711 52.9785 90.7962 53.5221 90.7832 54.1797V54.502C90.7832 55.2051 90.8483 55.8008 90.9785 56.2891C91.1152 56.7773 91.3398 57.1484 91.6523 57.4023C91.9714 57.6562 92.4076 57.7832 92.9609 57.7832C93.4167 57.7832 93.791 57.6562 94.084 57.4023C94.377 57.1484 94.5951 56.7773 94.7383 56.2891C94.888 55.7943 94.9629 55.1921 94.9629 54.4824C94.9629 53.4147 94.7969 52.6107 94.4648 52.0703C94.1328 51.5299 93.6185 51.2598 92.9219 51.2598ZM108.078 56.7578C108.078 57.5 107.902 58.1283 107.551 58.6426C107.206 59.1504 106.688 59.5378 105.998 59.8047C105.308 60.0651 104.449 60.1953 103.42 60.1953C102.658 60.1953 102.004 60.1465 101.457 60.0488C100.917 59.9512 100.37 59.7884 99.8164 59.5605V57.0996C100.409 57.3665 101.044 57.5879 101.721 57.7637C102.404 57.9329 103.003 58.0176 103.518 58.0176C104.097 58.0176 104.51 57.9329 104.758 57.7637C105.012 57.5879 105.139 57.36 105.139 57.0801C105.139 56.8978 105.087 56.735 104.982 56.5918C104.885 56.4421 104.67 56.276 104.338 56.0938C104.006 55.9049 103.485 55.6608 102.775 55.3613C102.092 55.0749 101.529 54.7852 101.086 54.4922C100.65 54.1992 100.324 53.8542 100.109 53.457C99.901 53.0534 99.7969 52.5423 99.7969 51.9238C99.7969 50.9147 100.188 50.1562 100.969 49.6484C101.757 49.1341 102.808 48.877 104.123 48.877C104.8 48.877 105.445 48.9453 106.057 49.082C106.675 49.2188 107.31 49.4368 107.961 49.7363L107.062 51.8848C106.522 51.6504 106.011 51.4583 105.529 51.3086C105.054 51.1589 104.569 51.084 104.074 51.084C103.638 51.084 103.309 51.1426 103.088 51.2598C102.867 51.377 102.756 51.556 102.756 51.7969C102.756 51.9727 102.811 52.1289 102.922 52.2656C103.039 52.4023 103.26 52.5553 103.586 52.7246C103.918 52.8874 104.403 53.099 105.041 53.3594C105.66 53.6133 106.197 53.8802 106.652 54.1602C107.108 54.4336 107.46 54.7754 107.707 55.1855C107.954 55.5892 108.078 56.1133 108.078 56.7578ZM118.576 49.082V60H115.598V49.082H118.576ZM117.092 44.8047C117.535 44.8047 117.915 44.9089 118.234 45.1172C118.553 45.319 118.713 45.6999 118.713 46.2598C118.713 46.8132 118.553 47.1973 118.234 47.4121C117.915 47.6204 117.535 47.7246 117.092 47.7246C116.643 47.7246 116.258 47.6204 115.939 47.4121C115.627 47.1973 115.471 46.8132 115.471 46.2598C115.471 45.6999 115.627 45.319 115.939 45.1172C116.258 44.9089 116.643 44.8047 117.092 44.8047ZM125.168 60.1953C123.951 60.1953 122.958 59.7201 122.189 58.7695C121.428 57.8125 121.047 56.4095 121.047 54.5605C121.047 52.6921 121.434 51.2793 122.209 50.3223C122.984 49.3587 123.996 48.877 125.246 48.877C125.767 48.877 126.226 48.9486 126.623 49.0918C127.02 49.235 127.362 49.4271 127.648 49.668C127.941 49.9089 128.189 50.179 128.391 50.4785H128.488C128.449 50.2702 128.4 49.9642 128.342 49.5605C128.29 49.1504 128.264 48.7305 128.264 48.3008V44.8047H131.252V60H128.967L128.391 58.584H128.264C128.075 58.8835 127.837 59.1569 127.551 59.4043C127.271 59.6452 126.936 59.8372 126.545 59.9805C126.154 60.1237 125.695 60.1953 125.168 60.1953ZM126.213 57.8223C127.027 57.8223 127.6 57.5814 127.932 57.0996C128.27 56.6113 128.449 55.8789 128.469 54.9023V54.5801C128.469 53.5189 128.306 52.7083 127.98 52.1484C127.655 51.582 127.049 51.2988 126.164 51.2988C125.507 51.2988 124.992 51.582 124.621 52.1484C124.25 52.7148 124.064 53.5319 124.064 54.5996C124.064 55.6673 124.25 56.4714 124.621 57.0117C124.999 57.5521 125.529 57.8223 126.213 57.8223ZM138.869 48.877C139.878 48.877 140.747 49.0723 141.477 49.4629C142.206 49.847 142.769 50.4069 143.166 51.1426C143.563 51.8783 143.762 52.7767 143.762 53.8379V55.2832H136.721C136.753 56.123 137.004 56.7839 137.473 57.2656C137.948 57.7409 138.605 57.9785 139.445 57.9785C140.142 57.9785 140.78 57.9069 141.359 57.7637C141.939 57.6204 142.535 57.4056 143.146 57.1191V59.4238C142.606 59.6908 142.04 59.8861 141.447 60.0098C140.861 60.1335 140.148 60.1953 139.309 60.1953C138.215 60.1953 137.245 59.9935 136.398 59.5898C135.559 59.1862 134.898 58.571 134.416 57.7441C133.941 56.9173 133.703 55.8757 133.703 54.6191C133.703 53.3431 133.918 52.2819 134.348 51.4355C134.784 50.5827 135.389 49.9447 136.164 49.5215C136.939 49.0918 137.84 48.877 138.869 48.877ZM138.889 50.9961C138.309 50.9961 137.827 51.1816 137.443 51.5527C137.066 51.9238 136.848 52.5065 136.789 53.3008H140.969C140.962 52.8581 140.881 52.4642 140.725 52.1191C140.575 51.7741 140.347 51.5007 140.041 51.2988C139.742 51.097 139.357 50.9961 138.889 50.9961ZM152.385 48.877C153.55 48.877 154.488 49.196 155.197 49.834C155.907 50.4655 156.262 51.4811 156.262 52.8809V60H153.283V53.623C153.283 52.8418 153.14 52.2526 152.854 51.8555C152.574 51.4583 152.131 51.2598 151.525 51.2598C150.614 51.2598 149.992 51.569 149.66 52.1875C149.328 52.806 149.162 53.6979 149.162 54.8633V60H146.184V49.082H148.459L148.859 50.4785H149.025C149.26 50.1009 149.549 49.7949 149.895 49.5605C150.246 49.3262 150.633 49.1536 151.057 49.043C151.486 48.9323 151.929 48.877 152.385 48.877ZM163.928 57.8223C164.253 57.8223 164.569 57.7897 164.875 57.7246C165.188 57.6595 165.497 57.5781 165.803 57.4805V59.6973C165.484 59.8405 165.087 59.9577 164.611 60.0488C164.143 60.1465 163.628 60.1953 163.068 60.1953C162.417 60.1953 161.831 60.0911 161.311 59.8828C160.796 59.668 160.389 59.3001 160.09 58.7793C159.797 58.252 159.65 57.5195 159.65 56.582V51.3184H158.225V50.0586L159.865 49.0625L160.725 46.7578H162.629V49.082H165.686V51.3184H162.629V56.582C162.629 56.9987 162.746 57.3112 162.98 57.5195C163.221 57.7214 163.537 57.8223 163.928 57.8223ZM170.998 49.082V60H168.02V49.082H170.998ZM169.514 44.8047C169.956 44.8047 170.337 44.9089 170.656 45.1172C170.975 45.319 171.135 45.6999 171.135 46.2598C171.135 46.8132 170.975 47.1973 170.656 47.4121C170.337 47.6204 169.956 47.7246 169.514 47.7246C169.064 47.7246 168.68 47.6204 168.361 47.4121C168.049 47.1973 167.893 46.8132 167.893 46.2598C167.893 45.6999 168.049 45.319 168.361 45.1172C168.68 44.9089 169.064 44.8047 169.514 44.8047ZM180.168 51.3184H177.59V60H174.611V51.3184H172.971V49.8828L174.611 49.082V48.2812C174.611 47.3503 174.768 46.6276 175.08 46.1133C175.399 45.5924 175.845 45.2279 176.418 45.0195C176.997 44.8047 177.681 44.6973 178.469 44.6973C179.048 44.6973 179.576 44.7461 180.051 44.8438C180.526 44.9349 180.913 45.0391 181.213 45.1562L180.451 47.3438C180.223 47.2721 179.976 47.207 179.709 47.1484C179.442 47.0898 179.136 47.0605 178.791 47.0605C178.374 47.0605 178.068 47.1875 177.873 47.4414C177.684 47.6888 177.59 48.0078 177.59 48.3984V49.082H180.168V51.3184ZM180.324 49.082H183.586L185.646 55.2246C185.712 55.4199 185.767 55.6185 185.812 55.8203C185.858 56.0221 185.897 56.2305 185.93 56.4453C185.962 56.6602 185.988 56.8848 186.008 57.1191H186.066C186.105 56.7676 186.158 56.4388 186.223 56.1328C186.294 55.8268 186.382 55.5241 186.486 55.2246L188.508 49.082H191.701L187.082 61.3965C186.802 62.1517 186.438 62.7799 185.988 63.2812C185.539 63.7891 185.021 64.1699 184.436 64.4238C183.856 64.6777 183.218 64.8047 182.521 64.8047C182.183 64.8047 181.89 64.7852 181.643 64.7461C181.395 64.7135 181.184 64.6777 181.008 64.6387V62.2754C181.145 62.3079 181.317 62.3372 181.525 62.3633C181.734 62.3893 181.952 62.4023 182.18 62.4023C182.596 62.4023 182.954 62.3145 183.254 62.1387C183.553 61.9629 183.804 61.7253 184.006 61.4258C184.208 61.1328 184.367 60.8105 184.484 60.459L184.66 59.9219L180.324 49.082ZM207.443 60L206.604 56.1816C206.558 55.9538 206.483 55.6185 206.379 55.1758C206.275 54.7266 206.161 54.248 206.037 53.7402C205.92 53.2259 205.809 52.7507 205.705 52.3145C205.607 51.8783 205.536 51.5592 205.49 51.3574H205.402C205.357 51.5592 205.285 51.8783 205.188 52.3145C205.09 52.7507 204.979 53.2259 204.855 53.7402C204.738 54.2546 204.628 54.7396 204.523 55.1953C204.419 55.6445 204.341 55.9863 204.289 56.2207L203.41 60H200.207L197.102 49.082H200.07L201.33 53.916C201.415 54.2546 201.496 54.6582 201.574 55.127C201.652 55.5892 201.721 56.0384 201.779 56.4746C201.844 56.9043 201.893 57.2461 201.926 57.5H202.004C202.017 57.3112 202.043 57.0605 202.082 56.748C202.128 56.4355 202.176 56.1133 202.229 55.7812C202.287 55.4427 202.339 55.14 202.385 54.873C202.437 54.5996 202.476 54.4141 202.502 54.3164L203.85 49.082H207.131L208.41 54.3164C208.456 54.5052 208.514 54.8047 208.586 55.2148C208.664 55.625 208.732 56.0482 208.791 56.4844C208.85 56.9141 208.882 57.2526 208.889 57.5H208.967C208.993 57.2786 209.038 56.9499 209.104 56.5137C209.169 56.0775 209.243 55.6217 209.328 55.1465C209.419 54.6647 209.51 54.2546 209.602 53.916L210.91 49.082H213.83L210.686 60H207.443ZM218.576 44.8047V47.9004C218.576 48.4408 218.557 48.9551 218.518 49.4434C218.485 49.9316 218.459 50.2767 218.439 50.4785H218.596C218.83 50.1009 219.107 49.7949 219.426 49.5605C219.751 49.3262 220.109 49.1536 220.5 49.043C220.891 48.9323 221.311 48.877 221.76 48.877C222.548 48.877 223.234 49.0169 223.82 49.2969C224.406 49.5703 224.862 50.0033 225.188 50.5957C225.513 51.1816 225.676 51.9434 225.676 52.8809V60H222.697V53.623C222.697 52.8418 222.554 52.2526 222.268 51.8555C221.981 51.4583 221.538 51.2598 220.939 51.2598C220.34 51.2598 219.868 51.3997 219.523 51.6797C219.178 51.9531 218.934 52.36 218.791 52.9004C218.648 53.4342 218.576 54.0885 218.576 54.8633V60H215.598V44.8047H218.576ZM231.721 49.082V60H228.742V49.082H231.721ZM230.236 44.8047C230.679 44.8047 231.06 44.9089 231.379 45.1172C231.698 45.319 231.857 45.6999 231.857 46.2598C231.857 46.8132 231.698 47.1973 231.379 47.4121C231.06 47.6204 230.679 47.7246 230.236 47.7246C229.787 47.7246 229.403 47.6204 229.084 47.4121C228.771 47.1973 228.615 46.8132 228.615 46.2598C228.615 45.6999 228.771 45.319 229.084 45.1172C229.403 44.9089 229.787 44.8047 230.236 44.8047ZM239.289 60.1953C238.208 60.1953 237.287 60 236.525 59.6094C235.764 59.2122 235.184 58.6003 234.787 57.7734C234.39 56.9466 234.191 55.8887 234.191 54.5996C234.191 53.265 234.416 52.1777 234.865 51.3379C235.321 50.4915 235.949 49.8698 236.75 49.4727C237.557 49.0755 238.492 48.877 239.553 48.877C240.308 48.877 240.959 48.9518 241.506 49.1016C242.059 49.2448 242.541 49.4173 242.951 49.6191L242.072 51.9238C241.604 51.735 241.167 51.582 240.764 51.4648C240.36 51.3411 239.956 51.2793 239.553 51.2793C239.032 51.2793 238.599 51.403 238.254 51.6504C237.909 51.8913 237.652 52.2559 237.482 52.7441C237.313 53.2324 237.229 53.8444 237.229 54.5801C237.229 55.3027 237.32 55.9017 237.502 56.377C237.684 56.8522 237.948 57.207 238.293 57.4414C238.638 57.6693 239.058 57.7832 239.553 57.7832C240.171 57.7832 240.721 57.7018 241.203 57.5391C241.685 57.3698 242.154 57.1354 242.609 56.8359V59.3848C242.154 59.6712 241.675 59.8763 241.174 60C240.679 60.1302 240.051 60.1953 239.289 60.1953ZM248.127 44.8047V47.9004C248.127 48.4408 248.107 48.9551 248.068 49.4434C248.036 49.9316 248.01 50.2767 247.99 50.4785H248.146C248.381 50.1009 248.658 49.7949 248.977 49.5605C249.302 49.3262 249.66 49.1536 250.051 49.043C250.441 48.9323 250.861 48.877 251.311 48.877C252.098 48.877 252.785 49.0169 253.371 49.2969C253.957 49.5703 254.413 50.0033 254.738 50.5957C255.064 51.1816 255.227 51.9434 255.227 52.8809V60H252.248V53.623C252.248 52.8418 252.105 52.2526 251.818 51.8555C251.532 51.4583 251.089 51.2598 250.49 51.2598C249.891 51.2598 249.419 51.3997 249.074 51.6797C248.729 51.9531 248.485 52.36 248.342 52.9004C248.199 53.4342 248.127 54.0885 248.127 54.8633V60H245.148V44.8047H248.127ZM58.9961 80.1953C57.9154 80.1953 56.9941 80 56.2324 79.6094C55.4707 79.2122 54.8913 78.6003 54.4941 77.7734C54.097 76.9466 53.8984 75.8887 53.8984 74.5996C53.8984 73.265 54.123 72.1777 54.5723 71.3379C55.028 70.4915 55.6562 69.8698 56.457 69.4727C57.2643 69.0755 58.1986 68.877 59.2598 68.877C60.015 68.877 60.666 68.9518 61.2129 69.1016C61.7663 69.2448 62.248 69.4173 62.6582 69.6191L61.7793 71.9238C61.3105 71.735 60.8743 71.582 60.4707 71.4648C60.0671 71.3411 59.6634 71.2793 59.2598 71.2793C58.7389 71.2793 58.306 71.403 57.9609 71.6504C57.6159 71.8913 57.3587 72.2559 57.1895 72.7441C57.0202 73.2324 56.9355 73.8444 56.9355 74.5801C56.9355 75.3027 57.0267 75.9017 57.209 76.377C57.3913 76.8522 57.6549 77.207 58 77.4414C58.3451 77.6693 58.765 77.7832 59.2598 77.7832C59.8783 77.7832 60.4284 77.7018 60.9102 77.5391C61.3919 77.3698 61.8607 77.1354 62.3164 76.8359V79.3848C61.8607 79.6712 61.3822 79.8763 60.8809 80C60.3861 80.1302 59.7578 80.1953 58.9961 80.1953ZM74.7773 74.5215C74.7773 75.4329 74.6536 76.2402 74.4062 76.9434C74.1654 77.6465 73.8105 78.2422 73.3418 78.7305C72.8796 79.2122 72.3197 79.5768 71.6621 79.8242C71.0111 80.0716 70.2754 80.1953 69.4551 80.1953C68.6868 80.1953 67.9805 80.0716 67.3359 79.8242C66.6979 79.5768 66.1413 79.2122 65.666 78.7305C65.1973 78.2422 64.8327 77.6465 64.5723 76.9434C64.3184 76.2402 64.1914 75.4329 64.1914 74.5215C64.1914 73.3105 64.4062 72.2852 64.8359 71.4453C65.2656 70.6055 65.8776 69.9674 66.6719 69.5312C67.4661 69.0951 68.4134 68.877 69.5137 68.877C70.5358 68.877 71.4408 69.0951 72.2285 69.5312C73.0228 69.9674 73.6445 70.6055 74.0938 71.4453C74.5495 72.2852 74.7773 73.3105 74.7773 74.5215ZM67.2285 74.5215C67.2285 75.2376 67.3066 75.8398 67.4629 76.3281C67.6191 76.8164 67.8633 77.1842 68.1953 77.4316C68.5273 77.679 68.9603 77.8027 69.4941 77.8027C70.0215 77.8027 70.4479 77.679 70.7734 77.4316C71.1055 77.1842 71.3464 76.8164 71.4961 76.3281C71.6523 75.8398 71.7305 75.2376 71.7305 74.5215C71.7305 73.7988 71.6523 73.1999 71.4961 72.7246C71.3464 72.2428 71.1055 71.8815 70.7734 71.6406C70.4414 71.3997 70.0085 71.2793 69.4746 71.2793C68.6868 71.2793 68.1139 71.5495 67.7559 72.0898C67.4043 72.6302 67.2285 73.4408 67.2285 74.5215ZM80.2168 64.8047V67.9004C80.2168 68.4408 80.1973 68.9551 80.1582 69.4434C80.1257 69.9316 80.0996 70.2767 80.0801 70.4785H80.2363C80.4707 70.1009 80.7474 69.7949 81.0664 69.5605C81.3919 69.3262 81.75 69.1536 82.1406 69.043C82.5312 68.9323 82.9512 68.877 83.4004 68.877C84.1882 68.877 84.875 69.0169 85.4609 69.2969C86.0469 69.5703 86.5026 70.0033 86.8281 70.5957C87.1536 71.1816 87.3164 71.9434 87.3164 72.8809V80H84.3379V73.623C84.3379 72.8418 84.1947 72.2526 83.9082 71.8555C83.6217 71.4583 83.179 71.2598 82.5801 71.2598C81.9811 71.2598 81.5091 71.3997 81.1641 71.6797C80.819 71.9531 80.5749 72.36 80.4316 72.9004C80.2884 73.4342 80.2168 74.0885 80.2168 74.8633V80H77.2383V64.8047H80.2168ZM100.305 74.5215C100.305 75.4329 100.181 76.2402 99.9336 76.9434C99.6927 77.6465 99.3379 78.2422 98.8691 78.7305C98.4069 79.2122 97.847 79.5768 97.1895 79.8242C96.5384 80.0716 95.8027 80.1953 94.9824 80.1953C94.2142 80.1953 93.5078 80.0716 92.8633 79.8242C92.2253 79.5768 91.6686 79.2122 91.1934 78.7305C90.7246 78.2422 90.36 77.6465 90.0996 76.9434C89.8457 76.2402 89.7188 75.4329 89.7188 74.5215C89.7188 73.3105 89.9336 72.2852 90.3633 71.4453C90.793 70.6055 91.4049 69.9674 92.1992 69.5312C92.9935 69.0951 93.9408 68.877 95.041 68.877C96.0632 68.877 96.9681 69.0951 97.7559 69.5312C98.5501 69.9674 99.1719 70.6055 99.6211 71.4453C100.077 72.2852 100.305 73.3105 100.305 74.5215ZM92.7559 74.5215C92.7559 75.2376 92.834 75.8398 92.9902 76.3281C93.1465 76.8164 93.3906 77.1842 93.7227 77.4316C94.0547 77.679 94.4876 77.8027 95.0215 77.8027C95.5488 77.8027 95.9753 77.679 96.3008 77.4316C96.6328 77.1842 96.8737 76.8164 97.0234 76.3281C97.1797 75.8398 97.2578 75.2376 97.2578 74.5215C97.2578 73.7988 97.1797 73.1999 97.0234 72.7246C96.8737 72.2428 96.6328 71.8815 96.3008 71.6406C95.9688 71.3997 95.5358 71.2793 95.002 71.2793C94.2142 71.2793 93.6413 71.5495 93.2832 72.0898C92.9316 72.6302 92.7559 73.4408 92.7559 74.5215ZM108.859 68.877C109.009 68.877 109.182 68.8867 109.377 68.9062C109.579 68.9193 109.742 68.9388 109.865 68.9648L109.641 71.7578C109.543 71.7253 109.403 71.7025 109.221 71.6895C109.045 71.6699 108.892 71.6602 108.762 71.6602C108.378 71.6602 108.003 71.709 107.639 71.8066C107.281 71.9043 106.958 72.0638 106.672 72.2852C106.385 72.5 106.158 72.7865 105.988 73.1445C105.826 73.4961 105.744 73.929 105.744 74.4434V80H102.766V69.082H105.021L105.461 70.918H105.607C105.822 70.5469 106.089 70.2083 106.408 69.9023C106.734 69.5898 107.102 69.3424 107.512 69.1602C107.928 68.9714 108.378 68.877 108.859 68.877ZM116.447 77.8223C116.773 77.8223 117.089 77.7897 117.395 77.7246C117.707 77.6595 118.016 77.5781 118.322 77.4805V79.6973C118.003 79.8405 117.606 79.9577 117.131 80.0488C116.662 80.1465 116.148 80.1953 115.588 80.1953C114.937 80.1953 114.351 80.0911 113.83 79.8828C113.316 79.668 112.909 79.3001 112.609 78.7793C112.316 78.252 112.17 77.5195 112.17 76.582V71.3184H110.744V70.0586L112.385 69.0625L113.244 66.7578H115.148V69.082H118.205V71.3184H115.148V76.582C115.148 76.9987 115.266 77.3112 115.5 77.5195C115.741 77.7214 116.057 77.8223 116.447 77.8223ZM128.156 76.7578C128.156 77.5 127.98 78.1283 127.629 78.6426C127.284 79.1504 126.766 79.5378 126.076 79.8047C125.386 80.0651 124.527 80.1953 123.498 80.1953C122.736 80.1953 122.082 80.1465 121.535 80.0488C120.995 79.9512 120.448 79.7884 119.895 79.5605V77.0996C120.487 77.3665 121.122 77.5879 121.799 77.7637C122.482 77.9329 123.081 78.0176 123.596 78.0176C124.175 78.0176 124.589 77.9329 124.836 77.7637C125.09 77.5879 125.217 77.36 125.217 77.0801C125.217 76.8978 125.165 76.735 125.061 76.5918C124.963 76.4421 124.748 76.276 124.416 76.0938C124.084 75.9049 123.563 75.6608 122.854 75.3613C122.17 75.0749 121.607 74.7852 121.164 74.4922C120.728 74.1992 120.402 73.8542 120.188 73.457C119.979 73.0534 119.875 72.5423 119.875 71.9238C119.875 70.9147 120.266 70.1562 121.047 69.6484C121.835 69.1341 122.886 68.877 124.201 68.877C124.878 68.877 125.523 68.9453 126.135 69.082C126.753 69.2188 127.388 69.4368 128.039 69.7363L127.141 71.8848C126.6 71.6504 126.089 71.4583 125.607 71.3086C125.132 71.1589 124.647 71.084 124.152 71.084C123.716 71.084 123.387 71.1426 123.166 71.2598C122.945 71.377 122.834 71.556 122.834 71.7969C122.834 71.9727 122.889 72.1289 123 72.2656C123.117 72.4023 123.339 72.5553 123.664 72.7246C123.996 72.8874 124.481 73.099 125.119 73.3594C125.738 73.6133 126.275 73.8802 126.73 74.1602C127.186 74.4336 127.538 74.7754 127.785 75.1855C128.033 75.5892 128.156 76.1133 128.156 76.7578ZM140.148 68.8574C141.613 68.8574 142.736 69.1764 143.518 69.8145C144.299 70.4525 144.689 71.4225 144.689 72.7246V80H142.609L142.033 78.5156H141.955C141.643 78.9062 141.324 79.2253 140.998 79.4727C140.673 79.7201 140.298 79.9023 139.875 80.0195C139.452 80.1367 138.938 80.1953 138.332 80.1953C137.688 80.1953 137.108 80.0716 136.594 79.8242C136.086 79.5768 135.686 79.1992 135.393 78.6914C135.1 78.1771 134.953 77.526 134.953 76.7383C134.953 75.5794 135.36 74.7266 136.174 74.1797C136.988 73.6263 138.208 73.3203 139.836 73.2617L141.73 73.2031V72.7246C141.73 72.1517 141.581 71.7318 141.281 71.4648C140.982 71.1979 140.565 71.0645 140.031 71.0645C139.504 71.0645 138.986 71.1393 138.479 71.2891C137.971 71.4388 137.463 71.6276 136.955 71.8555L135.969 69.8438C136.548 69.5378 137.196 69.2969 137.912 69.1211C138.635 68.9453 139.38 68.8574 140.148 68.8574ZM141.73 74.9414L140.578 74.9805C139.615 75.0065 138.944 75.179 138.566 75.498C138.195 75.8171 138.01 76.237 138.01 76.7578C138.01 77.2135 138.143 77.5391 138.41 77.7344C138.677 77.9232 139.025 78.0176 139.455 78.0176C140.093 78.0176 140.63 77.8288 141.066 77.4512C141.509 77.0736 141.73 76.5365 141.73 75.8398V74.9414ZM153.859 68.877C154.009 68.877 154.182 68.8867 154.377 68.9062C154.579 68.9193 154.742 68.9388 154.865 68.9648L154.641 71.7578C154.543 71.7253 154.403 71.7025 154.221 71.6895C154.045 71.6699 153.892 71.6602 153.762 71.6602C153.378 71.6602 153.003 71.709 152.639 71.8066C152.281 71.9043 151.958 72.0638 151.672 72.2852C151.385 72.5 151.158 72.7865 150.988 73.1445C150.826 73.4961 150.744 73.929 150.744 74.4434V80H147.766V69.082H150.021L150.461 70.918H150.607C150.822 70.5469 151.089 70.2083 151.408 69.9023C151.734 69.5898 152.102 69.3424 152.512 69.1602C152.928 68.9714 153.378 68.877 153.859 68.877ZM161.35 68.877C162.359 68.877 163.228 69.0723 163.957 69.4629C164.686 69.847 165.249 70.4069 165.646 71.1426C166.044 71.8783 166.242 72.7767 166.242 73.8379V75.2832H159.201C159.234 76.123 159.484 76.7839 159.953 77.2656C160.428 77.7409 161.086 77.9785 161.926 77.9785C162.622 77.9785 163.26 77.9069 163.84 77.7637C164.419 77.6204 165.015 77.4056 165.627 77.1191V79.4238C165.087 79.6908 164.52 79.8861 163.928 80.0098C163.342 80.1335 162.629 80.1953 161.789 80.1953C160.695 80.1953 159.725 79.9935 158.879 79.5898C158.039 79.1862 157.378 78.571 156.896 77.7441C156.421 76.9173 156.184 75.8757 156.184 74.6191C156.184 73.3431 156.398 72.2819 156.828 71.4355C157.264 70.5827 157.87 69.9447 158.645 69.5215C159.419 69.0918 160.321 68.877 161.35 68.877ZM161.369 70.9961C160.79 70.9961 160.308 71.1816 159.924 71.5527C159.546 71.9238 159.328 72.5065 159.27 73.3008H163.449C163.443 72.8581 163.361 72.4642 163.205 72.1191C163.055 71.7741 162.827 71.5007 162.521 71.2988C162.222 71.097 161.838 70.9961 161.369 70.9961ZM178.332 68.8574C179.797 68.8574 180.92 69.1764 181.701 69.8145C182.482 70.4525 182.873 71.4225 182.873 72.7246V80H180.793L180.217 78.5156H180.139C179.826 78.9062 179.507 79.2253 179.182 79.4727C178.856 79.7201 178.482 79.9023 178.059 80.0195C177.635 80.1367 177.121 80.1953 176.516 80.1953C175.871 80.1953 175.292 80.0716 174.777 79.8242C174.27 79.5768 173.869 79.1992 173.576 78.6914C173.283 78.1771 173.137 77.526 173.137 76.7383C173.137 75.5794 173.544 74.7266 174.357 74.1797C175.171 73.6263 176.392 73.3203 178.02 73.2617L179.914 73.2031V72.7246C179.914 72.1517 179.764 71.7318 179.465 71.4648C179.165 71.1979 178.749 71.0645 178.215 71.0645C177.688 71.0645 177.17 71.1393 176.662 71.2891C176.154 71.4388 175.646 71.6276 175.139 71.8555L174.152 69.8438C174.732 69.5378 175.38 69.2969 176.096 69.1211C176.818 68.9453 177.564 68.8574 178.332 68.8574ZM179.914 74.9414L178.762 74.9805C177.798 75.0065 177.128 75.179 176.75 75.498C176.379 75.8171 176.193 76.237 176.193 76.7578C176.193 77.2135 176.327 77.5391 176.594 77.7344C176.861 77.9232 177.209 78.0176 177.639 78.0176C178.277 78.0176 178.814 77.8288 179.25 77.4512C179.693 77.0736 179.914 76.5365 179.914 75.8398V74.9414ZM190.549 77.8223C190.874 77.8223 191.19 77.7897 191.496 77.7246C191.809 77.6595 192.118 77.5781 192.424 77.4805V79.6973C192.105 79.8405 191.708 79.9577 191.232 80.0488C190.764 80.1465 190.249 80.1953 189.689 80.1953C189.038 80.1953 188.452 80.0911 187.932 79.8828C187.417 79.668 187.01 79.3001 186.711 78.7793C186.418 78.252 186.271 77.5195 186.271 76.582V71.3184H184.846V70.0586L186.486 69.0625L187.346 66.7578H189.25V69.082H192.307V71.3184H189.25V76.582C189.25 76.9987 189.367 77.3112 189.602 77.5195C189.842 77.7214 190.158 77.8223 190.549 77.8223ZM205.93 68.877C206.079 68.877 206.252 68.8867 206.447 68.9062C206.649 68.9193 206.812 68.9388 206.936 68.9648L206.711 71.7578C206.613 71.7253 206.473 71.7025 206.291 71.6895C206.115 71.6699 205.962 71.6602 205.832 71.6602C205.448 71.6602 205.074 71.709 204.709 71.8066C204.351 71.9043 204.029 72.0638 203.742 72.2852C203.456 72.5 203.228 72.7865 203.059 73.1445C202.896 73.4961 202.814 73.929 202.814 74.4434V80H199.836V69.082H202.092L202.531 70.918H202.678C202.893 70.5469 203.16 70.2083 203.479 69.9023C203.804 69.5898 204.172 69.3424 204.582 69.1602C204.999 68.9714 205.448 68.877 205.93 68.877ZM211.896 69.082V80H208.918V69.082H211.896ZM210.412 64.8047C210.855 64.8047 211.236 64.9089 211.555 65.1172C211.874 65.319 212.033 65.6999 212.033 66.2598C212.033 66.8132 211.874 67.1973 211.555 67.4121C211.236 67.6204 210.855 67.7246 210.412 67.7246C209.963 67.7246 209.579 67.6204 209.26 67.4121C208.947 67.1973 208.791 66.8132 208.791 66.2598C208.791 65.6999 208.947 65.319 209.26 65.1172C209.579 64.9089 209.963 64.8047 210.412 64.8047ZM222.648 76.7578C222.648 77.5 222.473 78.1283 222.121 78.6426C221.776 79.1504 221.258 79.5378 220.568 79.8047C219.878 80.0651 219.019 80.1953 217.99 80.1953C217.229 80.1953 216.574 80.1465 216.027 80.0488C215.487 79.9512 214.94 79.7884 214.387 79.5605V77.0996C214.979 77.3665 215.614 77.5879 216.291 77.7637C216.975 77.9329 217.574 78.0176 218.088 78.0176C218.667 78.0176 219.081 77.9329 219.328 77.7637C219.582 77.5879 219.709 77.36 219.709 77.0801C219.709 76.8978 219.657 76.735 219.553 76.5918C219.455 76.4421 219.24 76.276 218.908 76.0938C218.576 75.9049 218.055 75.6608 217.346 75.3613C216.662 75.0749 216.099 74.7852 215.656 74.4922C215.22 74.1992 214.895 73.8542 214.68 73.457C214.471 73.0534 214.367 72.5423 214.367 71.9238C214.367 70.9147 214.758 70.1562 215.539 69.6484C216.327 69.1341 217.378 68.877 218.693 68.877C219.37 68.877 220.015 68.9453 220.627 69.082C221.245 69.2188 221.88 69.4368 222.531 69.7363L221.633 71.8848C221.092 71.6504 220.581 71.4583 220.1 71.3086C219.624 71.1589 219.139 71.084 218.645 71.084C218.208 71.084 217.88 71.1426 217.658 71.2598C217.437 71.377 217.326 71.556 217.326 71.7969C217.326 71.9727 217.382 72.1289 217.492 72.2656C217.609 72.4023 217.831 72.5553 218.156 72.7246C218.488 72.8874 218.973 73.099 219.611 73.3594C220.23 73.6133 220.767 73.8802 221.223 74.1602C221.678 74.4336 222.03 74.7754 222.277 75.1855C222.525 75.5892 222.648 76.1133 222.648 76.7578ZM227.951 64.8047V71.6016C227.951 72.0117 227.935 72.4219 227.902 72.832C227.87 73.2422 227.834 73.6523 227.795 74.0625H227.834C228.036 73.776 228.241 73.4928 228.449 73.2129C228.664 72.9329 228.892 72.6628 229.133 72.4023L232.189 69.082H235.549L231.213 73.8184L235.812 80H232.375L229.23 75.5762L227.951 76.6016V80H224.973V64.8047H227.951ZM247.043 68.8574C248.508 68.8574 249.631 69.1764 250.412 69.8145C251.193 70.4525 251.584 71.4225 251.584 72.7246V80H249.504L248.928 78.5156H248.85C248.537 78.9062 248.218 79.2253 247.893 79.4727C247.567 79.7201 247.193 79.9023 246.77 80.0195C246.346 80.1367 245.832 80.1953 245.227 80.1953C244.582 80.1953 244.003 80.0716 243.488 79.8242C242.98 79.5768 242.58 79.1992 242.287 78.6914C241.994 78.1771 241.848 77.526 241.848 76.7383C241.848 75.5794 242.255 74.7266 243.068 74.1797C243.882 73.6263 245.103 73.3203 246.73 73.2617L248.625 73.2031V72.7246C248.625 72.1517 248.475 71.7318 248.176 71.4648C247.876 71.1979 247.46 71.0645 246.926 71.0645C246.398 71.0645 245.881 71.1393 245.373 71.2891C244.865 71.4388 244.357 71.6276 243.85 71.8555L242.863 69.8438C243.443 69.5378 244.09 69.2969 244.807 69.1211C245.529 68.9453 246.275 68.8574 247.043 68.8574ZM248.625 74.9414L247.473 74.9805C246.509 75.0065 245.839 75.179 245.461 75.498C245.09 75.8171 244.904 76.237 244.904 76.7578C244.904 77.2135 245.038 77.5391 245.305 77.7344C245.572 77.9232 245.92 78.0176 246.35 78.0176C246.988 78.0176 247.525 77.8288 247.961 77.4512C248.404 77.0736 248.625 76.5365 248.625 75.8398V74.9414ZM260.861 68.877C262.027 68.877 262.964 69.196 263.674 69.834C264.383 70.4655 264.738 71.4811 264.738 72.8809V80H261.76V73.623C261.76 72.8418 261.617 72.2526 261.33 71.8555C261.05 71.4583 260.607 71.2598 260.002 71.2598C259.09 71.2598 258.469 71.569 258.137 72.1875C257.805 72.806 257.639 73.6979 257.639 74.8633V80H254.66V69.082H256.936L257.336 70.4785H257.502C257.736 70.1009 258.026 69.7949 258.371 69.5605C258.723 69.3262 259.11 69.1536 259.533 69.043C259.963 68.9323 260.406 68.877 260.861 68.877ZM271.262 80.1953C270.044 80.1953 269.051 79.7201 268.283 78.7695C267.521 77.8125 267.141 76.4095 267.141 74.5605C267.141 72.6921 267.528 71.2793 268.303 70.3223C269.077 69.3587 270.09 68.877 271.34 68.877C271.861 68.877 272.32 68.9486 272.717 69.0918C273.114 69.235 273.456 69.4271 273.742 69.668C274.035 69.9089 274.283 70.179 274.484 70.4785H274.582C274.543 70.2702 274.494 69.9642 274.436 69.5605C274.383 69.1504 274.357 68.7305 274.357 68.3008V64.8047H277.346V80H275.061L274.484 78.584H274.357C274.169 78.8835 273.931 79.1569 273.645 79.4043C273.365 79.6452 273.029 79.8372 272.639 79.9805C272.248 80.1237 271.789 80.1953 271.262 80.1953ZM272.307 77.8223C273.12 77.8223 273.693 77.5814 274.025 77.0996C274.364 76.6113 274.543 75.8789 274.562 74.9023V74.5801C274.562 73.5189 274.4 72.7083 274.074 72.1484C273.749 71.582 273.143 71.2988 272.258 71.2988C271.6 71.2988 271.086 71.582 270.715 72.1484C270.344 72.7148 270.158 73.5319 270.158 74.5996C270.158 75.6673 270.344 76.4714 270.715 77.0117C271.092 77.5521 271.623 77.8223 272.307 77.8223ZM59.0352 88.8574C60.5 88.8574 61.623 89.1764 62.4043 89.8145C63.1855 90.4525 63.5762 91.4225 63.5762 92.7246V100H61.4961L60.9199 98.5156H60.8418C60.5293 98.9062 60.2103 99.2253 59.8848 99.4727C59.5592 99.7201 59.1849 99.9023 58.7617 100.02C58.3385 100.137 57.8242 100.195 57.2188 100.195C56.5742 100.195 55.9948 100.072 55.4805 99.8242C54.9727 99.5768 54.5723 99.1992 54.2793 98.6914C53.9863 98.1771 53.8398 97.526 53.8398 96.7383C53.8398 95.5794 54.2467 94.7266 55.0605 94.1797C55.8743 93.6263 57.0951 93.3203 58.7227 93.2617L60.6172 93.2031V92.7246C60.6172 92.1517 60.4674 91.7318 60.168 91.4648C59.8685 91.1979 59.4518 91.0645 58.918 91.0645C58.3906 91.0645 57.873 91.1393 57.3652 91.2891C56.8574 91.4388 56.3496 91.6276 55.8418 91.8555L54.8555 89.8438C55.4349 89.5378 56.0827 89.2969 56.7988 89.1211C57.5215 88.9453 58.2669 88.8574 59.0352 88.8574ZM60.6172 94.9414L59.4648 94.9805C58.5013 95.0065 57.8307 95.179 57.4531 95.498C57.082 95.8171 56.8965 96.237 56.8965 96.7578C56.8965 97.2135 57.0299 97.5391 57.2969 97.7344C57.5638 97.9232 57.9121 98.0176 58.3418 98.0176C58.9798 98.0176 59.5169 97.8288 59.9531 97.4512C60.3958 97.0736 60.6172 96.5365 60.6172 95.8398V94.9414ZM76.6719 89.082V100H74.3867L73.9863 98.6035H73.8301C73.5957 98.9746 73.3027 99.2773 72.9512 99.5117C72.5996 99.7461 72.2122 99.9186 71.7891 100.029C71.3659 100.14 70.9264 100.195 70.4707 100.195C69.6895 100.195 69.0091 100.059 68.4297 99.7852C67.8503 99.5052 67.3978 99.0723 67.0723 98.4863C66.7533 97.9004 66.5938 97.1387 66.5938 96.2012V89.082H69.5723V95.459C69.5723 96.2402 69.7122 96.8294 69.9922 97.2266C70.2721 97.6237 70.7181 97.8223 71.3301 97.8223C71.9355 97.8223 72.4108 97.6855 72.7559 97.4121C73.1009 97.1322 73.3418 96.7253 73.4785 96.1914C73.6217 95.651 73.6934 94.9935 73.6934 94.2188V89.082H76.6719ZM84.3965 97.8223C84.722 97.8223 85.0378 97.7897 85.3438 97.7246C85.6562 97.6595 85.9655 97.5781 86.2715 97.4805V99.6973C85.9525 99.8405 85.5553 99.9577 85.0801 100.049C84.6113 100.146 84.097 100.195 83.5371 100.195C82.8861 100.195 82.3001 100.091 81.7793 99.8828C81.265 99.668 80.8581 99.3001 80.5586 98.7793C80.2656 98.252 80.1191 97.5195 80.1191 96.582V91.3184H78.6934V90.0586L80.334 89.0625L81.1934 86.7578H83.0977V89.082H86.1543V91.3184H83.0977V96.582C83.0977 96.9987 83.2148 97.3112 83.4492 97.5195C83.6901 97.7214 84.0059 97.8223 84.3965 97.8223ZM98.4102 94.5215C98.4102 95.4329 98.2865 96.2402 98.0391 96.9434C97.7982 97.6465 97.4434 98.2422 96.9746 98.7305C96.5124 99.2122 95.9525 99.5768 95.2949 99.8242C94.6439 100.072 93.9082 100.195 93.0879 100.195C92.3197 100.195 91.6133 100.072 90.9688 99.8242C90.3307 99.5768 89.7741 99.2122 89.2988 98.7305C88.8301 98.2422 88.4655 97.6465 88.2051 96.9434C87.9512 96.2402 87.8242 95.4329 87.8242 94.5215C87.8242 93.3105 88.0391 92.2852 88.4688 91.4453C88.8984 90.6055 89.5104 89.9674 90.3047 89.5312C91.099 89.0951 92.0462 88.877 93.1465 88.877C94.1686 88.877 95.0736 89.0951 95.8613 89.5312C96.6556 89.9674 97.2773 90.6055 97.7266 91.4453C98.1823 92.2852 98.4102 93.3105 98.4102 94.5215ZM90.8613 94.5215C90.8613 95.2376 90.9395 95.8398 91.0957 96.3281C91.252 96.8164 91.4961 97.1842 91.8281 97.4316C92.1602 97.679 92.5931 97.8027 93.127 97.8027C93.6543 97.8027 94.0807 97.679 94.4062 97.4316C94.7383 97.1842 94.9792 96.8164 95.1289 96.3281C95.2852 95.8398 95.3633 95.2376 95.3633 94.5215C95.3633 93.7988 95.2852 93.1999 95.1289 92.7246C94.9792 92.2428 94.7383 91.8815 94.4062 91.6406C94.0742 91.3997 93.6413 91.2793 93.1074 91.2793C92.3197 91.2793 91.7467 91.5495 91.3887 92.0898C91.0371 92.6302 90.8613 93.4408 90.8613 94.5215ZM113.693 88.877C114.93 88.877 115.865 89.196 116.496 89.834C117.134 90.4655 117.453 91.4811 117.453 92.8809V100H114.465V93.623C114.465 92.8418 114.331 92.2526 114.064 91.8555C113.798 91.4583 113.384 91.2598 112.824 91.2598C112.036 91.2598 111.477 91.543 111.145 92.1094C110.812 92.6693 110.646 93.4733 110.646 94.5215V100H107.668V93.623C107.668 93.1022 107.609 92.666 107.492 92.3145C107.375 91.9629 107.196 91.6992 106.955 91.5234C106.714 91.3477 106.405 91.2598 106.027 91.2598C105.474 91.2598 105.038 91.3997 104.719 91.6797C104.406 91.9531 104.182 92.36 104.045 92.9004C103.915 93.4342 103.85 94.0885 103.85 94.8633V100H100.871V89.082H103.146L103.547 90.4785H103.713C103.934 90.1009 104.211 89.7949 104.543 89.5605C104.882 89.3262 105.253 89.1536 105.656 89.043C106.06 88.9323 106.47 88.877 106.887 88.877C107.688 88.877 108.365 89.0072 108.918 89.2676C109.478 89.528 109.908 89.9316 110.207 90.4785H110.471C110.796 89.9186 111.255 89.5117 111.848 89.2578C112.447 89.0039 113.062 88.877 113.693 88.877ZM124.992 88.8574C126.457 88.8574 127.58 89.1764 128.361 89.8145C129.143 90.4525 129.533 91.4225 129.533 92.7246V100H127.453L126.877 98.5156H126.799C126.486 98.9062 126.167 99.2253 125.842 99.4727C125.516 99.7201 125.142 99.9023 124.719 100.02C124.296 100.137 123.781 100.195 123.176 100.195C122.531 100.195 121.952 100.072 121.438 99.8242C120.93 99.5768 120.529 99.1992 120.236 98.6914C119.943 98.1771 119.797 97.526 119.797 96.7383C119.797 95.5794 120.204 94.7266 121.018 94.1797C121.831 93.6263 123.052 93.3203 124.68 93.2617L126.574 93.2031V92.7246C126.574 92.1517 126.424 91.7318 126.125 91.4648C125.826 91.1979 125.409 91.0645 124.875 91.0645C124.348 91.0645 123.83 91.1393 123.322 91.2891C122.814 91.4388 122.307 91.6276 121.799 91.8555L120.812 89.8438C121.392 89.5378 122.04 89.2969 122.756 89.1211C123.479 88.9453 124.224 88.8574 124.992 88.8574ZM126.574 94.9414L125.422 94.9805C124.458 95.0065 123.788 95.179 123.41 95.498C123.039 95.8171 122.854 96.237 122.854 96.7578C122.854 97.2135 122.987 97.5391 123.254 97.7344C123.521 97.9232 123.869 98.0176 124.299 98.0176C124.937 98.0176 125.474 97.8288 125.91 97.4512C126.353 97.0736 126.574 96.5365 126.574 95.8398V94.9414ZM137.209 97.8223C137.535 97.8223 137.85 97.7897 138.156 97.7246C138.469 97.6595 138.778 97.5781 139.084 97.4805V99.6973C138.765 99.8405 138.368 99.9577 137.893 100.049C137.424 100.146 136.91 100.195 136.35 100.195C135.699 100.195 135.113 100.091 134.592 99.8828C134.077 99.668 133.671 99.3001 133.371 98.7793C133.078 98.252 132.932 97.5195 132.932 96.582V91.3184H131.506V90.0586L133.146 89.0625L134.006 86.7578H135.91V89.082H138.967V91.3184H135.91V96.582C135.91 96.9987 136.027 97.3112 136.262 97.5195C136.503 97.7214 136.818 97.8223 137.209 97.8223ZM144.279 89.082V100H141.301V89.082H144.279ZM142.795 84.8047C143.238 84.8047 143.618 84.9089 143.938 85.1172C144.257 85.319 144.416 85.6999 144.416 86.2598C144.416 86.8132 144.257 87.1973 143.938 87.4121C143.618 87.6204 143.238 87.7246 142.795 87.7246C142.346 87.7246 141.962 87.6204 141.643 87.4121C141.33 87.1973 141.174 86.8132 141.174 86.2598C141.174 85.6999 141.33 85.319 141.643 85.1172C141.962 84.9089 142.346 84.8047 142.795 84.8047ZM151.848 100.195C150.767 100.195 149.846 100 149.084 99.6094C148.322 99.2122 147.743 98.6003 147.346 97.7734C146.949 96.9466 146.75 95.8887 146.75 94.5996C146.75 93.265 146.975 92.1777 147.424 91.3379C147.88 90.4915 148.508 89.8698 149.309 89.4727C150.116 89.0755 151.05 88.877 152.111 88.877C152.867 88.877 153.518 88.9518 154.064 89.1016C154.618 89.2448 155.1 89.4173 155.51 89.6191L154.631 91.9238C154.162 91.735 153.726 91.582 153.322 91.4648C152.919 91.3411 152.515 91.2793 152.111 91.2793C151.59 91.2793 151.158 91.403 150.812 91.6504C150.467 91.8913 150.21 92.2559 150.041 92.7441C149.872 93.2324 149.787 93.8444 149.787 94.5801C149.787 95.3027 149.878 95.9017 150.061 96.377C150.243 96.8522 150.507 97.207 150.852 97.4414C151.197 97.6693 151.617 97.7832 152.111 97.7832C152.73 97.7832 153.28 97.7018 153.762 97.5391C154.243 97.3698 154.712 97.1354 155.168 96.8359V99.3848C154.712 99.6712 154.234 99.8763 153.732 100C153.238 100.13 152.609 100.195 151.848 100.195ZM162.18 88.8574C163.645 88.8574 164.768 89.1764 165.549 89.8145C166.33 90.4525 166.721 91.4225 166.721 92.7246V100H164.641L164.064 98.5156H163.986C163.674 98.9062 163.355 99.2253 163.029 99.4727C162.704 99.7201 162.329 99.9023 161.906 100.02C161.483 100.137 160.969 100.195 160.363 100.195C159.719 100.195 159.139 100.072 158.625 99.8242C158.117 99.5768 157.717 99.1992 157.424 98.6914C157.131 98.1771 156.984 97.526 156.984 96.7383C156.984 95.5794 157.391 94.7266 158.205 94.1797C159.019 93.6263 160.24 93.3203 161.867 93.2617L163.762 93.2031V92.7246C163.762 92.1517 163.612 91.7318 163.312 91.4648C163.013 91.1979 162.596 91.0645 162.062 91.0645C161.535 91.0645 161.018 91.1393 160.51 91.2891C160.002 91.4388 159.494 91.6276 158.986 91.8555L158 89.8438C158.579 89.5378 159.227 89.2969 159.943 89.1211C160.666 88.9453 161.411 88.8574 162.18 88.8574ZM163.762 94.9414L162.609 94.9805C161.646 95.0065 160.975 95.179 160.598 95.498C160.227 95.8171 160.041 96.237 160.041 96.7578C160.041 97.2135 160.174 97.5391 160.441 97.7344C160.708 97.9232 161.057 98.0176 161.486 98.0176C162.124 98.0176 162.661 97.8288 163.098 97.4512C163.54 97.0736 163.762 96.5365 163.762 95.8398V94.9414ZM172.775 100H169.797V84.8047H172.775V100ZM178.889 100H175.91V84.8047H178.889V100ZM180.461 89.082H183.723L185.783 95.2246C185.848 95.4199 185.904 95.6185 185.949 95.8203C185.995 96.0221 186.034 96.2305 186.066 96.4453C186.099 96.6602 186.125 96.8848 186.145 97.1191H186.203C186.242 96.7676 186.294 96.4388 186.359 96.1328C186.431 95.8268 186.519 95.5241 186.623 95.2246L188.645 89.082H191.838L187.219 101.396C186.939 102.152 186.574 102.78 186.125 103.281C185.676 103.789 185.158 104.17 184.572 104.424C183.993 104.678 183.355 104.805 182.658 104.805C182.32 104.805 182.027 104.785 181.779 104.746C181.532 104.714 181.32 104.678 181.145 104.639V102.275C181.281 102.308 181.454 102.337 181.662 102.363C181.87 102.389 182.089 102.402 182.316 102.402C182.733 102.402 183.091 102.314 183.391 102.139C183.69 101.963 183.941 101.725 184.143 101.426C184.344 101.133 184.504 100.811 184.621 100.459L184.797 99.9219L180.461 89.082ZM206.223 96.7578C206.223 97.5 206.047 98.1283 205.695 98.6426C205.35 99.1504 204.833 99.5378 204.143 99.8047C203.452 100.065 202.593 100.195 201.564 100.195C200.803 100.195 200.148 100.146 199.602 100.049C199.061 99.9512 198.514 99.7884 197.961 99.5605V97.0996C198.553 97.3665 199.188 97.5879 199.865 97.7637C200.549 97.9329 201.148 98.0176 201.662 98.0176C202.242 98.0176 202.655 97.9329 202.902 97.7637C203.156 97.5879 203.283 97.36 203.283 97.0801C203.283 96.8978 203.231 96.735 203.127 96.5918C203.029 96.4421 202.814 96.276 202.482 96.0938C202.15 95.9049 201.63 95.6608 200.92 95.3613C200.236 95.0749 199.673 94.7852 199.23 94.4922C198.794 94.1992 198.469 93.8542 198.254 93.457C198.046 93.0534 197.941 92.5423 197.941 91.9238C197.941 90.9147 198.332 90.1562 199.113 89.6484C199.901 89.1341 200.952 88.877 202.268 88.877C202.945 88.877 203.589 88.9453 204.201 89.082C204.82 89.2188 205.454 89.4368 206.105 89.7363L205.207 91.8848C204.667 91.6504 204.156 91.4583 203.674 91.3086C203.199 91.1589 202.714 91.084 202.219 91.084C201.783 91.084 201.454 91.1426 201.232 91.2598C201.011 91.377 200.9 91.556 200.9 91.7969C200.9 91.9727 200.956 92.1289 201.066 92.2656C201.184 92.4023 201.405 92.5553 201.73 92.7246C202.062 92.8874 202.548 93.099 203.186 93.3594C203.804 93.6133 204.341 93.8802 204.797 94.1602C205.253 94.4336 205.604 94.7754 205.852 95.1855C206.099 95.5892 206.223 96.1133 206.223 96.7578ZM218.566 89.082V100H216.281L215.881 98.6035H215.725C215.49 98.9746 215.197 99.2773 214.846 99.5117C214.494 99.7461 214.107 99.9186 213.684 100.029C213.26 100.14 212.821 100.195 212.365 100.195C211.584 100.195 210.904 100.059 210.324 99.7852C209.745 99.5052 209.292 99.0723 208.967 98.4863C208.648 97.9004 208.488 97.1387 208.488 96.2012V89.082H211.467V95.459C211.467 96.2402 211.607 96.8294 211.887 97.2266C212.167 97.6237 212.613 97.8223 213.225 97.8223C213.83 97.8223 214.305 97.6855 214.65 97.4121C214.995 97.1322 215.236 96.7253 215.373 96.1914C215.516 95.651 215.588 94.9935 215.588 94.2188V89.082H218.566ZM224.885 104.805C223.361 104.805 222.196 104.538 221.389 104.004C220.588 103.477 220.188 102.734 220.188 101.777C220.188 101.12 220.393 100.57 220.803 100.127C221.213 99.6842 221.815 99.3685 222.609 99.1797C222.303 99.0495 222.036 98.8379 221.809 98.5449C221.581 98.2454 221.467 97.9297 221.467 97.5977C221.467 97.181 221.587 96.8359 221.828 96.5625C222.069 96.2826 222.417 96.0091 222.873 95.7422C222.3 95.4948 221.844 95.0977 221.506 94.5508C221.174 94.0039 221.008 93.3594 221.008 92.6172C221.008 91.8229 221.18 91.1491 221.525 90.5957C221.877 90.0358 222.385 89.6094 223.049 89.3164C223.719 89.0234 224.533 88.877 225.49 88.877C225.692 88.877 225.926 88.89 226.193 88.916C226.46 88.9421 226.704 88.9714 226.926 89.0039C227.154 89.0365 227.307 89.0625 227.385 89.082H231.193V90.5957L229.484 91.0352C229.641 91.276 229.758 91.5332 229.836 91.8066C229.914 92.0801 229.953 92.3698 229.953 92.6758C229.953 93.8477 229.543 94.7624 228.723 95.4199C227.909 96.071 226.776 96.3965 225.324 96.3965C224.979 96.377 224.654 96.3509 224.348 96.3184C224.198 96.4355 224.084 96.5592 224.006 96.6895C223.928 96.8197 223.889 96.9564 223.889 97.0996C223.889 97.2428 223.947 97.3633 224.064 97.4609C224.188 97.5521 224.37 97.6237 224.611 97.6758C224.859 97.7214 225.165 97.7441 225.529 97.7441H227.385C228.583 97.7441 229.494 98.0013 230.119 98.5156C230.751 99.0299 231.066 99.7852 231.066 100.781C231.066 102.057 230.533 103.047 229.465 103.75C228.404 104.453 226.877 104.805 224.885 104.805ZM225.012 102.861C225.721 102.861 226.33 102.793 226.838 102.656C227.352 102.526 227.746 102.337 228.02 102.09C228.293 101.849 228.43 101.559 228.43 101.221C228.43 100.947 228.348 100.729 228.186 100.566C228.029 100.41 227.788 100.299 227.463 100.234C227.144 100.169 226.734 100.137 226.232 100.137H224.689C224.325 100.137 223.996 100.195 223.703 100.312C223.417 100.43 223.189 100.592 223.02 100.801C222.85 101.016 222.766 101.263 222.766 101.543C222.766 101.953 222.961 102.275 223.352 102.51C223.749 102.744 224.302 102.861 225.012 102.861ZM225.49 94.5801C226.05 94.5801 226.46 94.4076 226.721 94.0625C226.981 93.7174 227.111 93.2487 227.111 92.6562C227.111 91.9987 226.975 91.5072 226.701 91.1816C226.434 90.8496 226.031 90.6836 225.49 90.6836C224.943 90.6836 224.533 90.8496 224.26 91.1816C223.986 91.5072 223.85 91.9987 223.85 92.6562C223.85 93.2487 223.983 93.7174 224.25 94.0625C224.523 94.4076 224.937 94.5801 225.49 94.5801ZM236.193 104.805C234.67 104.805 233.505 104.538 232.697 104.004C231.896 103.477 231.496 102.734 231.496 101.777C231.496 101.12 231.701 100.57 232.111 100.127C232.521 99.6842 233.124 99.3685 233.918 99.1797C233.612 99.0495 233.345 98.8379 233.117 98.5449C232.889 98.2454 232.775 97.9297 232.775 97.5977C232.775 97.181 232.896 96.8359 233.137 96.5625C233.378 96.2826 233.726 96.0091 234.182 95.7422C233.609 95.4948 233.153 95.0977 232.814 94.5508C232.482 94.0039 232.316 93.3594 232.316 92.6172C232.316 91.8229 232.489 91.1491 232.834 90.5957C233.186 90.0358 233.693 89.6094 234.357 89.3164C235.028 89.0234 235.842 88.877 236.799 88.877C237.001 88.877 237.235 88.89 237.502 88.916C237.769 88.9421 238.013 88.9714 238.234 89.0039C238.462 89.0365 238.615 89.0625 238.693 89.082H242.502V90.5957L240.793 91.0352C240.949 91.276 241.066 91.5332 241.145 91.8066C241.223 92.0801 241.262 92.3698 241.262 92.6758C241.262 93.8477 240.852 94.7624 240.031 95.4199C239.217 96.071 238.085 96.3965 236.633 96.3965C236.288 96.377 235.962 96.3509 235.656 96.3184C235.507 96.4355 235.393 96.5592 235.314 96.6895C235.236 96.8197 235.197 96.9564 235.197 97.0996C235.197 97.2428 235.256 97.3633 235.373 97.4609C235.497 97.5521 235.679 97.6237 235.92 97.6758C236.167 97.7214 236.473 97.7441 236.838 97.7441H238.693C239.891 97.7441 240.803 98.0013 241.428 98.5156C242.059 99.0299 242.375 99.7852 242.375 100.781C242.375 102.057 241.841 103.047 240.773 103.75C239.712 104.453 238.186 104.805 236.193 104.805ZM236.32 102.861C237.03 102.861 237.639 102.793 238.146 102.656C238.661 102.526 239.055 102.337 239.328 102.09C239.602 101.849 239.738 101.559 239.738 101.221C239.738 100.947 239.657 100.729 239.494 100.566C239.338 100.41 239.097 100.299 238.771 100.234C238.452 100.169 238.042 100.137 237.541 100.137H235.998C235.633 100.137 235.305 100.195 235.012 100.312C234.725 100.43 234.497 100.592 234.328 100.801C234.159 101.016 234.074 101.263 234.074 101.543C234.074 101.953 234.27 102.275 234.66 102.51C235.057 102.744 235.611 102.861 236.32 102.861ZM236.799 94.5801C237.359 94.5801 237.769 94.4076 238.029 94.0625C238.29 93.7174 238.42 93.2487 238.42 92.6562C238.42 91.9987 238.283 91.5072 238.01 91.1816C237.743 90.8496 237.339 90.6836 236.799 90.6836C236.252 90.6836 235.842 90.8496 235.568 91.1816C235.295 91.5072 235.158 91.9987 235.158 92.6562C235.158 93.2487 235.292 93.7174 235.559 94.0625C235.832 94.4076 236.245 94.5801 236.799 94.5801ZM248.811 88.877C249.82 88.877 250.689 89.0723 251.418 89.4629C252.147 89.847 252.71 90.4069 253.107 91.1426C253.505 91.8783 253.703 92.7767 253.703 93.8379V95.2832H246.662C246.695 96.123 246.945 96.7839 247.414 97.2656C247.889 97.7409 248.547 97.9785 249.387 97.9785C250.083 97.9785 250.721 97.9069 251.301 97.7637C251.88 97.6204 252.476 97.4056 253.088 97.1191V99.4238C252.548 99.6908 251.981 99.8861 251.389 100.01C250.803 100.133 250.09 100.195 249.25 100.195C248.156 100.195 247.186 99.9935 246.34 99.5898C245.5 99.1862 244.839 98.571 244.357 97.7441C243.882 96.9173 243.645 95.8757 243.645 94.6191C243.645 93.3431 243.859 92.2819 244.289 91.4355C244.725 90.5827 245.331 89.9447 246.105 89.5215C246.88 89.0918 247.782 88.877 248.811 88.877ZM248.83 90.9961C248.251 90.9961 247.769 91.1816 247.385 91.5527C247.007 91.9238 246.789 92.5065 246.73 93.3008H250.91C250.904 92.8581 250.822 92.4642 250.666 92.1191C250.516 91.7741 250.288 91.5007 249.982 91.2988C249.683 91.097 249.299 90.9961 248.83 90.9961ZM263.742 96.7578C263.742 97.5 263.566 98.1283 263.215 98.6426C262.87 99.1504 262.352 99.5378 261.662 99.8047C260.972 100.065 260.113 100.195 259.084 100.195C258.322 100.195 257.668 100.146 257.121 100.049C256.581 99.9512 256.034 99.7884 255.48 99.5605V97.0996C256.073 97.3665 256.708 97.5879 257.385 97.7637C258.068 97.9329 258.667 98.0176 259.182 98.0176C259.761 98.0176 260.174 97.9329 260.422 97.7637C260.676 97.5879 260.803 97.36 260.803 97.0801C260.803 96.8978 260.751 96.735 260.646 96.5918C260.549 96.4421 260.334 96.276 260.002 96.0938C259.67 95.9049 259.149 95.6608 258.439 95.3613C257.756 95.0749 257.193 94.7852 256.75 94.4922C256.314 94.1992 255.988 93.8542 255.773 93.457C255.565 93.0534 255.461 92.5423 255.461 91.9238C255.461 90.9147 255.852 90.1562 256.633 89.6484C257.421 89.1341 258.472 88.877 259.787 88.877C260.464 88.877 261.109 88.9453 261.721 89.082C262.339 89.2188 262.974 89.4368 263.625 89.7363L262.727 91.8848C262.186 91.6504 261.675 91.4583 261.193 91.3086C260.718 91.1589 260.233 91.084 259.738 91.084C259.302 91.084 258.973 91.1426 258.752 91.2598C258.531 91.377 258.42 91.556 258.42 91.7969C258.42 91.9727 258.475 92.1289 258.586 92.2656C258.703 92.4023 258.924 92.5553 259.25 92.7246C259.582 92.8874 260.067 93.099 260.705 93.3594C261.324 93.6133 261.861 93.8802 262.316 94.1602C262.772 94.4336 263.124 94.7754 263.371 95.1855C263.618 95.5892 263.742 96.1133 263.742 96.7578ZM270.666 97.8223C270.992 97.8223 271.307 97.7897 271.613 97.7246C271.926 97.6595 272.235 97.5781 272.541 97.4805V99.6973C272.222 99.8405 271.825 99.9577 271.35 100.049C270.881 100.146 270.367 100.195 269.807 100.195C269.156 100.195 268.57 100.091 268.049 99.8828C267.535 99.668 267.128 99.3001 266.828 98.7793C266.535 98.252 266.389 97.5195 266.389 96.582V91.3184H264.963V90.0586L266.604 89.0625L267.463 86.7578H269.367V89.082H272.424V91.3184H269.367V96.582C269.367 96.9987 269.484 97.3112 269.719 97.5195C269.96 97.7214 270.275 97.8223 270.666 97.8223ZM282.375 96.7578C282.375 97.5 282.199 98.1283 281.848 98.6426C281.503 99.1504 280.985 99.5378 280.295 99.8047C279.605 100.065 278.745 100.195 277.717 100.195C276.955 100.195 276.301 100.146 275.754 100.049C275.214 99.9512 274.667 99.7884 274.113 99.5605V97.0996C274.706 97.3665 275.34 97.5879 276.018 97.7637C276.701 97.9329 277.3 98.0176 277.814 98.0176C278.394 98.0176 278.807 97.9329 279.055 97.7637C279.309 97.5879 279.436 97.36 279.436 97.0801C279.436 96.8978 279.383 96.735 279.279 96.5918C279.182 96.4421 278.967 96.276 278.635 96.0938C278.303 95.9049 277.782 95.6608 277.072 95.3613C276.389 95.0749 275.826 94.7852 275.383 94.4922C274.947 94.1992 274.621 93.8542 274.406 93.457C274.198 93.0534 274.094 92.5423 274.094 91.9238C274.094 90.9147 274.484 90.1562 275.266 89.6484C276.053 89.1341 277.105 88.877 278.42 88.877C279.097 88.877 279.742 88.9453 280.354 89.082C280.972 89.2188 281.607 89.4368 282.258 89.7363L281.359 91.8848C280.819 91.6504 280.308 91.4583 279.826 91.3086C279.351 91.1589 278.866 91.084 278.371 91.084C277.935 91.084 277.606 91.1426 277.385 91.2598C277.163 91.377 277.053 91.556 277.053 91.7969C277.053 91.9727 277.108 92.1289 277.219 92.2656C277.336 92.4023 277.557 92.5553 277.883 92.7246C278.215 92.8874 278.7 93.099 279.338 93.3594C279.956 93.6133 280.493 93.8802 280.949 94.1602C281.405 94.4336 281.757 94.7754 282.004 95.1855C282.251 95.5892 282.375 96.1133 282.375 96.7578ZM58.9961 120.195C57.9154 120.195 56.9941 120 56.2324 119.609C55.4707 119.212 54.8913 118.6 54.4941 117.773C54.097 116.947 53.8984 115.889 53.8984 114.6C53.8984 113.265 54.123 112.178 54.5723 111.338C55.028 110.492 55.6562 109.87 56.457 109.473C57.2643 109.076 58.1986 108.877 59.2598 108.877C60.015 108.877 60.666 108.952 61.2129 109.102C61.7663 109.245 62.248 109.417 62.6582 109.619L61.7793 111.924C61.3105 111.735 60.8743 111.582 60.4707 111.465C60.0671 111.341 59.6634 111.279 59.2598 111.279C58.7389 111.279 58.306 111.403 57.9609 111.65C57.6159 111.891 57.3587 112.256 57.1895 112.744C57.0202 113.232 56.9355 113.844 56.9355 114.58C56.9355 115.303 57.0267 115.902 57.209 116.377C57.3913 116.852 57.6549 117.207 58 117.441C58.3451 117.669 58.765 117.783 59.2598 117.783C59.8783 117.783 60.4284 117.702 60.9102 117.539C61.3919 117.37 61.8607 117.135 62.3164 116.836V119.385C61.8607 119.671 61.3822 119.876 60.8809 120C60.3861 120.13 59.7578 120.195 58.9961 120.195ZM69.3281 108.857C70.793 108.857 71.916 109.176 72.6973 109.814C73.4785 110.452 73.8691 111.423 73.8691 112.725V120H71.7891L71.2129 118.516H71.1348C70.8223 118.906 70.5033 119.225 70.1777 119.473C69.8522 119.72 69.4779 119.902 69.0547 120.02C68.6315 120.137 68.1172 120.195 67.5117 120.195C66.8672 120.195 66.2878 120.072 65.7734 119.824C65.2656 119.577 64.8652 119.199 64.5723 118.691C64.2793 118.177 64.1328 117.526 64.1328 116.738C64.1328 115.579 64.5397 114.727 65.3535 114.18C66.1673 113.626 67.388 113.32 69.0156 113.262L70.9102 113.203V112.725C70.9102 112.152 70.7604 111.732 70.4609 111.465C70.1615 111.198 69.7448 111.064 69.2109 111.064C68.6836 111.064 68.166 111.139 67.6582 111.289C67.1504 111.439 66.6426 111.628 66.1348 111.855L65.1484 109.844C65.7279 109.538 66.3757 109.297 67.0918 109.121C67.8145 108.945 68.5599 108.857 69.3281 108.857ZM70.9102 114.941L69.7578 114.98C68.7943 115.007 68.1237 115.179 67.7461 115.498C67.375 115.817 67.1895 116.237 67.1895 116.758C67.1895 117.214 67.3229 117.539 67.5898 117.734C67.8568 117.923 68.2051 118.018 68.6348 118.018C69.2728 118.018 69.8099 117.829 70.2461 117.451C70.6888 117.074 70.9102 116.536 70.9102 115.84V114.941ZM89.7676 108.877C91.0046 108.877 91.9388 109.196 92.5703 109.834C93.2083 110.465 93.5273 111.481 93.5273 112.881V120H90.5391V113.623C90.5391 112.842 90.4056 112.253 90.1387 111.855C89.8717 111.458 89.4583 111.26 88.8984 111.26C88.1107 111.26 87.5508 111.543 87.2188 112.109C86.8867 112.669 86.7207 113.473 86.7207 114.521V120H83.7422V113.623C83.7422 113.102 83.6836 112.666 83.5664 112.314C83.4492 111.963 83.2702 111.699 83.0293 111.523C82.7884 111.348 82.4792 111.26 82.1016 111.26C81.5482 111.26 81.112 111.4 80.793 111.68C80.4805 111.953 80.2559 112.36 80.1191 112.9C79.9889 113.434 79.9238 114.089 79.9238 114.863V120H76.9453V109.082H79.2207L79.6211 110.479H79.7871C80.0085 110.101 80.2852 109.795 80.6172 109.561C80.9557 109.326 81.3268 109.154 81.7305 109.043C82.1341 108.932 82.5443 108.877 82.9609 108.877C83.7617 108.877 84.4388 109.007 84.9922 109.268C85.5521 109.528 85.9818 109.932 86.2812 110.479H86.5449C86.8704 109.919 87.3294 109.512 87.9219 109.258C88.5208 109.004 89.1361 108.877 89.7676 108.877ZM102.668 108.877C103.898 108.877 104.891 109.355 105.646 110.312C106.408 111.27 106.789 112.673 106.789 114.521C106.789 115.758 106.61 116.8 106.252 117.646C105.894 118.486 105.399 119.121 104.768 119.551C104.136 119.98 103.41 120.195 102.59 120.195C102.062 120.195 101.61 120.13 101.232 120C100.855 119.863 100.533 119.691 100.266 119.482C99.9987 119.268 99.7676 119.04 99.5723 118.799H99.416C99.4681 119.059 99.5072 119.326 99.5332 119.6C99.5592 119.873 99.5723 120.14 99.5723 120.4V124.805H96.5938V109.082H99.0156L99.4355 110.498H99.5723C99.7676 110.205 100.005 109.935 100.285 109.688C100.565 109.44 100.9 109.245 101.291 109.102C101.688 108.952 102.147 108.877 102.668 108.877ZM101.711 111.26C101.19 111.26 100.777 111.367 100.471 111.582C100.165 111.797 99.9401 112.119 99.7969 112.549C99.6602 112.979 99.5853 113.522 99.5723 114.18V114.502C99.5723 115.205 99.6374 115.801 99.7676 116.289C99.9043 116.777 100.129 117.148 100.441 117.402C100.76 117.656 101.197 117.783 101.75 117.783C102.206 117.783 102.58 117.656 102.873 117.402C103.166 117.148 103.384 116.777 103.527 116.289C103.677 115.794 103.752 115.192 103.752 114.482C103.752 113.415 103.586 112.611 103.254 112.07C102.922 111.53 102.408 111.26 101.711 111.26ZM113.723 108.857C115.188 108.857 116.311 109.176 117.092 109.814C117.873 110.452 118.264 111.423 118.264 112.725V120H116.184L115.607 118.516H115.529C115.217 118.906 114.898 119.225 114.572 119.473C114.247 119.72 113.872 119.902 113.449 120.02C113.026 120.137 112.512 120.195 111.906 120.195C111.262 120.195 110.682 120.072 110.168 119.824C109.66 119.577 109.26 119.199 108.967 118.691C108.674 118.177 108.527 117.526 108.527 116.738C108.527 115.579 108.934 114.727 109.748 114.18C110.562 113.626 111.783 113.32 113.41 113.262L115.305 113.203V112.725C115.305 112.152 115.155 111.732 114.855 111.465C114.556 111.198 114.139 111.064 113.605 111.064C113.078 111.064 112.561 111.139 112.053 111.289C111.545 111.439 111.037 111.628 110.529 111.855L109.543 109.844C110.122 109.538 110.77 109.297 111.486 109.121C112.209 108.945 112.954 108.857 113.723 108.857ZM115.305 114.941L114.152 114.98C113.189 115.007 112.518 115.179 112.141 115.498C111.77 115.817 111.584 116.237 111.584 116.758C111.584 117.214 111.717 117.539 111.984 117.734C112.251 117.923 112.6 118.018 113.029 118.018C113.667 118.018 114.204 117.829 114.641 117.451C115.083 117.074 115.305 116.536 115.305 115.84V114.941ZM124.318 109.082V120H121.34V109.082H124.318ZM122.834 104.805C123.277 104.805 123.658 104.909 123.977 105.117C124.296 105.319 124.455 105.7 124.455 106.26C124.455 106.813 124.296 107.197 123.977 107.412C123.658 107.62 123.277 107.725 122.834 107.725C122.385 107.725 122.001 107.62 121.682 107.412C121.369 107.197 121.213 106.813 121.213 106.26C121.213 105.7 121.369 105.319 121.682 105.117C122.001 104.909 122.385 104.805 122.834 104.805ZM130.646 124.805C129.123 124.805 127.958 124.538 127.15 124.004C126.35 123.477 125.949 122.734 125.949 121.777C125.949 121.12 126.154 120.57 126.564 120.127C126.975 119.684 127.577 119.368 128.371 119.18C128.065 119.049 127.798 118.838 127.57 118.545C127.342 118.245 127.229 117.93 127.229 117.598C127.229 117.181 127.349 116.836 127.59 116.562C127.831 116.283 128.179 116.009 128.635 115.742C128.062 115.495 127.606 115.098 127.268 114.551C126.936 114.004 126.77 113.359 126.77 112.617C126.77 111.823 126.942 111.149 127.287 110.596C127.639 110.036 128.146 109.609 128.811 109.316C129.481 109.023 130.295 108.877 131.252 108.877C131.454 108.877 131.688 108.89 131.955 108.916C132.222 108.942 132.466 108.971 132.688 109.004C132.915 109.036 133.068 109.062 133.146 109.082H136.955V110.596L135.246 111.035C135.402 111.276 135.52 111.533 135.598 111.807C135.676 112.08 135.715 112.37 135.715 112.676C135.715 113.848 135.305 114.762 134.484 115.42C133.671 116.071 132.538 116.396 131.086 116.396C130.741 116.377 130.415 116.351 130.109 116.318C129.96 116.436 129.846 116.559 129.768 116.689C129.689 116.82 129.65 116.956 129.65 117.1C129.65 117.243 129.709 117.363 129.826 117.461C129.95 117.552 130.132 117.624 130.373 117.676C130.62 117.721 130.926 117.744 131.291 117.744H133.146C134.344 117.744 135.256 118.001 135.881 118.516C136.512 119.03 136.828 119.785 136.828 120.781C136.828 122.057 136.294 123.047 135.227 123.75C134.165 124.453 132.639 124.805 130.646 124.805ZM130.773 122.861C131.483 122.861 132.092 122.793 132.6 122.656C133.114 122.526 133.508 122.337 133.781 122.09C134.055 121.849 134.191 121.559 134.191 121.221C134.191 120.947 134.11 120.729 133.947 120.566C133.791 120.41 133.55 120.299 133.225 120.234C132.906 120.169 132.495 120.137 131.994 120.137H130.451C130.087 120.137 129.758 120.195 129.465 120.312C129.178 120.43 128.951 120.592 128.781 120.801C128.612 121.016 128.527 121.263 128.527 121.543C128.527 121.953 128.723 122.275 129.113 122.51C129.51 122.744 130.064 122.861 130.773 122.861ZM131.252 114.58C131.812 114.58 132.222 114.408 132.482 114.062C132.743 113.717 132.873 113.249 132.873 112.656C132.873 111.999 132.736 111.507 132.463 111.182C132.196 110.85 131.792 110.684 131.252 110.684C130.705 110.684 130.295 110.85 130.021 111.182C129.748 111.507 129.611 111.999 129.611 112.656C129.611 113.249 129.745 113.717 130.012 114.062C130.285 114.408 130.699 114.58 131.252 114.58ZM144.963 108.877C146.128 108.877 147.066 109.196 147.775 109.834C148.485 110.465 148.84 111.481 148.84 112.881V120H145.861V113.623C145.861 112.842 145.718 112.253 145.432 111.855C145.152 111.458 144.709 111.26 144.104 111.26C143.192 111.26 142.57 111.569 142.238 112.188C141.906 112.806 141.74 113.698 141.74 114.863V120H138.762V109.082H141.037L141.438 110.479H141.604C141.838 110.101 142.128 109.795 142.473 109.561C142.824 109.326 143.212 109.154 143.635 109.043C144.064 108.932 144.507 108.877 144.963 108.877ZM159.523 116.758C159.523 117.5 159.348 118.128 158.996 118.643C158.651 119.15 158.133 119.538 157.443 119.805C156.753 120.065 155.894 120.195 154.865 120.195C154.104 120.195 153.449 120.146 152.902 120.049C152.362 119.951 151.815 119.788 151.262 119.561V117.1C151.854 117.367 152.489 117.588 153.166 117.764C153.85 117.933 154.449 118.018 154.963 118.018C155.542 118.018 155.956 117.933 156.203 117.764C156.457 117.588 156.584 117.36 156.584 117.08C156.584 116.898 156.532 116.735 156.428 116.592C156.33 116.442 156.115 116.276 155.783 116.094C155.451 115.905 154.93 115.661 154.221 115.361C153.537 115.075 152.974 114.785 152.531 114.492C152.095 114.199 151.77 113.854 151.555 113.457C151.346 113.053 151.242 112.542 151.242 111.924C151.242 110.915 151.633 110.156 152.414 109.648C153.202 109.134 154.253 108.877 155.568 108.877C156.245 108.877 156.89 108.945 157.502 109.082C158.12 109.219 158.755 109.437 159.406 109.736L158.508 111.885C157.967 111.65 157.456 111.458 156.975 111.309C156.499 111.159 156.014 111.084 155.52 111.084C155.083 111.084 154.755 111.143 154.533 111.26C154.312 111.377 154.201 111.556 154.201 111.797C154.201 111.973 154.257 112.129 154.367 112.266C154.484 112.402 154.706 112.555 155.031 112.725C155.363 112.887 155.848 113.099 156.486 113.359C157.105 113.613 157.642 113.88 158.098 114.16C158.553 114.434 158.905 114.775 159.152 115.186C159.4 115.589 159.523 116.113 159.523 116.758ZM171.643 117.822C171.968 117.822 172.284 117.79 172.59 117.725C172.902 117.66 173.212 117.578 173.518 117.48V119.697C173.199 119.84 172.801 119.958 172.326 120.049C171.857 120.146 171.343 120.195 170.783 120.195C170.132 120.195 169.546 120.091 169.025 119.883C168.511 119.668 168.104 119.3 167.805 118.779C167.512 118.252 167.365 117.52 167.365 116.582V111.318H165.939V110.059L167.58 109.062L168.439 106.758H170.344V109.082H173.4V111.318H170.344V116.582C170.344 116.999 170.461 117.311 170.695 117.52C170.936 117.721 171.252 117.822 171.643 117.822ZM185.656 114.521C185.656 115.433 185.533 116.24 185.285 116.943C185.044 117.646 184.689 118.242 184.221 118.73C183.758 119.212 183.199 119.577 182.541 119.824C181.89 120.072 181.154 120.195 180.334 120.195C179.566 120.195 178.859 120.072 178.215 119.824C177.577 119.577 177.02 119.212 176.545 118.73C176.076 118.242 175.712 117.646 175.451 116.943C175.197 116.24 175.07 115.433 175.07 114.521C175.07 113.311 175.285 112.285 175.715 111.445C176.145 110.605 176.757 109.967 177.551 109.531C178.345 109.095 179.292 108.877 180.393 108.877C181.415 108.877 182.32 109.095 183.107 109.531C183.902 109.967 184.523 110.605 184.973 111.445C185.428 112.285 185.656 113.311 185.656 114.521ZM178.107 114.521C178.107 115.238 178.186 115.84 178.342 116.328C178.498 116.816 178.742 117.184 179.074 117.432C179.406 117.679 179.839 117.803 180.373 117.803C180.9 117.803 181.327 117.679 181.652 117.432C181.984 117.184 182.225 116.816 182.375 116.328C182.531 115.84 182.609 115.238 182.609 114.521C182.609 113.799 182.531 113.2 182.375 112.725C182.225 112.243 181.984 111.882 181.652 111.641C181.32 111.4 180.887 111.279 180.354 111.279C179.566 111.279 178.993 111.549 178.635 112.09C178.283 112.63 178.107 113.441 178.107 114.521ZM196.506 124.805C194.982 124.805 193.817 124.538 193.01 124.004C192.209 123.477 191.809 122.734 191.809 121.777C191.809 121.12 192.014 120.57 192.424 120.127C192.834 119.684 193.436 119.368 194.23 119.18C193.924 119.049 193.658 118.838 193.43 118.545C193.202 118.245 193.088 117.93 193.088 117.598C193.088 117.181 193.208 116.836 193.449 116.562C193.69 116.283 194.038 116.009 194.494 115.742C193.921 115.495 193.465 115.098 193.127 114.551C192.795 114.004 192.629 113.359 192.629 112.617C192.629 111.823 192.801 111.149 193.146 110.596C193.498 110.036 194.006 109.609 194.67 109.316C195.34 109.023 196.154 108.877 197.111 108.877C197.313 108.877 197.548 108.89 197.814 108.916C198.081 108.942 198.326 108.971 198.547 109.004C198.775 109.036 198.928 109.062 199.006 109.082H202.814V110.596L201.105 111.035C201.262 111.276 201.379 111.533 201.457 111.807C201.535 112.08 201.574 112.37 201.574 112.676C201.574 113.848 201.164 114.762 200.344 115.42C199.53 116.071 198.397 116.396 196.945 116.396C196.6 116.377 196.275 116.351 195.969 116.318C195.819 116.436 195.705 116.559 195.627 116.689C195.549 116.82 195.51 116.956 195.51 117.1C195.51 117.243 195.568 117.363 195.686 117.461C195.809 117.552 195.992 117.624 196.232 117.676C196.48 117.721 196.786 117.744 197.15 117.744H199.006C200.204 117.744 201.115 118.001 201.74 118.516C202.372 119.03 202.688 119.785 202.688 120.781C202.688 122.057 202.154 123.047 201.086 123.75C200.025 124.453 198.498 124.805 196.506 124.805ZM196.633 122.861C197.342 122.861 197.951 122.793 198.459 122.656C198.973 122.526 199.367 122.337 199.641 122.09C199.914 121.849 200.051 121.559 200.051 121.221C200.051 120.947 199.969 120.729 199.807 120.566C199.65 120.41 199.41 120.299 199.084 120.234C198.765 120.169 198.355 120.137 197.854 120.137H196.311C195.946 120.137 195.617 120.195 195.324 120.312C195.038 120.43 194.81 120.592 194.641 120.801C194.471 121.016 194.387 121.263 194.387 121.543C194.387 121.953 194.582 122.275 194.973 122.51C195.37 122.744 195.923 122.861 196.633 122.861ZM197.111 114.58C197.671 114.58 198.081 114.408 198.342 114.062C198.602 113.717 198.732 113.249 198.732 112.656C198.732 111.999 198.596 111.507 198.322 111.182C198.055 110.85 197.652 110.684 197.111 110.684C196.564 110.684 196.154 110.85 195.881 111.182C195.607 111.507 195.471 111.999 195.471 112.656C195.471 113.249 195.604 113.717 195.871 114.062C196.145 114.408 196.558 114.58 197.111 114.58ZM209.123 108.877C210.132 108.877 211.001 109.072 211.73 109.463C212.46 109.847 213.023 110.407 213.42 111.143C213.817 111.878 214.016 112.777 214.016 113.838V115.283H206.975C207.007 116.123 207.258 116.784 207.727 117.266C208.202 117.741 208.859 117.979 209.699 117.979C210.396 117.979 211.034 117.907 211.613 117.764C212.193 117.62 212.788 117.406 213.4 117.119V119.424C212.86 119.691 212.294 119.886 211.701 120.01C211.115 120.133 210.402 120.195 209.562 120.195C208.469 120.195 207.499 119.993 206.652 119.59C205.812 119.186 205.152 118.571 204.67 117.744C204.195 116.917 203.957 115.876 203.957 114.619C203.957 113.343 204.172 112.282 204.602 111.436C205.038 110.583 205.643 109.945 206.418 109.521C207.193 109.092 208.094 108.877 209.123 108.877ZM209.143 110.996C208.563 110.996 208.081 111.182 207.697 111.553C207.32 111.924 207.102 112.507 207.043 113.301H211.223C211.216 112.858 211.135 112.464 210.979 112.119C210.829 111.774 210.601 111.501 210.295 111.299C209.995 111.097 209.611 110.996 209.143 110.996ZM221.037 117.822C221.363 117.822 221.678 117.79 221.984 117.725C222.297 117.66 222.606 117.578 222.912 117.48V119.697C222.593 119.84 222.196 119.958 221.721 120.049C221.252 120.146 220.738 120.195 220.178 120.195C219.527 120.195 218.941 120.091 218.42 119.883C217.906 119.668 217.499 119.3 217.199 118.779C216.906 118.252 216.76 117.52 216.76 116.582V111.318H215.334V110.059L216.975 109.062L217.834 106.758H219.738V109.082H222.795V111.318H219.738V116.582C219.738 116.999 219.855 117.311 220.09 117.52C220.331 117.721 220.646 117.822 221.037 117.822ZM234.924 117.822C235.249 117.822 235.565 117.79 235.871 117.725C236.184 117.66 236.493 117.578 236.799 117.48V119.697C236.48 119.84 236.083 119.958 235.607 120.049C235.139 120.146 234.624 120.195 234.064 120.195C233.413 120.195 232.827 120.091 232.307 119.883C231.792 119.668 231.385 119.3 231.086 118.779C230.793 118.252 230.646 117.52 230.646 116.582V111.318H229.221V110.059L230.861 109.062L231.721 106.758H233.625V109.082H236.682V111.318H233.625V116.582C233.625 116.999 233.742 117.311 233.977 117.52C234.217 117.721 234.533 117.822 234.924 117.822ZM241.994 104.805V107.9C241.994 108.441 241.975 108.955 241.936 109.443C241.903 109.932 241.877 110.277 241.857 110.479H242.014C242.248 110.101 242.525 109.795 242.844 109.561C243.169 109.326 243.527 109.154 243.918 109.043C244.309 108.932 244.729 108.877 245.178 108.877C245.965 108.877 246.652 109.017 247.238 109.297C247.824 109.57 248.28 110.003 248.605 110.596C248.931 111.182 249.094 111.943 249.094 112.881V120H246.115V113.623C246.115 112.842 245.972 112.253 245.686 111.855C245.399 111.458 244.956 111.26 244.357 111.26C243.758 111.26 243.286 111.4 242.941 111.68C242.596 111.953 242.352 112.36 242.209 112.9C242.066 113.434 241.994 114.089 241.994 114.863V120H239.016V104.805H241.994ZM256.662 108.877C257.671 108.877 258.54 109.072 259.27 109.463C259.999 109.847 260.562 110.407 260.959 111.143C261.356 111.878 261.555 112.777 261.555 113.838V115.283H254.514C254.546 116.123 254.797 116.784 255.266 117.266C255.741 117.741 256.398 117.979 257.238 117.979C257.935 117.979 258.573 117.907 259.152 117.764C259.732 117.62 260.327 117.406 260.939 117.119V119.424C260.399 119.691 259.833 119.886 259.24 120.01C258.654 120.133 257.941 120.195 257.102 120.195C256.008 120.195 255.038 119.993 254.191 119.59C253.352 119.186 252.691 118.571 252.209 117.744C251.734 116.917 251.496 115.876 251.496 114.619C251.496 113.343 251.711 112.282 252.141 111.436C252.577 110.583 253.182 109.945 253.957 109.521C254.732 109.092 255.633 108.877 256.662 108.877ZM256.682 110.996C256.102 110.996 255.62 111.182 255.236 111.553C254.859 111.924 254.641 112.507 254.582 113.301H258.762C258.755 112.858 258.674 112.464 258.518 112.119C258.368 111.774 258.14 111.501 257.834 111.299C257.535 111.097 257.15 110.996 256.682 110.996ZM276.799 108.877C278.036 108.877 278.97 109.196 279.602 109.834C280.24 110.465 280.559 111.481 280.559 112.881V120H277.57V113.623C277.57 112.842 277.437 112.253 277.17 111.855C276.903 111.458 276.49 111.26 275.93 111.26C275.142 111.26 274.582 111.543 274.25 112.109C273.918 112.669 273.752 113.473 273.752 114.521V120H270.773V113.623C270.773 113.102 270.715 112.666 270.598 112.314C270.48 111.963 270.301 111.699 270.061 111.523C269.82 111.348 269.51 111.26 269.133 111.26C268.579 111.26 268.143 111.4 267.824 111.68C267.512 111.953 267.287 112.36 267.15 112.9C267.02 113.434 266.955 114.089 266.955 114.863V120H263.977V109.082H266.252L266.652 110.479H266.818C267.04 110.101 267.316 109.795 267.648 109.561C267.987 109.326 268.358 109.154 268.762 109.043C269.165 108.932 269.576 108.877 269.992 108.877C270.793 108.877 271.47 109.007 272.023 109.268C272.583 109.528 273.013 109.932 273.312 110.479H273.576C273.902 109.919 274.361 109.512 274.953 109.258C275.552 109.004 276.167 108.877 276.799 108.877ZM64.4844 134.521C64.4844 135.433 64.3607 136.24 64.1133 136.943C63.8724 137.646 63.5176 138.242 63.0488 138.73C62.5866 139.212 62.0267 139.577 61.3691 139.824C60.7181 140.072 59.9824 140.195 59.1621 140.195C58.3939 140.195 57.6875 140.072 57.043 139.824C56.4049 139.577 55.8483 139.212 55.373 138.73C54.9043 138.242 54.5397 137.646 54.2793 136.943C54.0254 136.24 53.8984 135.433 53.8984 134.521C53.8984 133.311 54.1133 132.285 54.543 131.445C54.9727 130.605 55.5846 129.967 56.3789 129.531C57.1732 129.095 58.1204 128.877 59.2207 128.877C60.2428 128.877 61.1478 129.095 61.9355 129.531C62.7298 129.967 63.3516 130.605 63.8008 131.445C64.2565 132.285 64.4844 133.311 64.4844 134.521ZM56.9355 134.521C56.9355 135.238 57.0137 135.84 57.1699 136.328C57.3262 136.816 57.5703 137.184 57.9023 137.432C58.2344 137.679 58.6673 137.803 59.2012 137.803C59.7285 137.803 60.1549 137.679 60.4805 137.432C60.8125 137.184 61.0534 136.816 61.2031 136.328C61.3594 135.84 61.4375 135.238 61.4375 134.521C61.4375 133.799 61.3594 133.2 61.2031 132.725C61.0534 132.243 60.8125 131.882 60.4805 131.641C60.1484 131.4 59.7155 131.279 59.1816 131.279C58.3939 131.279 57.821 131.549 57.4629 132.09C57.1113 132.63 56.9355 133.441 56.9355 134.521ZM73.1465 128.877C74.3118 128.877 75.2493 129.196 75.959 129.834C76.6686 130.465 77.0234 131.481 77.0234 132.881V140H74.0449V133.623C74.0449 132.842 73.9017 132.253 73.6152 131.855C73.3353 131.458 72.8926 131.26 72.2871 131.26C71.3757 131.26 70.7539 131.569 70.4219 132.188C70.0898 132.806 69.9238 133.698 69.9238 134.863V140H66.9453V129.082H69.2207L69.6211 130.479H69.7871C70.0215 130.101 70.3112 129.795 70.6562 129.561C71.0078 129.326 71.3952 129.154 71.8184 129.043C72.248 128.932 72.6908 128.877 73.1465 128.877ZM89.8848 137.822C90.2103 137.822 90.526 137.79 90.832 137.725C91.1445 137.66 91.4538 137.578 91.7598 137.48V139.697C91.4408 139.84 91.0436 139.958 90.5684 140.049C90.0996 140.146 89.5853 140.195 89.0254 140.195C88.3743 140.195 87.7884 140.091 87.2676 139.883C86.7533 139.668 86.3464 139.3 86.0469 138.779C85.7539 138.252 85.6074 137.52 85.6074 136.582V131.318H84.1816V130.059L85.8223 129.062L86.6816 126.758H88.5859V129.082H91.6426V131.318H88.5859V136.582C88.5859 136.999 88.7031 137.311 88.9375 137.52C89.1784 137.721 89.4941 137.822 89.8848 137.822ZM100.07 128.877C100.22 128.877 100.393 128.887 100.588 128.906C100.79 128.919 100.952 128.939 101.076 128.965L100.852 131.758C100.754 131.725 100.614 131.702 100.432 131.689C100.256 131.67 100.103 131.66 99.9727 131.66C99.5885 131.66 99.2142 131.709 98.8496 131.807C98.4915 131.904 98.1693 132.064 97.8828 132.285C97.5964 132.5 97.3685 132.786 97.1992 133.145C97.0365 133.496 96.9551 133.929 96.9551 134.443V140H93.9766V129.082H96.2324L96.6719 130.918H96.8184C97.0332 130.547 97.3001 130.208 97.6191 129.902C97.9447 129.59 98.3125 129.342 98.7227 129.16C99.1393 128.971 99.5885 128.877 100.07 128.877ZM107.531 128.857C108.996 128.857 110.119 129.176 110.9 129.814C111.682 130.452 112.072 131.423 112.072 132.725V140H109.992L109.416 138.516H109.338C109.025 138.906 108.706 139.225 108.381 139.473C108.055 139.72 107.681 139.902 107.258 140.02C106.835 140.137 106.32 140.195 105.715 140.195C105.07 140.195 104.491 140.072 103.977 139.824C103.469 139.577 103.068 139.199 102.775 138.691C102.482 138.177 102.336 137.526 102.336 136.738C102.336 135.579 102.743 134.727 103.557 134.18C104.37 133.626 105.591 133.32 107.219 133.262L109.113 133.203V132.725C109.113 132.152 108.964 131.732 108.664 131.465C108.365 131.198 107.948 131.064 107.414 131.064C106.887 131.064 106.369 131.139 105.861 131.289C105.354 131.439 104.846 131.628 104.338 131.855L103.352 129.844C103.931 129.538 104.579 129.297 105.295 129.121C106.018 128.945 106.763 128.857 107.531 128.857ZM109.113 134.941L107.961 134.98C106.997 135.007 106.327 135.179 105.949 135.498C105.578 135.817 105.393 136.237 105.393 136.758C105.393 137.214 105.526 137.539 105.793 137.734C106.06 137.923 106.408 138.018 106.838 138.018C107.476 138.018 108.013 137.829 108.449 137.451C108.892 137.074 109.113 136.536 109.113 135.84V134.941ZM119.582 140.195C118.501 140.195 117.58 140 116.818 139.609C116.057 139.212 115.477 138.6 115.08 137.773C114.683 136.947 114.484 135.889 114.484 134.6C114.484 133.265 114.709 132.178 115.158 131.338C115.614 130.492 116.242 129.87 117.043 129.473C117.85 129.076 118.785 128.877 119.846 128.877C120.601 128.877 121.252 128.952 121.799 129.102C122.352 129.245 122.834 129.417 123.244 129.619L122.365 131.924C121.896 131.735 121.46 131.582 121.057 131.465C120.653 131.341 120.249 131.279 119.846 131.279C119.325 131.279 118.892 131.403 118.547 131.65C118.202 131.891 117.945 132.256 117.775 132.744C117.606 133.232 117.521 133.844 117.521 134.58C117.521 135.303 117.613 135.902 117.795 136.377C117.977 136.852 118.241 137.207 118.586 137.441C118.931 137.669 119.351 137.783 119.846 137.783C120.464 137.783 121.014 137.702 121.496 137.539C121.978 137.37 122.447 137.135 122.902 136.836V139.385C122.447 139.671 121.968 139.876 121.467 140C120.972 140.13 120.344 140.195 119.582 140.195ZM128.42 124.805V131.602C128.42 132.012 128.404 132.422 128.371 132.832C128.339 133.242 128.303 133.652 128.264 134.062H128.303C128.505 133.776 128.71 133.493 128.918 133.213C129.133 132.933 129.361 132.663 129.602 132.402L132.658 129.082H136.018L131.682 133.818L136.281 140H132.844L129.699 135.576L128.42 136.602V140H125.441V124.805H128.42ZM137.424 138.604C137.424 137.992 137.59 137.562 137.922 137.314C138.26 137.067 138.667 136.943 139.143 136.943C139.605 136.943 140.002 137.067 140.334 137.314C140.673 137.562 140.842 137.992 140.842 138.604C140.842 139.189 140.673 139.613 140.334 139.873C140.002 140.133 139.605 140.264 139.143 140.264C138.667 140.264 138.26 140.133 137.922 139.873C137.59 139.613 137.424 139.189 137.424 138.604Z" fill="white"/>
<defs>
<filter id="filter0_d_12_165" x="0" y="0" width="336" height="195" filterUnits="userSpaceOnUse" color-interpolation-filters="sRGB">
<feFlood flood-opacity="0" result="BackgroundImageFix"/>
<feColorMatrix in="SourceAlpha" type="matrix" values="0 0 0 0 0 0 0 0 0 0 0 0 0 0 0 0 0 0 127 0" result="hardAlpha"/>
<feOffset dy="5"/>
<feGaussianBlur stdDeviation="8"/>
<feColorMatrix type="matrix" values="0 0 0 0 0.0323264 0 0 0 0 0.0598209 0 0 0 0 0.204167 0 0 0 0.06 0"/>
<feBlend mode="normal" in2="BackgroundImageFix" result="effect1_dropShadow_12_165"/>
<feBlend mode="normal" in="SourceGraphic" in2="effect1_dropShadow_12_165" result="shape"/>
</filter>
</defs>
</svg>
